<?xml version="1.0" encoding="UTF-8"?>
<svg width="170px" height="144px" viewBox="0 0 170 144" version="1.1" xmlns="http://www.w3.org/2000/svg" xmlns:xlink="http://www.w3.org/1999/xlink">
    <!-- Generator: Sketch 48 (47235) - http://www.bohemiancoding.com/sketch -->
    <title>icon/level/1</title>
    <desc>Created with Sketch.</desc>
    <defs>
        <path d="M88.6844083,113.854767 C88.7021687,121.07697 85.8678737,126.101653 80.0203806,129.21502 C78.2759659,130.144641 76.4271548,130.681324 74.8157263,130.726944 C68.9110535,130.894792 62.8989521,130.895653 57.0887124,130.890919 C55.8537171,130.890919 54.6182885,130.890489 53.3845926,130.891349 C48.4290166,130.895653 43.4751733,130.893501 38.5221963,130.89221 C28.2701318,130.886615 17.6741226,130.883603 7.25181843,130.942134 C6.22561567,130.948159 5.6438553,130.797957 5.29947742,130.457096 C4.9516341,130.112362 4.80478618,129.519729 4.80868479,128.475197 C4.86066636,112.790438 4.85590138,96.8435772 4.85156959,81.4217797 L4.84897051,54.6190203 C4.84853733,38.9983873 4.84853733,23.3777544 4.85027005,7.75712152 C4.85027005,6.45005823 4.85070323,5.73046329 5.14786452,5.43780506 C5.44545899,5.14557722 6.17753272,5.14557722 7.50739447,5.14557722 L23.4817631,5.14643797 C44.1548323,5.14729873 65.533118,5.15031139 86.5600949,5.11114684 L86.5830535,5.11114684 C87.5200212,5.11114684 87.9986848,5.22261519 88.2850166,5.5070962 C88.5670166,5.78684304 88.6917724,6.28565316 88.6904728,7.12360253 C88.6376249,38.8938051 88.5956065,76.4194759 88.6844083,113.854767 M93.5507493,37.1412987 C93.557247,26.9210709 93.5637447,16.7012734 93.5628783,6.48147595 C93.5624452,1.58504557 91.9744083,0.0128683544 87.027929,0.0128683544 L6.67872166,0.0128683544 C1.56503502,0.0128683544 0.00515483871,1.54243797 0.00385529954,6.5589443 C0.000823041475,20.8294759 0.0012562212,35.0991468 0.00168940092,49.3692481 L0.00212258065,89.4010203 L0.000823041475,99.9220835 C-0.000476497695,109.943906 -0.00264239631,120.30702 0.017283871,130.499704 C0.0237815668,134.14459 1.70841751,135.993501 5.02310876,135.995223 C12.3564083,135.998666 19.7789429,135.999957 27.2733853,135.999957 C42.7270719,135.999957 58.4792194,135.993071 74.3262332,135.979729 C75.552565,135.978868 76.521588,135.87902 77.3762516,135.665982 C87.285671,133.191729 93.6620765,124.882818 93.6209244,114.497754 C93.518694,88.712843 93.5347217,62.4954 93.5507493,37.1412987 M79.9746135,44.5222498 C79.9772304,48.750566 79.9794111,52.9788821 79.9754858,57.2071983 C79.9715605,61.6405472 78.5370713,63.0641705 74.0722293,63.0641705 C57.5670993,63.06546 41.0619693,63.0658899 24.5568393,63.0646004 L14.1337863,63.0646004 L14.1337863,13.9646383 L29.4831254,13.9667875 C45.2664313,13.9715157 61.5835817,13.9753843 77.6346821,13.9259529 C78.6709686,13.9173562 79.2449387,14.053185 79.5729216,14.3772828 C79.8930539,14.6940734 80.0334934,15.2481345 80.0273873,16.1722862 C79.9650182,25.6222741 79.9698159,35.2304423 79.9746135,44.5222498 M78.8087912,9.00344843 C70.9358926,8.99915005 63.0634302,9.00000972 55.1900954,9.0008694 L46.974821,9.00172907 L37.8170319,9.0008694 C30.1861952,9.00000972 22.5536138,8.99829037 14.9227771,9.00473794 C10.7252935,9.00817664 9.01210612,10.6729391 9.00905309,14.7503822 C8.99727711,30.1317042 8.99684096,46.1092116 9.00861694,62.240601 C9.01166997,66.4310914 10.6001192,67.9896839 14.8704394,67.9914032 C25.360223,67.9957016 36.0414754,68 46.7598003,68 C56.0497421,68 65.3680336,67.9965613 74.6143607,67.9871049 C81.2839283,67.9802275 84.9650132,64.3635707 84.9798422,57.8029537 C85.011681,43.571878 84.999905,29.4542796 84.9846399,15.0396631 C84.9802784,10.6982996 83.2483366,9.00559762 78.8087912,9.00344843 M27.076783,99.1565939 C27.0793638,99.7004067 27.0815145,100.251915 27.0819446,100.812401 L22.9160663,100.812401 C22.9164964,100.286972 22.9177868,99.7679558 22.9190773,99.2536422 C22.9225183,97.9620867 22.9259594,96.7008854 22.9121951,95.4396842 C22.883806,92.7766257 22.0846112,91.9993838 19.3476485,91.9733047 C18.1247685,91.961334 16.9001681,91.9638991 15.6239511,91.9677468 L14.0483588,91.969457 L14.0483588,88.0225384 C14.5563507,88.0229659 15.0647728,88.024676 15.5744854,88.0268136 C16.8683379,88.0306614 18.2064946,88.0362192 19.5257253,88.0169806 C22.0523509,87.9814959 22.8752033,87.1491031 22.9134855,84.5916435 C22.9268197,83.722056 22.9337019,82.8528959 22.9410142,81.9837359 C22.9474663,81.1470678 22.9543485,80.3099722 22.9663923,79.4733041 C22.9668225,79.4429498 23.0042444,79.3706979 23.0442472,79.2937433 C23.0627431,79.2582586 23.0825294,79.2193538 23.1036061,79.1770287 L27.0810843,79.1770287 C27.0806542,79.7063057 27.0793638,80.2283148 27.0780734,80.744766 C27.0746323,82.0388867 27.0711912,83.3000879 27.0849556,84.5604341 C27.1124844,87.2179348 27.9121093,87.9938942 30.6512227,88.0195457 C31.8698013,88.0310889 33.0892401,88.0276687 34.3611557,88.0251035 L35.9487919,88.0229659 L35.9487919,91.9711671 C35.3835917,91.970312 34.8282846,91.9681744 34.28072,91.9651817 C32.8926674,91.9583413 31.5807491,91.9519284 30.2533458,91.9801451 C27.9835121,92.0284555 27.1258186,92.8954779 27.0879665,95.179321 C27.0664597,96.4913978 27.0716213,97.785946 27.076783,99.1565939 M37.7433241,83.0003923 C36.4283948,82.9751683 35.1108847,82.9811537 33.7168102,82.987139 C33.1430072,82.9897042 32.5550097,82.9922693 31.9480862,82.9926969 C31.9485164,82.358676 31.950667,81.7554371 31.9528177,81.1735744 C31.9579794,79.8196001 31.9622807,78.5400152 31.9424944,77.2835168 C31.9046424,74.9060456 31.0301735,74.0522765 28.6020493,74.0210671 C26.437169,73.9937054 24.1152887,73.9928504 21.5022055,74.019357 C18.8904127,74.0458636 18.0847658,74.8316561 18.0529356,77.3818477 C18.0365904,78.6909319 18.0404617,79.9833425 18.044763,81.3518527 C18.0460534,81.8905353 18.047774,82.4369133 18.0482041,82.9922693 C17.4326779,82.9918418 16.8425297,82.9901317 16.2700171,82.9879941 C14.9159454,82.9828638 13.6371476,82.9785885 12.371254,82.9978272 C9.89796536,83.0350219 9.05274586,83.8537339 9.02263626,86.2427483 C8.99252666,88.6685299 8.99252666,91.1862296 9.02220612,93.7270157 C9.05102531,96.1309935 9.89108317,96.9556908 12.352328,96.9941682 C13.6616654,97.0151169 14.9624002,97.0099866 16.3388391,97.0048563 C16.8975872,97.0027187 17.4662286,97.000581 18.0490644,97.0001535 C18.0486343,97.6162183 18.0460534,98.2100517 18.0434726,98.7880666 C18.0378808,100.181373 18.0331493,101.498153 18.0559466,102.806809 C18.0959494,105.046617 18.9975168,105.933306 21.2712218,105.969218 C22.5990552,105.989312 23.8675297,106 25.094711,106 C26.3696375,106 27.6002599,105.988457 28.8029234,105.966653 C31.0546914,105.925183 31.9055026,105.04619 31.9420643,102.724297 C31.9622807,101.414785 31.9579794,100.108694 31.9528177,98.7252203 C31.950667,98.1638789 31.9485164,97.5905667 31.9480862,97.0001535 C32.5485577,97.000581 33.1301031,97.0031462 33.6991746,97.0057114 C35.0941094,97.0112692 36.410329,97.0172546 37.7282693,96.9924581 C40.0591825,96.9492779 40.9383829,96.0985015 40.9719336,93.8535633 C41.0093555,91.3277407 41.0093555,88.7377891 40.9719336,86.154678 C40.9396733,83.8999067 40.0643442,83.044855 37.7433241,83.0003923 M79.7801463,81.5922766 C79.7482631,82.4854064 79.3912618,83.2918725 78.7756029,83.8621464 C78.1442269,84.4472384 77.2779935,84.7543781 76.3493409,84.7103727 C74.5643342,84.6389762 73.2755369,83.2743601 73.2845181,81.4656489 C73.2890087,80.5487203 73.6289458,79.713965 74.2414613,79.1154019 C74.8346673,78.5356982 75.6429723,78.2186798 76.5231265,78.2186798 C76.5451304,78.2186798 76.5675833,78.2186798 76.5895871,78.2191289 C77.489949,78.2352941 78.3135219,78.5895824 78.9080751,79.2168837 C79.5035264,79.8450831 79.8129275,80.688819 79.7801463,81.5922766 M76.5334548,73 L76.5330058,73 L76.5249227,73 C74.277835,73 72.1466044,73.8872923 70.5228096,75.4984284 C68.8958714,77.1118096 68.0000002,79.2321509 68.0000002,81.467894 C67.999102,86.0830714 71.8996223,89.9901212 76.5181869,90 L76.534353,90 C78.75315,90 80.8605805,89.1154019 82.4709036,87.5087562 C84.1014342,85.8819039 84.9995508,83.740907 84.9999998,81.480018 C85.000898,76.8091603 81.2027629,73.0049394 76.5334548,73 M59.7136478,89.5725229 C59.6947883,90.474232 59.3490305,91.2861294 58.7414846,91.8595768 C58.1209167,92.4442507 57.2677481,92.7496104 56.3324059,92.7114404 C54.5367105,92.6440817 53.2246269,91.2879256 53.212952,89.4876509 C53.2075636,88.5904324 53.5429935,87.7601236 54.1572749,87.1485062 C54.7648208,86.5436247 55.5865569,86.2122197 56.4743013,86.2122197 C56.4882214,86.2122197 56.5021415,86.2126687 56.5160616,86.2126687 C57.4096435,86.222548 58.2255421,86.5624851 58.8124323,87.1691629 C59.4132427,87.7902105 59.7334054,88.6438704 59.7136478,89.5725229 M64.999701,89.5226774 C64.9606348,94.1300156 61.0652465,98 56.4810368,98 L56.4267035,98 C51.758524,97.9685659 47.978538,94.1228307 48.0000917,89.427028 C48.0211964,84.7729878 51.8249814,81 56.4864253,81 L56.520103,81 C58.7783056,81.0089812 60.9157175,81.9187733 62.5389831,83.5623267 C64.1447362,85.1879177 65.0185605,87.3047785 64.999701,89.5226774 Z M70.6393561,101.002665 C71.4838764,101.043061 72.1785204,101.391715 72.5942642,101.984187 C72.9630902,102.509333 73.0834257,103.177306 72.9431067,103.917896 C72.7932305,104.707538 72.264102,105.386572 71.7527849,106.043485 C71.5355729,106.322889 71.3109757,106.61095 71.1246077,106.898049 L71.0585753,107 L69.8365405,106.980283 L69.773549,106.876408 C69.5945663,106.583058 69.3743133,106.286341 69.1614455,105.999723 C68.6601202,105.324055 68.1422868,104.625785 68.0336808,103.833738 C67.9237715,103.03544 68.0840739,102.343902 68.4967768,101.834146 C68.967258,101.254658 69.7270656,100.969002 70.6393561,101.002665 Z M70.5811471,111.000833 C71.4313668,111.019586 72.1364799,111.350896 72.5661515,111.933695 C72.9436889,112.446288 73.078803,113.107947 72.9558535,113.847985 C72.8233461,114.640917 72.3106946,115.335755 71.815421,116.00655 C71.6042781,116.292179 71.3866184,116.587425 71.2063214,116.880267 L71.1428916,116.983651 L69.9212168,117 L69.8551804,116.898058 C69.6692356,116.609544 69.4420179,116.319107 69.222186,116.037806 C68.7064933,115.378071 68.172988,114.695735 68.0456941,113.907611 C67.9166623,113.108908 68.0622032,112.410704 68.4658077,111.887532 C68.9224152,111.296079 69.6787935,110.981599 70.5811471,111.000833 Z M70.5811471,119.000422 C71.4313668,119.019177 72.1364799,119.35051 72.5661515,119.933348 C72.9436889,120.445976 73.078803,121.10768 72.9558535,121.847769 C72.8233461,122.640756 72.3106946,123.335641 71.815421,124.006482 C71.6042781,124.292131 71.3866184,124.587397 71.2063214,124.880259 L71.1428916,124.98365 L69.9212168,125 L69.8551804,124.898051 C69.6692356,124.609518 69.4420179,124.31906 69.222186,124.03774 C68.7064933,123.37796 68.172988,122.695577 68.0456941,121.9074 C67.9166623,121.108642 68.0622032,120.41039 68.4658077,119.887183 C68.9224152,119.295689 69.6787935,118.986957 70.5811471,119.000422 Z M78.8073761,99 C80.9726187,99.0078404 81.9874011,99.8075616 81.9998921,101.517205 C82.0054915,102.294277 81.7931452,102.906699 81.3684528,103.33705 C80.9347151,103.776984 80.3071522,104 79.5038546,104 L79.4849028,104 C78.6785901,103.996515 78.0510272,103.768708 77.6194432,103.323983 C77.1969043,102.888405 76.9884346,102.27032 77.0004948,101.486715 C77.0254767,99.8567819 77.9278406,99.0017423 78.806084,99 L78.8073761,99 Z M64.0299443,109.255864 C64.3116972,109.469727 64.6035299,109.691085 64.8934427,109.875845 L65,109.944634 L64.9568011,111.261762 L64.8459239,111.323495 C64.5440114,111.492821 64.238739,111.698746 63.9421065,111.898057 C63.2494838,112.364586 62.5333417,112.846989 61.7341617,112.964283 C61.5714457,112.988094 61.4130497,113 61.2599335,113 C60.6978676,113 60.2063599,112.839493 59.8214095,112.526857 C59.2598235,112.071352 58.9694308,111.329227 59.00255,110.43762 C59.0366291,109.532342 59.3817405,108.803005 59.9750056,108.383217 C60.4852329,108.021636 61.1495363,107.91272 61.8954376,108.070141 C62.6850179,108.235939 63.3685208,108.754059 64.0299443,109.255864 Z M79.4804955,113 C78.7051331,113 78.0947505,112.78896 77.6648551,112.371675 C77.2371135,111.955699 77.0131199,111.357897 77.0006279,110.594837 C76.9734902,108.970175 77.8268197,108.049272 79.4038208,108.001744 C79.4468965,108.000436 79.4895414,108 79.5321864,108 C81.0635273,108 81.9371023,108.851574 81.9969775,110.410395 C82.0271305,111.209209 81.8315669,111.841894 81.4150249,112.291009 C80.9980522,112.74056 80.3846543,112.978634 79.5912001,112.998692 C79.5537242,112.999564 79.5171099,113 79.4804955,113 Z M61.4249686,118.001283 C63.026228,117.962043 63.9448634,118.824011 63.9978368,120.429356 C64.0232467,121.22418 63.8247044,121.852889 63.4073777,122.298479 C62.9866057,122.747557 62.369014,122.982996 61.5722604,122.999128 C61.5425436,122.999564 61.5132576,123 61.4844021,123 C60.7027223,123 60.0881453,122.785925 59.6574677,122.362571 C59.2293741,121.942705 59.0088672,121.341028 59.0002536,120.574543 C58.9830265,118.950451 59.8439511,118.036599 61.4249686,118.001283 Z M78.8082376,118 C80.9730494,118.00784 81.9874011,118.807562 81.9998921,120.517205 C82.0054915,121.294277 81.7931452,121.906699 81.3684528,122.33705 C80.9347151,122.776984 80.3071522,123 79.5038546,123 L79.4849028,123 C78.6785901,122.996515 78.0510272,122.768708 77.6194432,122.323983 C77.1969043,121.888405 76.9884346,121.27032 77.0004948,120.486715 C77.0254767,118.856782 77.9282713,118.001742 78.8069454,118 L78.8082376,118 Z M34.740873,17.1877083 C35.6547981,17.4633323 36.669977,18.4656791 36.9121056,19.3336377 C37.0952428,19.9893146 36.9900269,20.6214522 36.6167088,21.1132099 C36.231064,21.6208031 35.5997689,21.9144025 34.8399255,21.9396538 C33.5971458,21.9798846 32.3275118,22 31.0116532,22 C29.7701942,22 28.4877934,21.9820245 27.1472818,21.9460736 C26.4798875,21.9280981 25.9546887,21.723948 25.5870935,21.3391873 C25.1609473,20.8936523 24.9650433,20.2341235 25.0051046,19.3785764 C25.0746615,17.8737723 25.925193,17.096547 27.4567661,17.0875592 C28.1342858,17.0901272 28.8122457,17.0901272 29.4897653,17.0896992 L30.9702713,17.0905552 C31.350193,17.0730077 31.7243916,17.0682998 32.0977098,17.0460444 C32.9883026,16.99169 33.9092715,16.9369076 34.740873,17.1877083 Z M20.5001836,17 C22.1184031,17 22.9591343,17.8097698 22.9984952,19.4069859 C23.018839,20.2259476 22.8330909,20.8269281 22.4301945,21.2436313 C21.9609595,21.7303686 21.1821444,21.9776766 20.0495234,22 L20.0455431,22 L20.0415627,22 C19.0610783,21.9820538 18.0102749,21.3399282 18.0001029,19.5908255 C17.9894888,17.9016896 18.7997042,17.0302022 20.4081941,17.0008754 C20.4387098,17.0004377 20.4701101,17 20.5001836,17 Z" id="path-1"></path>
    </defs>
    <g id="Symbols" stroke="none" stroke-width="1" fill="none" fill-rule="evenodd">
        <g id="icon/level/1">
            <g id="couleur-icone/gris-copy-10" transform="translate(39.000000, 3.000000)">
                <mask id="mask-2" fill="white">
                    <use xlink:href="#path-1"></use>
                </mask>
                <use id="Mask" fill="#271013" xlink:href="#path-1"></use>
                <g id="couleur-icone/gris-foncé" transform="translate(-39.000000, -10.283036)" fill="#828282">
                    <rect id="Rectangle" x="0" y="0" width="176" height="159"></rect>
                </g>
            </g>
        </g>
    </g>
</svg>