<?xml version="1.0" encoding="UTF-8"?>
<svg width="170px" height="144px" viewBox="0 0 170 144" version="1.1" xmlns="http://www.w3.org/2000/svg" xmlns:xlink="http://www.w3.org/1999/xlink">
    <!-- Generator: Sketch 48 (47235) - http://www.bohemiancoding.com/sketch -->
    <title>icon/level/2</title>
    <desc>Created with Sketch.</desc>
    <defs>
        <path d="M148.113961,35.2071434 C145.895014,38.3345892 146.433646,43.0132337 149.313505,45.6367337 C152.703365,48.7266072 156.411154,48.3210651 161.285681,44.3050048 C161.501014,46.7454145 161.73126,49.1697217 161.960909,51.5838904 C162.53354,57.6181193 163.125856,63.8575048 163.436628,69.9692639 C163.682979,74.8053542 161.14133,78.5703361 156.637225,80.0398301 C143.501295,84.3266494 130.198944,88.3194506 117.781189,91.9955711 C115.753716,92.5955349 113.487049,92.5973241 111.294347,92.5997096 L110.768242,92.600306 C106.580874,92.611041 102.393505,92.6360892 98.2055404,92.6611373 C85.2270842,92.7380711 71.8084175,92.8179867 58.6253649,92.4452458 C52.5996105,92.2746795 46.5034702,90.5934687 40.6083474,88.9677217 L40.1406982,88.838306 C33.6538561,87.0509386 27.1461368,84.9009687 20.8519614,82.8225651 C18.8871193,82.1731012 16.9228737,81.5242337 14.9550491,80.8849084 C8.39245263,78.7516373 5.57641754,74.6669928 6.09238246,68.0298181 C6.58866316,61.6532639 7.22094386,55.1777096 7.83175088,48.9162578 C8.11687368,46.0023181 8.40080351,43.0871855 8.6734,40.1714566 C8.81059298,38.7043482 8.95076842,37.2384325 9.09154035,35.7719205 C9.48343509,31.6771373 9.88845263,27.4428 10.2141368,23.2710831 C10.6048386,18.2900711 12.1712246,17.1247337 17.001014,15.9415048 C25.1520667,13.9459988 31.251786,12.0310048 36.7776807,9.73253494 C42.5636456,7.32611928 47.3606281,6.25023976 52.3115053,6.25023976 L52.4397509,6.25023976 C74.1723123,6.33373373 95.9346982,6.33433012 117.120874,6.24904699 C117.181716,6.24904699 117.241365,6.2484506 117.302207,6.2484506 C123.184804,6.2484506 128.231119,7.42154096 132.720909,9.83093855 C138.670312,13.0233904 145.358172,15.0713783 153.166839,16.0941795 C157.040453,16.6017036 158.792944,18.3467277 159.215856,22.1176735 C159.537961,24.9839024 159.766418,27.9252759 159.987119,30.7694386 C160.072418,31.8626133 160.157119,32.9587699 160.248382,34.060294 C154.601996,31.1403904 150.736137,31.509553 148.113961,35.2071434 M158.132628,39.8273422 C158.064628,42.418041 156.213716,43.2273361 154.674172,43.4503843 C153.904102,43.5636976 153.116733,43.3108301 152.44926,42.7448602 C151.556909,41.9874506 151.008733,40.7696313 150.980102,39.4850169 C151.167996,37.6034205 152.378277,36.4917578 154.389049,36.3557819 C155.372067,36.2919687 156.368207,36.6456253 157.089961,37.3386253 C157.78726,38.0071735 158.157681,38.8910169 158.132628,39.8273422 M169.470733,68.7085048 C168.124453,51.2475289 166.45726,34.0203361 165.155119,20.9630711 C164.589646,15.2848843 160.588382,11.2217096 154.452277,10.0951373 C149.543154,9.1939988 144.35726,8.15211325 139.650944,6.21207108 C139.059821,5.96874578 138.471681,5.72303494 137.884137,5.47851687 C131.354944,2.76078795 125.186032,0.192155422 117.944628,0.192155422 C117.864102,0.192155422 117.781189,0.192751807 117.700663,0.193348193 C102.509821,0.315607229 87.0630842,0.293540964 72.1257509,0.274456627 C65.3567684,0.264914458 58.5871895,0.253583133 51.8194,0.258950602 C46.004207,0.26193253 40.2331544,1.62288434 33.6568386,4.54219157 C28.6594351,6.76134217 22.8406632,8.50696265 15.3463474,10.037288 C8.87620702,11.3588783 4.84690877,15.5633964 4.29157544,21.5737699 L4.0291193,24.4125651 C2.79557544,37.7656373 1.51908421,51.5731554 0.190101754,65.1451012 C-0.97305614,77.0298723 3.13855789,83.3605048 14.3824175,86.9960711 C16.7039614,87.7469205 19.0183474,88.5198361 21.3333298,89.2927518 C26.0796105,90.8779446 30.9869439,92.516812 35.874593,93.9260711 C36.8248035,94.199812 37.7768035,94.4824988 38.731786,94.7651855 C43.8276105,96.2758301 49.0976105,97.8383602 54.3753649,98.2099084 C61.474207,98.7096795 68.7275404,98.5987518 75.7428737,98.4925952 C78.6030491,98.449059 81.5580667,98.4043301 84.4659614,98.4013482 L84.4665579,98.9202036 L84.7648035,98.9202036 C87.078593,98.9202036 89.3935754,98.9404807 91.7079614,98.9601614 C93.9883474,98.9804386 96.3021368,99.0001193 98.6266632,99.0001193 C101.757049,99.0001193 104.907716,98.9637398 108.026768,98.8414807 C113.476909,98.6279747 118.776733,98.3202398 123.701365,96.9246976 C135.902593,93.4656614 148.143189,89.3523904 158.507225,85.7860048 C165.774277,83.2841675 170.077961,76.580794 169.470733,68.7085048 M91.9070919,16.2709261 C98.3905758,16.2709261 104.975579,16.8686726 111.352766,17.447889 C113.995844,17.6875853 116.729095,17.9356501 119.417558,18.1382862 C123.758991,18.4652535 123.761976,18.5471448 123.910672,22.8341828 C124.114307,28.6640046 124.322123,34.4938264 124.531132,40.3236481 L124.8124,48.1935788 L124.87988,48.4912565 L124.936014,48.4888655 C125.019021,50.9073479 125.107999,53.3258303 125.196978,55.7443127 C125.411362,61.5789165 125.634107,67.6125698 125.766679,73.547595 C125.880141,78.5704589 122.995806,82.2143217 118.051829,83.2962429 C101.888803,86.8313158 85.5758866,87.6896798 69.5717079,85.8456318 C63.7922885,85.1797422 58.0600455,84.3118142 52.5350208,83.2663556 C45.6550155,81.9638659 43.0668771,78.7479897 43.3027596,71.793209 C43.5410307,64.7900108 43.8133406,57.670252 44.0760958,50.7848099 C44.4415644,41.24358 44.8183792,31.3777738 45.1103957,21.6709681 C45.1916109,18.9494282 46.5346482,18.3349448 48.6743113,18.2249594 C52.5941408,18.0241166 56.5790618,17.7903977 60.4332025,17.5644495 C70.4220792,16.9792557 80.7519405,16.3737385 90.9122053,16.2757081 C91.2436351,16.2721216 91.5744677,16.2709261 91.9070919,16.2709261 M129.215341,51.3012629 C128.847483,41.8144279 128.467683,32.0054076 128.134461,22.3565834 C127.921271,16.1764821 126.320256,14.4555699 120.349145,13.9881321 C117.673222,13.7777254 114.950721,13.5278673 112.317794,13.2863777 C105.094416,12.6222813 97.6184339,11.9444368 90.2803985,12.0036137 C77.9595696,12.1165878 65.4434659,12.9474555 53.3388128,13.7514245 C51.455336,13.8769513 49.5712619,14.0018803 47.6883823,14.1244183 C42.6858821,14.4495924 41.1075595,16.2517982 40.930797,21.8359461 C40.7414938,27.8361257 40.4966538,33.9361289 40.2595769,39.8352892 C40.1604466,42.2968094 40.0613162,44.7589273 39.9657689,47.2210452 L39.0079068,47.216861 L39.0079068,47.516332 C39.0079068,50.037029 39.0102955,52.5583238 39.012087,55.0790209 C39.0174616,60.8215717 39.0222389,66.7601833 39.0001436,72.6001667 C38.9720766,80.0875396 43.0591139,85.418243 50.2132206,87.2252308 C52.3976716,87.7781463 54.7588851,88.2659074 57.2323667,88.677157 C66.5607725,90.2259183 75.9094821,91 85.2253473,91 C95.6776286,91 106.088108,90.0250754 116.370793,88.0764218 C126.270691,86.2000955 130.339813,81.1891864 129.977928,71.3209892 C129.73249,64.6471494 129.473916,57.974505 129.215341,51.3012629 M32.545966,41.8706243 L32.545966,44.2270196 C31.9707784,44.2761987 31.3456006,44.2821961 30.7378893,44.2881935 C29.0695441,44.3049864 27.3439812,44.322379 26.3953734,45.2231949 C25.4630274,46.1078177 25.3768998,47.763112 25.2853516,49.514965 C25.2504187,50.1872784 25.2142813,50.879983 25.1281537,51.534304 L22.9496683,51.639859 C22.878598,51.008928 22.8533018,50.3414126 22.8292101,49.6924893 C22.7641627,47.9454342 22.7021268,46.2949379 21.7848381,45.3695325 C20.8789929,44.4561219 19.2154659,44.3817537 17.4543679,44.3031872 C16.7683588,44.2726002 16.0612696,44.2408138 15.3854994,44.1586488 L15.3854994,41.8928149 C15.9883924,41.8232445 16.6388663,41.7974555 17.2712716,41.7722663 C18.9769588,41.7038954 20.7410683,41.6331256 21.7565304,40.698724 C22.6912856,39.8374912 22.7497078,38.1702021 22.812346,36.4051546 C22.8358353,35.7484346 22.8593247,35.0725228 22.9309973,34.4433911 L25.2022355,34.4433911 C25.2546348,35.0347389 25.2618623,35.6722671 25.269692,36.291803 C25.2907722,38.0376586 25.3100455,39.6869554 26.216493,40.6315526 C27.1066787,41.5581576 28.7702056,41.6379235 30.5325082,41.7230872 C31.20346,41.7554734 31.8936851,41.7884594 32.545966,41.8706243 M31.8057507,37.2154092 C31.1420264,37.07267 30.4566195,36.9251329 29.8001227,36.7338145 C29.7025516,36.2102377 29.7103814,35.5937006 29.7188134,34.9459768 C29.7453142,32.853469 29.7772356,30.2487795 25.7099665,30.069456 C19.6804344,29.8055685 19.4792693,29.9369125 18.0030548,37.1692289 C11.2056019,37.8367442 11.0074483,38.0454553 11.0002208,42.8721973 C10.9905842,48.0731797 11.2646264,48.1553447 18.2042199,48.8564458 C18.3174505,49.517364 18.3144391,50.2520507 18.3114276,50.9639472 C18.3029955,53.1758041 18.2927566,55.6821355 22.0980292,55.8932455 L22.5587816,55.920234 C23.1996189,55.9580179 23.8922532,56 24.5716371,56 C25.9659401,56 27.30423,55.8254744 28.0233651,55.0925869 C29.0815899,54.0142467 29.4815109,52.3943373 29.9055236,50.6796684 C30.0633237,50.040341 30.2259422,49.3806223 30.4253004,48.757488 C36.0169673,48.3718524 36.9246194,48.0389943 36.9481087,44.8057729 C36.9499156,44.4765133 36.9613591,44.1280618 36.9728026,43.7700145 C37.0288156,41.9629849 37.093863,39.9154579 36.1049017,38.9318773 C35.0948602,37.9249067 33.4975853,37.5806534 31.8057507,37.2154092 M141.505846,48.7332092 C140.843208,49.373649 139.952409,49.6828479 138.925078,49.62958 C136.701722,49.5107986 135.414676,48.1999175 135.394044,46.0330758 C135.373413,43.919502 136.663493,42.526576 138.844372,42.3079938 C138.957239,42.2969728 139.068892,42.2914624 139.179939,42.2914624 C139.983357,42.2914624 140.743691,42.5835176 141.349895,43.1321161 C142.111443,43.8203134 142.554415,44.845262 142.565338,45.9436836 C142.576867,47.0708822 142.200645,48.0615433 141.505846,48.7332092 M139.108942,38.0000258 C134.689537,37.9890049 131.060199,41.5034642 131.000732,45.8898034 C130.972212,47.9960299 131.778057,50.0042924 133.270205,51.5453889 C134.782379,53.1073028 136.790317,53.9785704 138.925078,53.9993877 C138.952385,53.9993877 138.979691,54 139.006998,54 C141.16057,54 143.169722,53.178939 144.6734,51.6831508 C146.164335,50.2002204 146.990205,48.2103262 146.999914,46.0820578 C147.019938,41.5848968 143.553833,38.0343133 139.108942,38.0000258 M151.30725,72.0264957 C146.030531,73.2515032 140.578854,74.6593661 134.639356,76.3285392 C133.889098,76.540429 133.016124,77.7271358 133.00033,78.5561625 C132.986357,79.3623324 133.42011,80.1376145 133.652174,80.5545989 C133.701989,80.6417023 133.740868,80.7090376 133.757271,80.7498094 L133.8569,81 L134.113871,80.9332825 C135.710981,80.5175336 137.240051,80.1227884 138.714446,79.7416337 C143.841112,78.4171677 148.267942,77.2730861 152.69781,76.0141021 C153.232407,75.8621344 153.686815,74.954035 153.852054,74.4950433 C154.115708,73.7642396 153.957151,73.5257863 153.904906,73.4479492 C153.441994,72.7498864 152.172933,71.8319029 151.30725,72.0264957 M152.951812,65.6302231 C152.332429,65.2707633 151.69254,64.8971069 151.096677,65.0260127 C145.644654,66.194115 140.163682,67.499641 134.805743,68.9062474 C133.954769,69.1288512 132.94337,70.3792942 133.002474,71.1356929 C133.045897,71.6973133 133.69423,72.1090168 134.32085,72.5070915 C134.543394,72.6479225 134.752067,72.7813712 134.902842,72.9034626 L135.022255,73 L135.174237,72.9630887 C136.534227,72.6342937 137.873712,72.312881 139.195707,71.9954434 C143.773235,70.8977567 148.096255,69.8608317 152.417466,68.7063582 C152.963271,68.5604164 153.228635,67.8988514 153.510283,67.1986715 C153.619444,66.9260954 153.732827,66.6444334 153.85405,66.4252368 L154,66.1611787 L153.713528,66.0362479 C153.472288,65.9311926 153.207527,65.7784364 152.951812,65.6302231 M133.001438,64.1240147 C133.03218,64.6858406 133.696448,65.1250345 134.283559,65.5123237 C134.494533,65.6509264 134.693451,65.7821142 134.832091,65.8990424 L134.951442,66 L135.106961,65.9623548 C136.48854,65.6269704 137.847817,65.3001417 139.18901,64.9773057 C143.758108,63.8781802 148.073434,62.8406559 152.379718,61.6879145 C152.927648,61.5413264 153.201915,60.8865283 153.491854,60.1940849 C153.605177,59.9248648 153.721514,59.6465185 153.845687,59.4297735 L154,59.1611237 L153.705842,59.0339286 C153.463523,58.9295488 153.197695,58.7761161 152.94091,58.6283872 C152.320043,58.2701875 151.678681,57.8982987 151.080117,58.0254938 C145.582733,59.1827982 140.094993,60.4701497 134.768196,61.8516141 C133.931533,62.0683591 132.957435,63.322058 133.001438,64.1240147 M31.4880634,59.0015116 C29.1134939,59.0556811 27.0166718,61.1613793 27.0000984,63.5085355 C26.9920975,64.6985373 27.4721548,65.826878 28.35226,66.6849471 C29.2152203,67.5268806 30.377645,68 31.565787,68 C31.6257941,68 31.6875158,67.9988475 31.7480945,67.9965424 C34.1975301,67.8968473 36.0640389,65.8700984 35.9983167,63.3834844 C35.9325946,60.9118535 33.8894932,58.9375454 31.4880634,59.0015116 M31.542224,69 L31.5233649,69 C29.1676962,69 27.0566239,71.0702025 27.0011897,73.4412729 C26.944041,75.8476374 28.9533887,77.9340405 31.388494,77.9982642 C31.4336415,77.9994214 31.4787889,78 31.5233649,78 C32.7680632,78 33.903036,77.5463838 34.7316919,76.7137898 C35.5706346,75.8713597 36.0209662,74.7124397 35.9992497,73.4505304 C35.9569597,70.9666345 33.9990458,69.0121504 31.542224,69 M139.996899,25 C140.046441,25 140.095982,24.9987731 140.145524,24.9969328 C142.588351,24.8981673 143.993252,23.4449045 143.99998,21.008895 C144.006096,18.6765585 142.640951,17.2165478 140.255004,17.0018403 L140.236044,17 L140.21586,17.0006134 C137.755908,17.0901771 136.305747,18.4182961 136.021342,20.8395829 C135.905745,21.8327582 136.263545,22.8621271 137.002387,23.6620658 C137.782208,24.5061728 138.891694,25 139.996899,25 M53.5154109,66.4353527 L116.591405,66.4353527 L116.591405,25.4792368 L53.5154109,25.4792368 L53.5154109,66.4353527 Z M52.560613,21 C51.2689688,21 50.4046759,21.2628477 49.8436648,21.8270378 C49.2634738,22.4104754 49.0081418,23.2994659 49.0153342,24.7093398 C49.0998455,41.3794149 49.0956499,54.8496054 49.0003499,67.1023963 C48.9889619,68.5940718 49.2550826,69.5299779 49.8646428,70.1392792 C50.4574206,70.7323405 51.3786536,71 52.841718,71 C52.8866708,71 52.9328224,71 52.9795733,70.9993985 C60.7785873,70.9133866 68.7100624,70.9260177 76.3790129,70.9404533 C82.1131942,70.950077 87.8467762,70.95128 93.5803582,70.9428592 C101.288268,70.9332355 109.258702,70.9230103 117.095476,70.9897748 C118.647248,71.0240593 119.563686,70.7509864 120.167252,70.145294 C120.744446,69.5672698 121.008769,68.6698585 120.999778,67.3195313 C120.914668,54.5723222 120.911071,41.005293 120.98839,24.6245308 C120.994983,23.3042777 120.73126,22.4219036 120.16006,21.8474882 C119.57867,21.2628477 118.707185,21.0018044 117.337023,21.0018044 L117.308253,21.0018044 C95.4048432,21.0595467 73.6314967,21.0589452 52.5875847,21 L52.560613,21 Z M76.9316954,61.3042412 L82.5840591,61.3042412 L82.5840591,55.6528897 L76.9316954,55.6528897 L76.9316954,61.3042412 Z M67.4260449,61.2192674 L73.2092614,61.2192674 L73.2092614,55.6487009 L67.4260449,55.6487009 L67.4260449,61.2192674 Z M86.3949234,61.2426053 L92.0251795,61.2426053 L92.0251795,55.6157885 L86.3949234,55.6157885 L86.3949234,61.2426053 Z M95.8193137,61.2019136 L101.605518,61.2019136 L101.605518,55.7420523 L95.8193137,55.7420523 L95.8193137,61.2019136 Z M104.350439,52.9534778 C103.570103,52.0827963 102.173144,51.9804687 100.893296,52.0026098 C94.3470701,52.094166 87.6867215,52.0786074 81.2456559,52.061852 C78.7516848,52.055868 76.2571163,52.0498839 73.7619502,52.0498839 C68.8839484,52.0498839 66.4353875,52.0498839 65.1752569,53.3268835 C63.9318564,54.5889229 63.962329,56.9556208 64.0226766,61.6710644 L64.0256641,61.8840971 C64.0406017,63.0833038 64.2706397,63.834304 64.7713459,64.3190133 C65.2762346,64.8085099 66.0494015,64.9994016 67.3382121,64.980851 C71.3898695,64.8994677 75.514422,64.9150263 79.5027441,64.929388 C82.7716746,64.9431514 86.038215,64.9419546 89.3047554,64.9228056 C93.3408777,64.9000661 97.5144253,64.8767283 101.612688,64.9958112 C101.7053,64.9982048 101.796121,65 101.883953,65 C103.060434,65 103.840771,64.7576453 104.327734,64.2448109 C104.847561,63.6966705 105.032786,62.8732631 104.927626,61.5753193 C104.741803,59.2744462 104.74479,57.5456496 104.937783,55.9688484 C105.111059,54.5518217 104.924638,53.5943712 104.350439,52.9534778 Z M86.9872029,36.0701685 L92.5111005,36.0701685 L92.5111005,30.5554682 L86.9872029,30.5554682 L86.9872029,36.0701685 Z M77.5324285,45.259759 L83.2256069,45.259759 L83.2256069,39.8431977 L77.5324285,39.8431977 L77.5324285,45.259759 Z M77.5407441,36.0654389 L83.0628598,36.0654389 L83.0628598,30.551921 L77.5407441,30.551921 L77.5407441,36.0654389 Z M74.6308974,48.4433633 C75.0538022,48.850108 75.6899414,49.0292411 76.5832685,48.996134 C79.003092,48.900951 81.4906278,48.900951 83.9775697,48.9955428 C84.062507,48.9984988 84.1444746,48.9996812 84.2246602,48.9996812 C85.1132355,48.9996812 85.7285858,48.8022209 86.1473329,48.3860171 C86.5922146,47.9443917 86.7911937,47.2597838 86.7567435,46.2925829 C86.7009106,44.7607874 86.7133839,43.217168 86.7258572,41.5836863 C86.7312029,40.9369151 86.7359547,40.2741815 86.7377366,39.5895736 L95.9780887,39.5895736 L95.9780887,39.2939743 C95.9780887,38.3646101 95.9840284,37.4541643 95.9893741,36.5584985 C96.0060052,33.8490354 96.0220423,31.2891456 95.8800841,28.7245262 C95.8396943,27.973704 94.2971607,27.0975478 93.4994624,27.0809942 C90.091871,27.011824 86.6290405,27.0124152 83.2749062,27.0159624 C81.0421824,27.0159624 78.8142104,27.0183272 76.5838625,27 L76.5339692,27 C75.6638068,27 75.0383591,27.1992339 74.6249577,27.6101169 C74.1943313,28.0369623 73.9959462,28.6683624 74.0012919,29.5959529 C74.0321782,35.1626787 74.0315842,40.8257698 74.0001039,46.4279674 C73.9947582,47.3839355 74.1955192,48.0242036 74.6308974,48.4433633 Z" id="path-1"></path>
    </defs>
    <g id="Symbols" stroke="none" stroke-width="1" fill="none" fill-rule="evenodd">
        <g id="icon/level/2">
            <g id="couleur-icone/gris-copy" transform="translate(0.000000, 22.000000)">
                <mask id="mask-2" fill="white">
                    <use xlink:href="#path-1"></use>
                </mask>
                <use id="Mask" fill="#271013" xlink:href="#path-1"></use>
                <g id="couleur-icone/gris-foncé" transform="translate(0.000000, -31.283036)" fill="#828282">
                    <rect id="Rectangle" x="0" y="0" width="176" height="159"></rect>
                </g>
            </g>
        </g>
    </g>
</svg>