<?xml version="1.0" encoding="UTF-8"?>
<svg width="170px" height="144px" viewBox="0 0 170 144" version="1.1" xmlns="http://www.w3.org/2000/svg" xmlns:xlink="http://www.w3.org/1999/xlink">
    <!-- Generator: Sketch 48 (47235) - http://www.bohemiancoding.com/sketch -->
    <title>icon/level/3</title>
    <desc>Created with Sketch.</desc>
    <defs>
        <path d="M120.712185,98.1502574 C120.712185,96.5876007 121.985981,95.3138048 123.548637,95.3138048 C125.111294,95.3138048 126.383084,96.5876007 126.383084,98.1502574 C126.383084,99.712914 125.111294,100.98671 123.548637,100.98671 C121.985981,100.98671 120.712185,99.712914 120.712185,98.1502574 Z M79.0528411,104.883322 C81.4760622,104.883322 83.4479383,106.855198 83.4479383,109.278419 C83.4479383,111.70164 81.4760622,113.673516 79.0528411,113.673516 C76.6296199,113.673516 74.6597498,111.70164 74.6597498,109.278419 C74.6597498,106.855198 76.6296199,104.883322 79.0528411,104.883322 Z M106.913264,113.673115 C104.490043,113.673115 102.520173,111.703245 102.520173,109.280024 C102.520173,106.856803 104.490043,104.882921 106.913264,104.882921 C109.336486,104.882921 111.308362,106.856803 111.308362,109.280024 C111.308362,111.703245 109.336486,113.673115 106.913264,113.673115 Z M71.3384524,96.4911132 C72.812846,96.4911132 74.0144267,97.6926938 74.0144267,99.1690935 C74.0144267,100.645493 72.812846,101.84908 71.3384524,101.84908 L69.3104089,101.84908 L69.3104089,103.879129 C69.3104089,104.663467 68.9573568,105.40969 68.3415216,105.923221 C67.8460451,106.338458 67.2542817,106.559116 66.6304226,106.559116 C66.2914123,106.559116 65.964438,106.492918 65.6535114,106.368548 C64.6384867,105.977382 63.9504363,104.974393 63.9504363,103.879129 L63.9504363,101.84908 L61.9203868,101.84908 C60.4439872,101.84908 59.2444125,100.645493 59.2444125,99.1690935 C59.2444125,97.6926938 60.4439872,96.4911132 61.9203868,96.4911132 L63.9504363,96.4911132 L63.9504363,94.4570517 C63.9504363,93.3637938 64.6364807,92.360805 65.6575234,91.9616154 C66.5862911,91.6065573 67.585268,91.7810774 68.3415216,92.4129604 C68.9573568,92.9224787 69.3104089,93.6687025 69.3104089,94.4570517 L69.3104089,96.4911132 L71.3384524,96.4911132 Z M89.6273528,112.366622 C88.889153,112.190096 88.2552641,111.700637 87.8941881,111.024623 C87.6775425,110.609385 87.5692197,110.186124 87.5692197,109.762863 C87.5692197,109.329571 87.6775425,108.904304 87.8941881,108.501103 C88.3595749,107.630508 89.2622649,107.086888 90.2492059,107.086888 L95.1277439,107.086888 C96.6061495,107.086888 97.8077302,108.288469 97.8097361,109.762863 C97.8097361,111.006569 96.9612075,112.075755 95.745585,112.366622 C95.5369633,112.408747 95.3363656,112.442849 95.1277439,112.442849 L90.2492059,112.442849 C90.0425902,112.442849 89.8399865,112.416771 89.6273528,112.366622 Z M119.235183,96.6732559 C117.670521,96.6732559 116.396725,95.3994601 116.396725,93.8347974 C116.396725,92.2701348 117.670521,90.9963389 119.235183,90.9963389 C120.799846,90.9963389 122.073642,92.2701348 122.073642,93.8347974 C122.073642,95.3994601 120.799846,96.6732559 119.235183,96.6732559 Z M119.235183,99.6274594 C120.799846,99.6274594 122.073642,100.901255 122.073642,102.465918 C122.073642,104.030581 120.799846,105.304376 119.235183,105.304376 C117.670521,105.304376 116.396725,104.030581 116.396725,102.465918 C116.396725,100.901255 117.670521,99.6274594 119.235183,99.6274594 Z M114.913706,100.986911 C113.349043,100.986911 112.075247,99.7131146 112.075247,98.148452 C112.075247,96.5837893 113.349043,95.3099935 114.913706,95.3099935 C116.478368,95.3099935 117.752164,96.5837893 117.752164,98.148452 C117.752164,99.7131146 116.478368,100.986911 114.913706,100.986911 Z M11.6439643,6.21810191 L11.6439643,53.0978022 L5.39133166,53.2402266 L5.39133166,6.39663393 L11.6439643,6.21810191 Z M11.6439643,58.5480438 L11.6439643,130.668962 L5.39133166,130.668962 L5.39133166,58.5981932 L11.4293247,58.4577748 L11.6439643,58.5480438 Z M17.449264,8.43871929 L17.449264,55.1599474 L17.001931,54.9753974 L17.001931,8.17393023 L17.449264,8.43871929 Z M17.449264,60.963241 L17.449264,130.494442 L17.001931,130.52052 L17.001931,60.7766851 L17.449264,60.963241 Z M22.8072306,53.029599 L29.0598633,53.029599 L29.0598633,6.14187476 L22.8072306,6.14187476 L22.8072306,53.029599 Z M22.8072306,130.668962 L29.0598633,130.668962 L29.0598633,58.3855596 L22.8072306,58.3855596 L22.8072306,130.668962 Z M46.947167,129.461364 C47.0053403,129.75223 47.0635137,130.043097 47.1357289,130.343994 L34.4158239,130.602765 L34.4158239,58.8509464 L85.6585258,68.1647012 L85.6585258,82.8464524 L71.57255,82.8504644 C71.2676414,82.6839682 70.8664458,82.4994183 70.3809992,82.2988205 C69.6528293,82.0019358 68.8785219,81.7973261 68.0259813,81.6829853 C67.3961043,81.5907103 66.8404485,81.5987343 65.8053639,81.6428658 C63.5847465,81.7712483 60.5737739,82.1102586 60.4293435,82.1303184 C59.759347,82.2025336 59.1455178,82.525496 58.7042026,83.0350143 L55.5829012,86.6317325 C55.3502078,86.8905036 55.1676639,87.2094541 55.0573351,87.5504703 C55.0452992,87.5865779 53.8096169,91.3337443 52.2991157,96.4770713 C50.6221182,102.184078 48.3774291,110.404575 47.1999202,117.160708 C46.3674394,121.938947 46.2831883,126.077279 46.947167,129.461364 Z M75.7008522,114.29216 C75.1311545,113.752552 74.3588531,113.497793 73.5905636,113.578032 C72.2305107,113.714438 71.0249181,114.103598 69.9276482,114.807696 C68.9266653,115.473681 68.3008003,116.681279 67.5585885,118.542827 C67.2516739,119.313122 66.9146696,120.213806 66.5114681,121.307064 C66.1844937,122.1917 65.8033579,123.230797 65.3780907,124.320043 C64.8164169,125.768359 64.2507312,127.092304 63.6970813,128.255771 C63.3901667,128.893672 63.0712162,129.523549 62.7362179,130.125342 C62.6760386,130.237677 62.6138533,130.348006 62.5456501,130.462347 C62.1625083,131.132343 61.7653247,131.74216 61.3721531,132.265721 C61.2638303,132.398115 61.1575135,132.526498 61.0471847,132.65488 C60.1364708,133.740114 59.2799183,134.291758 58.4995929,134.291758 C56.8326254,134.291758 55.5267339,133.864485 54.4856314,132.971825 C54.2930575,132.805329 54.0984777,132.638832 53.893868,132.416169 C53.6090191,132.079165 53.3442301,131.645873 53.0593812,131.062134 C52.9651003,130.863542 52.8748313,130.666956 52.7905802,130.454323 C52.6180661,130.025043 52.4676178,129.543609 52.3452531,129.024061 C51.6772625,126.251799 51.725406,122.470531 52.4876776,118.091482 C53.6110251,111.624209 55.8055648,103.59428 57.4484606,97.9955965 C58.7042026,93.7228639 59.7292573,90.5474011 59.9920404,89.743004 L62.0722393,87.3398426 C63.1715151,87.2255019 64.6800104,87.0830775 65.8775791,87.0048443 C66.7481735,86.9486769 67.4001162,86.944665 67.8815509,87.0810715 C68.5314877,87.2716394 69.1473229,87.6066377 69.3258549,87.7290023 C69.5404945,87.8754387 69.7751939,87.9897794 70.0680667,88.0880723 C70.3248318,88.1642995 70.5896209,88.202413 70.848392,88.202413 L76.3768667,88.202413 L76.3768667,100.027652 C76.3768667,101.504052 77.5804534,102.705632 79.056853,102.705632 L106.923896,102.705632 C108.400296,102.705632 109.601876,101.504052 109.601876,100.027652 L109.601876,88.202413 L115.176489,88.202413 C115.679989,88.202413 116.171454,88.0599886 116.598727,87.7931936 C117.064114,87.5003208 118.211533,86.9526889 118.873506,86.9526889 C119.954728,86.9526889 122.644744,87.21146 123.946623,87.3438546 L126.068948,89.7871355 C126.470143,90.8643455 127.45909,93.5643916 128.608516,97.0567989 C130.466051,102.725692 132.823075,110.787717 133.499089,116.986188 C134.37169,125.008093 133.709717,130.303874 131.531225,132.729101 C130.590422,133.780234 129.276506,134.289752 127.513252,134.289752 C123.828271,134.289752 121.033944,125.970962 119.521436,121.477572 C118.149348,117.397413 117.459291,115.347304 115.663941,114.556949 C114.66697,114.121652 113.60982,113.818749 112.508538,113.654259 C111.651986,113.55396 110.905762,113.798689 110.324028,114.332279 C108.484547,116.027331 105.391329,116.003259 103.571907,114.284136 C103.080443,113.820755 102.412452,113.55396 101.736438,113.55396 L84.3305686,113.55396 C83.6425182,113.55396 82.9905754,113.814737 82.4930929,114.284136 C80.6516053,116.025325 77.5423398,116.027331 75.7008522,114.29216 Z M70.6578241,125.481504 C70.9567148,124.685131 71.2495876,123.896781 71.5384484,123.112444 C72.0499727,121.722301 72.7360171,119.848718 73.1251768,119.12456 L73.1552664,119.112524 C74.8984611,120.342189 76.9405465,120.988114 79.0769128,120.988114 C81.3456736,120.988114 83.4920699,120.265962 85.2974498,118.897885 L85.6565199,118.897885 L85.6565199,129.282832 L68.952743,129.641902 C69.5124108,128.398195 70.0720786,127.030119 70.6578241,125.481504 Z M81.7288154,97.3516776 L104.237892,97.3516776 L104.237892,88.202413 L81.7288154,88.202413 L81.7288154,97.3516776 Z M34.4158239,53.4067228 L34.4158239,7.08869626 L85.6565199,22.8556815 L85.6565199,62.7204775 L34.4158239,53.4067228 Z M138.820948,116.412478 L138.822954,116.412478 C138.102808,109.774698 135.637462,101.31549 133.695675,95.3898314 C132.199216,90.8342559 130.951498,87.5685241 130.89533,87.4321176 C130.776978,87.1312209 130.612487,86.856402 130.419914,86.6437683 L127.2946,83.0430382 C126.851279,82.5315139 126.23745,82.2085515 125.567453,82.1343303 L125.433053,82.1202885 C122.245554,81.7792723 119.972781,81.6007402 118.863476,81.6007402 C117.23061,81.6007402 115.58972,82.2667249 114.464367,82.8504644 L91.0144865,82.8464524 L91.0144865,20.8777874 C91.0144865,19.6962665 90.2542209,18.6671999 89.1228494,18.3161538 L32.5562825,0.912290731 L32.425894,0.882201064 C32.2975114,0.848099442 32.1711348,0.826033687 31.9905968,0.803967932 L20.1292503,0.783908154 C19.0560522,0.783908154 18.1192606,1.41177919 17.6959993,2.35258276 L15.6117884,1.12091242 C15.4573281,1.03666135 15.2928379,0.96645213 15.1243358,0.914296709 L14.9638575,0.86815922 C14.8013733,0.826033687 14.6328712,0.805973909 14.4242495,0.793938043 L14.2738012,0.783908154 L2.63913017,1.11489448 C1.18078434,1.159026 0.0373770163,2.33452896 0.0373770163,3.7928748 L0.0373770163,133.344937 C0.0373770163,134.821336 1.2389577,136.024923 2.71535733,136.024923 L14.3259566,136.024923 L19.0239565,135.776182 C19.3810206,135.940672 19.7521265,136.024923 20.1292503,136.024923 L31.8080528,136.024923 L49.6191294,135.639775 C49.6692788,135.713996 49.7234402,135.786212 49.7796076,135.852409 C51.8578005,138.325779 54.8687732,139.635683 58.4855511,139.635683 C61.2517944,139.635683 63.6770215,138.159283 65.9217106,135.078101 L88.4107273,134.574601 C89.8710791,134.536487 91.0144865,133.358978 91.0144865,131.894615 L91.0144865,118.897885 L100.745485,118.897885 C102.524787,120.247908 104.725344,120.988114 106.96201,120.988114 C109.062268,120.988114 111.070252,120.364255 112.787369,119.180728 C112.857578,119.202793 112.927788,119.226865 112.995991,119.250937 C113.403204,120.095453 114.063171,122.081371 114.434277,123.188671 C116.632828,129.738189 119.95874,139.635683 127.491186,139.635683 L127.573431,139.635683 C130.869253,139.635683 133.543221,138.518353 135.519109,136.313784 C138.802895,132.652874 139.882111,126.143476 138.820948,116.412478 Z" id="path-1"></path>
    </defs>
    <g id="Symbols" stroke="none" stroke-width="1" fill="none" fill-rule="evenodd">
        <g id="icon/level/3">
            <g id="couleur-icone/gris" transform="translate(23.000000, 3.000000)">
                <mask id="mask-2" fill="white">
                    <use xlink:href="#path-1"></use>
                </mask>
                <use id="Mask" fill="#000000" xlink:href="#path-1"></use>
                <g id="couleur-icone/gris-foncé" transform="translate(-21.615044, -6.438171)" fill="#828282">
                    <rect id="Rectangle" x="0" y="0" width="181" height="150"></rect>
                </g>
            </g>
        </g>
    </g>
</svg>