<?xml version="1.0" encoding="UTF-8"?>
<svg width="170px" height="144px" viewBox="0 0 170 144" version="1.1" xmlns="http://www.w3.org/2000/svg" xmlns:xlink="http://www.w3.org/1999/xlink">
    <!-- Generator: Sketch 48 (47235) - http://www.bohemiancoding.com/sketch -->
    <title>icon/level/all</title>
    <desc>Created with Sketch.</desc>
    <defs>
        <path d="M41.3988186,41.6852851 C40.3289644,41.6852851 39.5772202,41.6852851 38.825476,41.6852851 C29.9677864,41.6852851 21.1096782,41.6714724 12.2519885,41.6915635 C7.59335105,41.7020277 5.7981223,43.5060463 5.78765815,48.1529639 C5.77133409,55.1279446 5.77719401,62.1025066 5.78556532,69.0774873 C5.79142524,74.1659918 7.59083966,75.9532678 12.7274793,75.9587092 C21.4457865,75.9683362 30.1640937,75.9587092 38.882401,75.9666619 C39.6822802,75.9670805 40.4817409,76.0373996 41.3988186,76.0805118 C41.3988186,77.1277635 41.3988186,77.8899718 41.3988186,78.6517616 C41.3988186,87.4399693 41.3900287,96.2281771 41.4025857,105.016385 C41.4097013,109.852913 43.0952658,111.524665 47.9753246,111.535547 C54.9503052,111.551034 61.9248673,111.548523 68.899848,111.536384 C73.8891524,111.528013 75.5889482,109.845797 75.5948081,104.909232 C75.6052722,96.0515423 75.5960638,87.1934341 75.6044351,78.3357444 C75.6048537,77.6007429 75.6776841,76.8657413 75.7258192,75.9616391 C76.780605,75.9616391 77.6064354,75.9616391 78.4318471,75.9616391 C87.2200549,75.9612206 96.0082626,75.985916 104.79647,75.9503379 C109.249173,75.9323395 111.190063,73.9876828 111.207643,69.5826962 C111.235268,62.4687517 111.231082,55.3543887 111.209317,48.2400256 C111.194667,43.485118 109.383533,41.6974235 104.596396,41.6894707 C95.8081881,41.675658 87.0199804,41.6852851 78.2317727,41.6852851 C77.4231035,41.6852851 76.6140158,41.6852851 75.5989937,41.6852851 C75.5989937,40.6154308 75.5989937,39.8632681 75.5989937,39.1111053 C75.5985752,30.1835152 75.6169921,21.255925 75.5885296,12.3283349 C75.5751355,8.06649784 73.6991235,6.14318795 69.4996528,6.12016683 C62.1764254,6.07956595 54.8523608,6.08082164 47.5291335,6.1193297 C43.2790162,6.14151369 41.4151427,8.03384971 41.4055157,12.2688986 C41.3850059,21.0571063 41.3988186,29.845314 41.3988186,38.6335217 C41.3988186,39.5313454 41.3988186,40.4291691 41.3988186,41.6852851 M36.0976826,36.4322842 C36.0976826,28.0438068 36.093497,19.9617196 36.0989383,11.8796324 C36.1039611,5.3236361 40.5227604,0.887257086 47.1306588,0.861724572 C54.7318139,0.8320064 62.3333875,0.828657873 69.9345426,0.862561704 C76.3486451,0.891442745 80.8511575,5.37763109 80.889247,11.7988492 C80.9331964,19.1907213 80.9001297,26.5834307 80.9005483,33.9753029 C80.9005483,34.7262099 80.9005483,35.4766984 80.9005483,36.4322842 C81.8460884,36.4322842 82.5928098,36.4322842 83.3399498,36.4322842 C90.7322406,36.4327027 98.1245313,36.4084259 105.516403,36.4402369 C111.948923,36.4674437 116.431344,40.9117754 116.474875,47.3610374 C116.527196,55.1015749 116.522591,62.8429496 116.474038,70.5834871 C116.436367,76.5915807 111.894928,81.1459953 105.856697,81.1974789 C98.3953434,81.2611009 90.9327336,81.2138029 83.4709609,81.2146401 C82.711264,81.2146401 81.9519856,81.2146401 80.9005483,81.2146401 C80.9005483,82.0680957 80.9005483,82.804353 80.9005483,83.5401917 C80.9001297,90.9324824 80.7364705,98.3293774 80.9545433,105.71539 C81.1140168,111.118656 76.6776378,117.09452 69.7633492,116.854263 C62.0320202,116.585544 54.2839485,116.798594 46.5429924,116.790641 C40.7383218,116.784362 36.1688388,112.342961 36.1207038,106.532012 C36.0575003,98.931275 36.100194,91.3292828 36.0976826,83.7281277 C36.0972641,82.9747093 36.0976826,82.2217094 36.0976826,81.2146401 C35.196929,81.2146401 34.455649,81.2146401 33.7143689,81.2146401 C26.3915601,81.2146401 19.0691698,81.2267785 11.7467796,81.210873 C4.86430198,81.1958046 0.529215893,76.8636485 0.512473261,69.9744738 C0.494056366,62.3733187 0.497404892,54.7717451 0.512473261,47.17059 C0.524193104,41.0235325 4.99698734,36.4917205 11.1913427,36.4465154 C18.6526969,36.3916833 26.1148881,36.4327027 33.5770793,36.4322842 C34.3325906,36.4322842 35.0876833,36.4322842 36.0976826,36.4322842 M66.9921685,27.8092835 L49.1817662,27.8092835 C52.2009131,22.9727618 55.0836957,18.3556679 58.0767909,13.5609617 C61.0434274,18.30226 63.92621,22.9090035 66.9921685,27.8092835 M13.5609617,58.0932911 C18.3381647,55.1052396 22.9628817,52.2130637 27.8092835,49.1817662 L27.8092835,66.9921685 C23.0101192,63.9947335 18.3518387,61.0854223 13.5609617,58.0932911 M88.3646512,66.9921685 L88.3646512,49.1817662 C93.2029851,52.2027557 97.8214324,55.0861314 102.612973,58.0778067 C97.8702961,61.0450535 93.2613731,63.9284292 88.3646512,66.9921685 M66.9921685,89.5520114 C63.9551594,94.4109779 61.0601275,99.0430101 58.0867634,103.800333 C55.1121753,99.0409357 52.2171435,94.4089035 49.1817662,89.5520114 L66.9921685,89.5520114 Z" id="path-1"></path>
    </defs>
    <g id="Symbols" stroke="none" stroke-width="1" fill="none" fill-rule="evenodd">
        <g id="icon/level/all">
            <g id="couleur-icone/gris-copy-11" transform="translate(26.000000, 13.000000)">
                <mask id="mask-2" fill="white">
                    <use xlink:href="#path-1"></use>
                </mask>
                <use id="Mask" fill="#1D1D1B" xlink:href="#path-1"></use>
                <g id="couleur-icone/gris-foncé" transform="translate(-44.416608, -36.644231)" fill="#828282">
                    <rect id="Rectangle" x="0" y="0" width="209" height="188"></rect>
                </g>
            </g>
        </g>
    </g>
</svg>