<?xml version="1.0" encoding="UTF-8"?>
<svg width="59px" height="52px" viewBox="0 0 59 52" version="1.1" xmlns="http://www.w3.org/2000/svg" xmlns:xlink="http://www.w3.org/1999/xlink">
    <!-- Generator: Sketch 47.1 (45422) - http://www.bohemiancoding.com/sketch -->
    <title>grey/hand/alien</title>
    <desc>Created with Sketch.</desc>
    <defs>
        <path d="M6.1643891,19.9887111 C6.19106212,19.887709 6.38063111,19.6975595 6.47112886,19.6617583 C7.11461555,19.7070433 7.49351537,19.8023551 7.5975878,19.9446116 C8.32704735,20.9460973 8.50161276,22.0580689 8.10247002,23.1605567 C7.96624708,23.5361139 7.80811416,23.9164129 7.65498243,24.2841459 C7.38182209,24.9408967 7.09913567,25.6201715 6.91861646,26.3252895 C6.67212915,27.2876547 6.53733512,28.3733088 6.51828296,29.5521409 C6.49827819,30.7703307 7.19892136,31.6492387 8.4404077,31.9640997 C9.24679035,32.1684749 10.0765119,32.3140507 10.8786078,32.4546475 C11.0717491,32.488552 11.2646522,32.5224565 11.4575553,32.5570722 C13.7795373,32.974595 15.1927312,33.855874 16.0391234,35.4140568 C16.2336935,35.7720689 16.4999475,36.0067922 16.8090688,36.0930944 C17.0026863,36.147389 17.310855,36.1668307 17.6792762,35.9522605 C18.3201432,35.5786001 18.4658922,34.9495893 18.0796097,34.2266893 C17.1286687,32.4449267 15.5554367,31.2362207 13.2701301,30.5320511 C12.9214756,30.4246474 12.5411469,30.3324178 12.0731782,30.2418478 C11.5571028,30.1420312 11.2603655,30.0844173 11.1534352,29.9770136 C11.0429327,29.8655794 10.9833947,29.5457394 10.8926588,29.0620673 L10.8631279,28.9043997 C10.6178314,27.5913723 10.3639614,26.2332969 10.1539113,24.8941892 C10.1215226,24.6879173 10.1698675,24.4031672 10.28037,24.1513732 C11.2691771,21.8956594 10.4427897,18.9967092 8.3987311,17.5513832 C8.27727359,17.465318 8.15152933,17.2654477 8.10651861,17.0854932 C7.3896811,14.2235297 6.62973809,11.1737876 5.91004277,8.12048906 C5.63926395,6.9710566 6.15152889,6.02884443 7.18463224,5.77610207 C8.18463246,5.53189509 9.0491242,6.13814484 9.38491851,7.32171885 C10.4101628,10.9345596 11.4299297,14.5490599 12.4499347,18.1633232 L13.8412186,23.0913252 L13.9112353,23.3438305 C13.9867295,23.6202823 14.0650815,23.9059807 14.1667724,24.1852776 C14.4239765,24.8922924 14.9579133,25.2024116 15.5954462,25.0134475 C16.2977564,24.805516 16.6128315,24.2274804 16.4173087,23.5052916 C15.9698211,21.8508486 15.5139982,20.1990136 15.057699,18.5474158 L13.9872058,14.6728231 C13.0674628,11.3454437 12.1477198,8.01830148 11.2355977,4.68878828 C11.1377172,4.33219867 11.0360263,3.92202578 11.070082,3.56994096 C11.1541497,2.70027961 11.7678674,2.07292847 12.5975889,2.00820177 C13.6018759,1.93114617 14.2801327,2.39822165 14.5647244,3.35963845 C14.9564844,4.68404639 15.3372894,6.03714273 15.7052343,7.34542827 C15.8821812,7.97420197 16.0591281,8.60273857 16.2377421,9.23103808 C17.5356705,13.7924925 18.8347896,18.3539469 20.1339088,22.9156385 C20.1510557,22.9753862 20.1708223,23.0344226 20.1905889,23.0934591 C20.2098792,23.1503617 20.2291695,23.2072643 20.2448876,23.2658265 C20.4475549,24.0214456 20.9738708,24.4095687 21.7250022,24.3602531 C22.4201679,24.3137827 22.8343142,23.8863019 22.9555336,23.0899027 C23.2089273,21.4219453 23.4604158,19.7537508 23.7092846,18.0850822 C23.9143335,16.7080393 24.1189061,15.3312336 24.3230023,13.9541907 C24.7735859,10.9170146 25.2394112,7.77622835 25.7092851,4.68926246 C25.8793256,3.57160062 26.3351485,3.02841792 27.2334578,2.87288415 C27.790019,2.77686102 28.3375305,2.92030298 28.7338154,3.26693463 C29.0927105,3.58132148 29.2782309,4.02326499 29.2567972,4.51144185 C29.2151206,5.44298478 29.0705623,6.39468071 28.9310053,7.31484312 C28.8876616,7.5995932 28.8445561,7.88434328 28.8040702,8.16861917 C28.5528199,9.93686737 28.296092,11.7041672 28.0393642,13.471467 C27.8469374,14.7965862 27.6545106,16.1217055 27.4642271,17.4470618 C27.2253607,19.1131224 26.9991163,20.7649574 26.7881136,22.3138935 C26.7500093,22.5934275 26.7247652,22.8945371 26.7111905,23.234293 C26.6816597,23.9849331 27.0574635,24.4503489 27.7423887,24.5119934 C28.4154062,24.5722153 28.8929009,24.1819583 29.0253134,23.4683049 C29.1277188,22.9146901 29.20488,22.3508802 29.2796598,21.8055636 C29.305142,21.6196818 29.3306243,21.4335629 29.3570592,21.2479182 L29.6992836,18.847577 C30.152725,15.6686185 30.6064045,12.4901343 31.0543684,9.31093881 C31.1901151,8.34738816 31.962442,7.66953598 32.8512252,7.7295208 C33.3558693,7.76484783 33.8185986,7.98605667 34.1212898,8.33671893 C34.4008802,8.66011535 34.5297205,9.06459798 34.4942358,9.50677858 C34.3684916,11.0704145 34.1651098,12.657997 33.9679199,14.1936558 C33.922671,14.5476374 33.877184,14.901619 33.8326496,15.2558376 C33.6711825,16.538517 33.48852,17.8420607 33.3118112,19.1031645 C32.9288628,21.834252 32.5330542,24.6585176 32.3270527,27.4552802 C32.1558214,29.7799884 32.1932113,32.1516412 32.2296485,34.4452901 C32.2470336,35.5565504 32.2653713,36.7052715 32.2594175,37.8324171 C32.2565597,38.3732289 32.2360786,39.0819033 32.1010464,39.7675796 C31.5104295,42.7649239 28.8376497,44.9504578 25.7454842,44.9646835 C24.1786822,44.9715592 22.6116421,44.9698996 21.0441257,44.9680028 C20.341101,44.9672915 19.6380763,44.9665802 18.9352898,44.9665802 C18.3020436,44.9670544 17.6735605,44.9587561 17.0424577,44.9502207 C15.6449818,44.9319645 14.2013044,44.9127599 12.7802515,44.9891042 C10.480894,45.1133415 8.6785597,44.177768 7.11175773,42.0472399 C5.58282193,39.9676871 4.48565569,37.4092041 3.65903012,33.9959966 C3.19987308,32.0980579 2.87193778,30.1297023 2.55519563,28.2258362 L2.50994675,27.9555489 C2.46612678,27.6907147 2.57091366,27.2855208 2.74905135,27.0327784 C4.41278118,24.6744029 5.52971403,22.3703219 6.1643891,19.9887111 Z M2.02023165,36.5990399 C2.85318756,39.8111017 4.10967632,42.4182204 5.86096433,44.5693674 C7.738523,46.8752063 9.94538982,48 12.5980303,48 C12.7133002,48 12.8292874,47.9978548 12.9459921,47.9935644 C14.3906911,47.9413649 15.8655229,47.954236 17.2918075,47.9673455 C17.9406186,47.973066 18.589669,47.9787865 19.2380019,47.9787865 L19.2482853,47.9787865 L21.3948866,47.9802166 C22.9352452,47.9814084 24.4753646,47.9828385 26.0154841,47.977118 C31.0665498,47.958288 35.0330748,44.0089966 35.0452714,38.9861576 C35.0493369,37.2907439 35.0486195,35.5953302 35.047902,33.9001548 C35.0471846,32.5980256 35.0467063,31.2963731 35.0483803,29.9944822 C35.0486195,29.8109494 35.0455106,29.62694 35.0426408,29.4429305 C35.0342706,28.920458 35.0263786,28.4270647 35.0876008,27.9398686 C35.386537,25.5632385 35.6928869,23.1870851 35.9992367,20.81117 C36.4158342,17.578133 36.8467807,14.2349764 37.2514208,10.9440194 C37.3530591,10.1169302 37.2939893,9.28245199 37.0856905,8.59432329 C36.4617508,6.53446593 34.336673,5.38393001 32.1422419,5.9199887 C32.0810198,5.93500501 32.03319,5.94477754 31.9956436,5.95145146 C31.9992308,5.89138619 32.0052095,5.824647 32.0092751,5.78221994 C32.0748019,5.06668051 32.0489738,4.47365516 31.9298776,3.96858252 C31.4910392,2.10417564 29.6637018,0.721959386 27.7725117,0.817539437 C25.6950244,0.924798846 24.0908131,2.34705861 23.7803977,4.35709993 C23.2745976,7.62875026 22.7757328,10.9571289 22.2933693,14.1758646 C22.0685693,15.6755895 21.8440084,17.175076 21.6180126,18.6743242 C21.1968712,17.1993881 20.777643,15.7239754 20.3581757,14.248801 C19.9329688,12.7531281 19.5077619,11.2574552 19.080881,9.76225908 C18.904389,9.14396817 18.7305277,8.52496221 18.5566664,7.90595624 C18.0898476,6.24367376 17.607245,4.52490132 17.0796823,2.84807922 C16.5695775,1.22631696 15.3381994,0.226659271 13.6125003,0.032877272 C11.8351451,-0.167578646 10.4169916,0.551536103 9.51181271,2.11013449 C9.29633948,2.48101369 9.18848328,2.89503501 9.08421433,3.29570849 C9.05814709,3.39534056 9.03207985,3.49473428 9.00481687,3.59269788 C8.91967983,3.89564612 8.92015813,3.89588447 8.71425085,3.87085728 C7.06579691,3.6727849 5.65146982,4.12875657 4.72955048,5.15725512 C3.8083486,6.18575368 3.5125213,7.63780772 3.89683372,9.24550708 C4.53153512,11.90125 5.18799908,14.6475676 5.88822731,17.3960304 C5.95901541,17.6732364 5.93820945,17.7897916 5.90831582,17.8388926 C5.86933454,17.9032482 5.7490426,17.9614066 5.56035405,18.006694 C5.27146208,18.0758167 4.39282871,18.2865218 4.20222697,19.3274148 C3.77199795,21.6763959 2.7010888,23.9636432 0.927799088,26.3192981 C0.381104511,27.0458019 0.194090006,27.7928041 0.356472166,28.6027318 C0.501635599,29.3285205 0.640581159,30.056216 0.779287569,30.7839115 C1.14422892,32.6988494 1.52208431,34.6788581 2.02023165,36.5990399" id="path-1"></path>
    </defs>
    <g id="Symbols" stroke="none" stroke-width="1" fill="none" fill-rule="evenodd">
        <g id="grey/hand/alien">
            <g id="couleur-icone/gris-copy-4" transform="translate(11.000000, 2.000000)">
                <mask id="mask-2" fill="white">
                    <use xlink:href="#path-1"></use>
                </mask>
                <use id="Mask" fill="#828282" xlink:href="#path-1"></use>
                <g id="couleur-icone/gris-foncé" mask="url(#mask-2)" fill="#828282">
                    <g transform="translate(-11.000000, -2.000000)" id="Rectangle">
                        <rect x="0" y="0" width="59" height="52"></rect>
                    </g>
                </g>
            </g>
        </g>
    </g>
</svg>