<?xml version="1.0" encoding="UTF-8"?>
<svg width="59px" height="52px" viewBox="0 0 59 52" version="1.1" xmlns="http://www.w3.org/2000/svg" xmlns:xlink="http://www.w3.org/1999/xlink">
    <!-- Generator: Sketch 47.1 (45422) - http://www.bohemiancoding.com/sketch -->
    <title>grey/food/aubergine</title>
    <desc>Created with Sketch.</desc>
    <defs>
        <path d="M48.2558153,14.4380594 C48.1670695,14.477337 48.0780765,14.5168615 47.9893306,14.556139 C47.5898508,13.6144665 47.1829548,12.6757583 46.7958351,11.7288981 C46.6863242,11.4608722 46.7090669,11.1081156 46.5397329,10.9020938 C46.2529776,10.5532896 45.8665995,10.0587386 45.5133466,10.0513277 C45.0982929,10.0424347 44.5475249,10.3939562 44.2773322,10.7548648 C43.5416564,11.736803 42.9629545,12.8348446 42.239886,13.827405 C41.9177807,14.269586 41.3986546,14.5684905 40.969016,14.9326104 C40.8360209,14.8266352 40.7032729,14.720907 40.570525,14.6149318 C41.0545482,13.2933295 41.5284361,11.9677747 42.0295164,10.652595 C42.1672084,10.2914394 42.376342,9.95523366 42.5713851,9.61853384 C42.9110419,9.03233527 43.0121478,8.43699664 42.5118092,7.91230815 C42.0070209,7.3826791 41.4273302,7.55288172 40.8024013,7.77397221 C39.4015026,8.26951133 37.9734115,8.68896568 36.5537254,9.13089963 C36.4385288,9.16671876 36.3020728,9.13559317 36.1680889,9.13559317 C37.2725914,6.10430673 41.3210329,3.71480027 44.4090913,4.41142058 C45.2181863,4.59397462 46.0937789,5.178444 46.610433,5.8360338 C48.619698,8.39203746 48.8211683,11.3593435 48.2558153,14.4380594 M46.3404874,19.8208099 C43.4076724,25.5041941 39.4042218,30.4002985 35.0388661,35.019731 C31.7392021,38.5117256 28.0815883,41.5649976 23.7881686,43.7813371 C20.7369435,45.3563906 17.5702746,46.6024023 14.0575217,46.5522555 C10.6792471,46.5038379 7.71132932,45.2400402 5.1090246,43.1788346 C3.26167747,41.715932 2.55739647,39.633976 2.54355311,37.3151197 C2.52377688,33.9772709 3.19097745,30.8647121 5.56783315,28.331435 C6.86614267,26.9475815 8.49150161,26.0486449 10.2374956,25.4115584 C13.5252939,24.2117411 16.8083953,22.9723993 20.1646688,21.9934254 C25.7566452,20.3620493 30.2260733,17.2472673 33.5457607,12.4872755 C34.045605,11.7706459 34.5367971,11.5320164 35.4472453,11.5947617 C36.5893226,11.6735637 37.7556258,11.4003502 38.978044,11.2721425 C38.8079684,11.935661 38.5217075,12.6510554 38.4616372,13.38473 C38.3778354,14.4056987 38.3466879,15.4595222 38.5076169,16.4649281 C38.6888167,17.5958245 39.3018798,17.8804013 40.4130567,17.6743795 C42.1012052,17.3616415 43.3401861,16.3470955 44.5905382,15.1924844 C44.3139182,15.8532856 44.0513887,16.5202625 43.7587005,17.1738998 C39.7035845,26.2260113 33.639945,33.6294548 25.3754583,39.1337433 C22.4772518,41.0640238 19.2962451,42.548912 15.6905439,42.5914009 C14.5071837,42.6052345 13.3198683,42.3293037 12.1355193,42.175899 C11.6309782,42.1104365 10.9482038,41.5931588 10.7207772,42.3836499 C10.481732,43.2131716 11.3303795,43.2097132 11.8475279,43.3692936 C14.8344803,44.2914509 17.7527103,43.9090508 20.6257022,42.8596738 C26.0688624,40.8718357 30.5612804,37.4643249 34.3602942,33.2025896 C36.9892969,30.2533166 39.4378414,27.108397 41.6547568,23.8394692 C43.1688745,21.6068258 44.1453258,19.0098155 45.3598336,16.5746087 C45.5032113,16.2875616 45.6317568,15.9928567 45.7667295,15.7018571 C45.8356991,15.7334768 45.8705547,15.7386644 45.8871173,15.7586737 C47.4405402,17.6309025 47.4642717,17.6432539 46.3404874,19.8208099 M47.9579359,3.46999505 C49.4206353,5.28145487 50.4747084,7.26064703 50.8282085,9.57258655 C51.3680996,13.1021294 50.5864441,16.4184867 49.1694772,19.6103417 C47.0539149,24.375274 43.9450915,28.4984263 40.6335617,32.4738556 C36.7900513,37.0881005 32.5937824,41.3318027 27.4504793,44.5261279 C23.97629,46.6841687 20.3087881,48.4430115 16.1943434,48.8856865 C10.7585992,49.4706499 5.99401091,47.8172883 2.30673275,43.7712089 C-0.265166018,40.9491556 -0.276537351,37.3820644 0.326390474,33.8142321 C1.16786908,28.8353731 3.89402244,25.2885383 8.60397892,23.4449647 C12.1913871,22.0408549 15.8171118,20.6915853 19.5132892,19.6182466 C24.8595459,18.0656726 28.9057627,14.9192709 32.0464753,10.4231056 C33.346268,8.56224008 34.6722643,6.69717507 36.1868763,5.01417006 C38.7031544,2.21805473 42.0942835,1.29169794 45.8460816,2.16099115 C46.1447027,1.68126185 46.4233004,1.2462447 46.6892907,0.803816699 C47.1154684,0.094350913 47.6968896,-0.226045022 48.483242,0.175376253 C49.1714548,0.526897776 49.2700887,1.28132274 48.7826047,2.12443094 C48.5247721,2.57056437 48.244444,3.00409934 47.9579359,3.46999505 Z" id="path-1"></path>
    </defs>
    <g id="Symbols" stroke="none" stroke-width="1" fill="none" fill-rule="evenodd">
        <g id="grey/food/aubergine">
            <g id="couleur-icone/gris" transform="translate(4.000000, 1.000000)">
                <mask id="mask-2" fill="white">
                    <use xlink:href="#path-1"></use>
                </mask>
                <use id="Mask" fill="#828282" xlink:href="#path-1"></use>
                <g id="couleur-icone/gris-foncé" mask="url(#mask-2)" fill="#828282">
                    <g transform="translate(-4.000000, -1.000000)" id="Rectangle">
                        <rect x="0" y="0" width="59" height="52"></rect>
                    </g>
                </g>
            </g>
        </g>
    </g>
</svg>