<?xml version="1.0" encoding="UTF-8"?>
<svg width="35px" height="44px" viewBox="0 0 35 44" version="1.1" xmlns="http://www.w3.org/2000/svg" xmlns:xlink="http://www.w3.org/1999/xlink">
    <!-- Generator: Sketch 47.1 (45422) - http://www.bohemiancoding.com/sketch -->
    <title>menu/back</title>
    <desc>Created with Sketch.</desc>
    <defs>
        <path d="M24.9295886,37.8493984 L20.8842871,37.8493984 L20.8842871,7.31468283 C20.8842871,7.01384819 20.6553078,6.71301356 20.350002,6.56259624 L5.69532486,1.89965938 L24.9295886,1.89965938 L24.9295886,37.8493984 Z M19.4340847,43.7156738 L1.57369692,38.0750243 L1.57369692,37.6237724 L1.57369692,2.20049402 L19.4340847,7.84114344 L19.4340847,43.7156738 Z M26.4561175,37.8493984 L26.4561175,1.14757279 C26.4561175,0.696320839 26.1508117,0.395486203 25.692853,0.395486203 L0.810432482,0.395486203 C0.734106038,0.395486203 0.657779595,0.395486203 0.505126708,0.470694862 C0.428800265,0.470694862 0.428800265,0.545903521 0.352473821,0.545903521 L0.276147378,0.62111218 C0.199820934,0.696320839 0.199820934,0.771529498 0.123494491,0.846738157 C0.123494491,0.997155475 0.0471680477,1.07236413 0.0471680477,1.22278145 L0.0471680477,37.924607 C0.0590313648,38.3777394 0.102188068,38.6858164 0.176638157,38.8488381 C0.251088246,39.0118599 0.436910873,39.2051739 0.734106038,39.4287802 L19.9683698,45.5206816 L20.1973491,45.5206816 C20.350002,45.5206816 20.5026549,45.4454729 20.6553078,45.3702643 C20.8842871,45.2198469 20.9606135,44.994221 20.9606135,44.768595 L20.9606135,39.3535715 L25.3875473,39.3535715 C25.7937193,39.3807408 26.0883263,39.2654957 26.2713684,39.0078364 C26.4544106,38.7501771 26.5159936,38.3640311 26.4561175,37.8493984 Z M16.9916385,22.5820406 C16.9916385,23.1085012 16.6100063,23.4845445 16.0757212,23.4845445 C15.5414361,23.4845445 15.1598038,23.1085012 15.1598038,22.5820406 C15.1598038,22.05558 15.6177625,21.6795367 16.0757212,21.6795367 C16.6100063,21.6795367 16.9916385,22.05558 16.9916385,22.5820406 Z M18.5181673,22.5820406 C18.5181673,21.2282847 17.4495971,20.1753635 16.0757212,20.1753635 C14.7018452,20.1753635 13.633275,21.2282847 13.633275,22.5820406 C13.633275,23.9357965 14.7018452,24.9887177 16.0757212,24.9887177 C17.4495971,24.9887177 18.5181673,23.9357965 18.5181673,22.5820406 Z" id="path-1"></path>
    </defs>
    <g id="Symbols" stroke="none" stroke-width="1" fill="none" fill-rule="evenodd">
        <g id="menu/back">
            <g id="couleur-icone/gris" transform="translate(4.214688, -0.958084)">
                <mask id="mask-2" fill="white">
                    <use xlink:href="#path-1"></use>
                </mask>
                <use id="Mask" fill="#000000" xlink:href="#path-1"></use>
                <g id="couleur-icone/gris-foncé" mask="url(#mask-2)" fill="#828282">
                    <g transform="translate(-21.842902, -8.266995)" id="Rectangle">
                        <rect x="0" y="0" width="66" height="58"></rect>
                    </g>
                </g>
            </g>
        </g>
    </g>
</svg>