<?xml version="1.0" encoding="UTF-8"?>
<svg width="59px" height="52px" viewBox="0 0 59 52" version="1.1" xmlns="http://www.w3.org/2000/svg" xmlns:xlink="http://www.w3.org/1999/xlink">
    <!-- Generator: Sketch 47.1 (45422) - http://www.bohemiancoding.com/sketch -->
    <title>grey/food/beer</title>
    <desc>Created with Sketch.</desc>
    <defs>
        <path d="M28.323385,16.377325 C25.374622,16.344325 22.3772809,16.349825 19.478622,16.354825 L17.1547607,16.358325 C15.8502751,16.359575 15.5295584,16.672825 15.5219283,17.954075 C15.5206566,18.182325 15.517859,18.410575 15.5153156,18.638825 C15.5059052,19.413325 15.4962405,20.214325 15.5430382,21.003075 C15.5857665,21.725825 15.3245642,22.069325 14.6411653,22.189325 C14.0811191,22.287325 13.5935584,21.916325 13.4305295,21.265325 C13.0795468,19.861825 12.9739977,19.778325 11.5479399,19.778075 L10.8668301,19.777325 C10.3065295,19.776075 9.74597457,19.775325 9.18618266,19.778825 C8.04167399,19.785825 7.65432139,20.169325 7.6515237,21.299325 C7.6472,22.929325 7.64745434,24.559075 7.64796301,26.188825 C7.64821734,27.295575 7.64847168,28.402325 7.6472,29.509075 C7.6472,29.599825 7.65254104,29.693825 7.65788208,29.788325 C7.67059884,30.004575 7.68382428,30.228325 7.61388208,30.362575 C7.48111908,30.618325 7.19295723,30.861825 7.0665526,30.863575 L7.06477225,30.863575 C6.92336185,30.863575 6.60595145,30.620575 6.51566243,30.407825 C6.41189364,30.163325 6.41723468,29.836575 6.42257572,29.520825 C6.42410173,29.436575 6.42537341,29.352825 6.42486474,29.270825 C6.41850636,28.032325 6.4195237,26.794075 6.42054104,25.555575 L6.42155838,22.660075 C6.42155838,21.473075 6.42181272,20.286325 6.42104971,19.099575 C6.42003237,17.453075 6.22851792,17.255575 4.55880694,17.177825 C3.38810173,17.123325 2.54854104,16.467575 2.31302659,15.423325 C2.05970867,14.299575 2.49106127,13.299575 3.43820578,12.813575 C3.73654104,12.660325 4.06666821,12.565575 4.36754682,12.546825 C5.42100347,12.481075 5.90602081,12.000575 5.98944277,10.940325 C6.05200925,10.141825 6.50981272,9.448825 7.21432139,9.086575 C7.53605549,8.921325 7.88474913,8.838825 8.2321711,8.838825 C8.61265665,8.838825 8.99212486,8.937575 9.33344277,9.134325 C9.52902659,9.247075 9.69434451,9.439325 9.86907283,9.643075 C10.025489,9.824825 10.1867376,10.012825 10.3868994,10.163825 C10.9975584,10.625825 11.4111075,10.787325 11.7226682,10.687075 C12.0347376,10.587825 12.2781364,10.191825 12.4665988,9.476325 C12.5385757,9.203575 12.5235699,8.925575 12.5085642,8.656825 C12.5011884,8.520575 12.4943214,8.391825 12.4981364,8.266825 C12.5347607,7.148825 13.1576277,6.310325 14.164541,6.023825 C15.2612347,5.712075 16.2966335,6.053075 16.9339977,6.936825 C17.0515006,7.099575 17.156541,7.269575 17.2676855,7.449575 C17.4101133,7.679575 17.5571191,7.917825 17.7315931,8.138075 C18.0301827,8.515575 18.4327954,8.694325 18.8371884,8.630075 C19.2390382,8.565325 19.5612809,8.271575 19.7210035,7.823325 C19.8326566,7.509575 19.9046335,7.184825 19.9745757,6.870825 C20.0198474,6.666825 20.0663908,6.455825 20.1231075,6.255075 C20.5419977,4.767325 21.5186451,3.559325 22.873489,2.853075 C24.2097665,2.156575 25.7467145,2.038825 27.2015121,2.521575 C28.6675006,3.008325 29.8252347,4.033075 30.4618358,5.407075 C31.1060671,6.796825 31.1304832,8.352075 30.5312694,9.784575 L30.4971884,9.867075 C30.041674,10.924075 29.8338821,11.406325 30.041674,11.806575 C30.2492116,12.206075 30.7660208,12.323075 31.9074775,12.581325 C32.8815815,12.801825 33.4810497,13.400575 33.689096,14.361325 C33.8801017,15.241575 33.5998243,15.982825 32.8566566,16.564325 C32.1330728,17.131325 31.3466682,17.219825 30.3827376,16.843575 C29.5953156,16.536575 28.9218358,16.384075 28.323385,16.377325 M7.25857572,36.837825 C7.26213642,35.627075 7.26595145,34.416325 7.26722312,33.205825 C7.26722312,33.196075 7.27002081,33.181825 7.27409017,33.165825 C9.11954682,32.759825 9.68722312,32.296075 9.83550058,30.275825 C9.94206705,28.825075 9.93621734,27.346325 9.93062197,25.916575 C9.92833295,25.313575 9.9257896,24.710575 9.93163931,24.108075 C9.93621734,23.605575 9.93494566,23.103075 9.93367399,22.577075 L9.93291098,22.059575 L11.1603329,22.059575 L11.1603329,25.529075 C11.1603329,31.717075 11.1603329,37.880575 11.161096,44.044075 C11.161096,44.123075 11.1537202,44.206575 11.1468532,44.290325 C11.126252,44.537825 11.1031075,44.818325 11.2363792,45.046575 C11.3213272,45.191575 11.7684486,45.912825 12.2743214,45.912825 L12.2806798,45.912825 C12.6906682,45.908575 13.0772578,45.446825 13.329304,45.059825 C13.4641017,44.852825 13.4394312,44.592075 13.4180671,44.362075 C13.4106913,44.284825 13.4030613,44.208075 13.4030613,44.136325 L13.4038243,24.267825 C13.5019977,24.278325 13.5983908,24.289075 13.6932578,24.300075 C14.0920555,24.345575 14.467963,24.388075 14.8512462,24.368575 C16.4622058,24.286325 17.7412578,22.969325 17.7631306,21.370575 C17.772541,20.680825 17.770252,19.997325 17.767963,19.273825 C17.7669457,19.026325 17.7661827,18.775575 17.7659283,18.519825 L21.768911,18.519575 C22.7956624,18.519575 23.8226682,18.519325 24.8491653,18.520075 C25.1385988,18.518575 25.4298127,18.516825 25.7205179,18.513575 C27.6348994,18.490325 29.4452578,18.469575 31.2222983,19.427825 C31.2309457,19.558575 31.2416277,19.747825 31.2418821,19.938325 C31.2436624,28.655325 31.2444254,37.372325 31.2428994,46.089075 C31.2423908,48.534325 29.9694428,49.774325 27.4596624,49.774325 L23.1479168,49.774825 C19.0157318,49.775325 14.8838012,49.776075 10.7526335,49.773325 C8.66174335,49.772075 7.29647168,48.487325 7.27434451,46.500825 C7.23899191,43.280575 7.24891098,40.005325 7.25857572,36.837825 M41.6533503,38.271575 C41.6345295,39.784075 40.3806566,41.083575 38.8584601,41.167825 C37.5941595,41.237575 36.3446104,41.222075 35.0215584,41.205075 C34.5284023,41.198825 34.0316855,41.192575 33.5301364,41.190825 L33.5301364,22.945075 C34.0685642,22.942325 34.6077549,22.931075 35.1319399,22.920075 C36.5780902,22.889575 37.9441249,22.861075 39.3195699,22.991575 C40.6161711,23.114575 41.6431769,24.341075 41.6574197,25.783575 C41.702437,30.359825 41.7011653,34.444825 41.6533503,38.271575 M43.9174428,25.956325 C43.9253272,28.901575 43.9235468,31.846575 43.9217665,34.792075 L43.9202405,37.736825 C43.9192231,41.077075 41.6352925,43.354825 38.2368647,43.404575 C37.1244023,43.420575 36.0155006,43.416575 34.841489,43.412825 C34.3788532,43.411075 33.9062983,43.409325 33.4210266,43.409075 C33.4233156,43.752325 33.4291653,44.085575 33.4352694,44.411575 C33.4505295,45.272825 33.4655353,46.085825 33.4050035,46.898075 C33.1860208,49.860075 30.963385,51.943825 27.9998705,51.965575 C24.8941827,51.988575 21.9314312,52.000075 19.0749919,52.000075 C16.1086798,52.000075 13.2568185,51.987575 10.4738821,51.962825 C7.39311908,51.935575 5.12673757,49.709325 5.08477225,46.669075 C5.04789364,43.998825 5.04916532,41.283575 5.05069133,38.658325 C5.05170867,36.837325 5.05272601,34.954575 5.04077225,33.103575 C5.03924624,32.880325 4.95404393,32.642825 4.86375491,32.391325 C4.80932717,32.239575 4.75286474,32.082825 4.71267977,31.921325 C4.65977803,31.708075 4.59644855,31.494825 4.53311908,31.281325 C4.37517688,30.749825 4.21189364,30.200325 4.20197457,29.639825 C4.16051792,27.327825 4.1668763,24.977575 4.17323468,22.704825 C4.17577803,21.862075 4.17781272,21.019325 4.17781272,20.176575 L4.17781272,19.424575 C1.47804393,18.826325 -0.00295028902,17.190325 0.000101734104,14.800075 C0.00264508671,12.807075 1.27940809,11.116575 3.25304971,10.493825 C3.51832139,10.409825 3.7708763,10.249325 3.81640231,10.135575 C4.46953526,8.498575 5.39200925,7.426825 6.55762775,6.949575 C7.62380116,6.513075 8.89191676,6.575075 10.3299283,7.132825 C10.7976509,5.594325 12.0121017,4.376825 13.5592231,3.918325 C15.1427145,3.449575 16.8050497,3.825325 18.1700671,4.949325 C19.261674,2.497075 21.0438012,0.934575 23.4716855,0.302825 C25.2400786,-0.157175 26.9934659,-0.009675 28.6832694,0.741075 C32.3701133,2.378575 33.7221595,5.654575 32.7032925,10.481075 C34.0650035,10.952325 35.0284254,11.788075 35.5688879,12.967075 C36.3901364,14.760075 35.9455584,16.788075 34.4360786,18.133825 C33.4202636,19.039575 33.3388763,19.112075 33.5555699,20.642075 C33.8432231,20.641325 34.1324023,20.639325 34.4223445,20.637575 C35.2647029,20.632075 36.1365642,20.626075 36.9979977,20.650575 C37.1928185,20.656075 37.388911,20.658825 37.5852578,20.661825 C38.3942983,20.673575 39.2305526,20.685575 40.0192462,20.885575 C42.3077549,21.465325 43.9108301,23.550325 43.9174428,25.956325 Z" id="path-1"></path>
    </defs>
    <g id="Symbols" stroke="none" stroke-width="1" fill="none" fill-rule="evenodd">
        <g id="grey/food/beer">
            <g id="couleur-icone/gris-copy-8" transform="translate(8.000000, 0.000000)">
                <mask id="mask-2" fill="white">
                    <use xlink:href="#path-1"></use>
                </mask>
                <use id="Mask" fill="#828282" xlink:href="#path-1"></use>
                <g id="couleur-icone/gris-foncé" mask="url(#mask-2)" fill="#828282">
                    <g transform="translate(-8.000000, 0.000000)" id="Rectangle">
                        <rect x="0" y="0" width="59" height="52"></rect>
                    </g>
                </g>
            </g>
        </g>
    </g>
</svg>