<?xml version="1.0" encoding="UTF-8"?>
<svg width="59px" height="52px" viewBox="0 0 59 52" version="1.1" xmlns="http://www.w3.org/2000/svg" xmlns:xlink="http://www.w3.org/1999/xlink">
    <!-- Generator: Sketch 47.1 (45422) - http://www.bohemiancoding.com/sketch -->
    <title>grey/underwear/bra</title>
    <desc>Created with Sketch.</desc>
    <defs>
        <path d="M48.3831111,30.8415559 C47.5811546,33.5421894 45.7760058,35.7774466 43.2996118,37.1354742 C38.3282163,39.8612815 31.8411208,38.2163626 29.0146317,33.5542093 L47.7980113,23.3789809 C48.9144561,25.6217223 49.1290157,28.3284791 48.3831111,30.8415559 L48.3831111,30.8415559 Z M47.1968311,41.8767778 L4.04440208,41.8767778 L3.62171516,36.7317853 C3.68971262,36.7918851 3.75748036,36.851758 3.82455894,36.9111774 C4.2477053,37.285837 4.6474201,37.6396318 5.0818228,37.964624 C6.98942723,39.392957 9.10515903,40.2341268 11.5493921,40.5364399 C16.5835014,41.159663 21.8156303,38.4783068 24.2734169,34.0182248 C24.6281064,33.3752708 24.975215,32.7282346 25.2982029,32.1265567 C25.3680382,31.9963784 25.4364951,31.8686947 25.5038034,31.7435058 C26.0634041,32.9092142 26.8116059,34.3262077 27.7998663,35.6046315 C29.8953826,38.3152437 32.6943051,39.9508642 36.1196772,40.4659077 C40.3382764,41.1004704 44.1247701,39.8388292 47.3808377,36.7057043 C47.4577943,36.6315435 47.5299268,36.5621453 47.6133155,36.5000044 L47.1968311,41.8767778 Z M3.20040657,23.3773934 L21.9764351,33.546952 C19.5418504,37.6793203 13.3637297,40.1241329 7.85731374,37.2159852 C2.79724595,34.5439275 0.739174161,28.3745178 3.20040657,23.3773934 L3.20040657,23.3773934 Z M4.4964933,20.9284986 C4.5431267,20.8606879 4.58907093,20.7933308 4.63432599,20.7257469 C4.86473631,20.3796631 5.39722994,20.3055022 5.73078505,20.4560918 C6.09052837,20.6175674 6.26235979,21.0298744 6.15852583,21.4820967 C6.14129674,21.5569379 6.11901379,21.6304183 6.09673084,21.7041256 C6.07329928,21.7812347 6.05032717,21.8583438 6.03149003,21.9365869 C5.92788579,22.3722534 6.08754199,22.7530363 6.4927701,23.0381133 C6.88237718,23.3113971 7.32482011,23.2966556 7.70684639,22.9979712 C7.8102209,22.9172334 7.89521773,22.8244757 7.97699846,22.7346662 C8.0057136,22.703369 8.03442875,22.6720718 8.06360333,22.6416817 C8.3923343,22.2996801 8.90530163,22.1785734 9.25700471,22.3593263 C9.59561369,22.5335022 9.72908168,22.928573 9.6229505,23.4433897 C9.61031584,23.5039431 9.59010038,23.5633624 9.57011464,23.622555 C9.54002117,23.7132716 9.50877909,23.8069365 9.49430666,23.9114874 C9.43136306,24.3646169 9.63076102,24.7406372 10.0557452,24.9696967 C10.4917559,25.2044259 10.9176589,25.1452333 11.2551193,24.8018709 C11.3125496,24.7433587 11.3667638,24.6818982 11.4207482,24.6202109 C11.4898943,24.5415143 11.5551351,24.4671267 11.6256595,24.4022643 C11.986092,24.0713755 12.3766179,24.0205742 12.754739,24.2550766 C13.0763486,24.4546531 13.2226809,24.863785 13.118847,25.2733705 C12.9189896,26.0607907 12.9284081,26.5740199 13.5677221,26.8674881 C14.3283288,27.2167471 14.7889197,26.6543041 15.0360997,26.3517642 C15.2975224,26.0322149 15.6058082,25.9129226 15.9522277,25.9986498 C16.3064577,26.0857377 16.5444488,26.3481355 16.6053249,26.7189397 C16.629905,26.8677149 16.5772989,27.0505089 16.5212469,27.243962 C16.4994234,27.320164 16.4775999,27.3961392 16.4601411,27.4707536 C16.3588341,27.8987092 16.4697894,28.3148716 16.7567111,28.5838464 C17.0144583,28.8253793 17.3693774,28.9052099 17.7316477,28.8020198 C17.9360995,28.7439612 18.1035662,28.6051648 18.2515066,28.4829241 L18.2687357,28.4686363 C18.3505165,28.4012792 18.4171356,28.3262112 18.4821467,28.2536379 C18.541185,28.187188 18.5967775,28.1245935 18.656505,28.0769673 C18.9700744,27.8265895 19.2627392,27.7998281 19.6045642,27.9907865 C19.9620103,28.1901363 20.1067347,28.4554824 20.0598715,28.8256061 C20.0481558,28.9185906 20.0215081,29.0142967 19.9934821,29.1156725 C19.9723478,29.1914208 19.9514432,29.2671692 19.9355924,29.3435979 C19.7814495,30.0818043 20.1150046,30.4317437 20.4219121,30.5950336 C20.8468962,30.8215983 21.3720388,30.7292941 21.7600378,30.3605311 C21.8144817,30.3090495 21.8634123,30.251898 21.9121132,30.1945197 C21.9495577,30.1502954 21.9870023,30.106071 22.0283521,30.0659289 C22.3979734,29.7096395 22.7494468,29.6565702 23.1351486,29.8981032 C23.544282,30.1546044 23.6598317,30.5489949 23.4604337,31.0084745 C23.3814097,31.1905881 23.2863051,31.364764 23.1852278,31.5491455 L23.143878,31.6253474 C23.0501518,31.7974822 22.95275,31.9678026 22.8344436,32.1753169 L22.7567979,32.3118454 L3.89002947,22.0953409 C4.00626837,21.6440258 4.24517836,21.2954472 4.4964933,20.9284986 L4.4964933,20.9284986 Z M7.0064266,14.9441507 L7.0477764,13.5198999 C7.05374915,13.2699757 7.0597219,13.0200514 7.07143768,12.770354 C7.22994528,9.34738953 7.48171966,6.49049674 8.19408495,3.67351925 C8.2891895,3.2977257 8.42679247,2.90968541 8.60298859,2.52073795 C8.70498479,2.29598755 8.77114448,2.15764473 8.83408807,2.13088333 C8.89863972,2.10344155 9.04680986,2.11727584 9.26711244,2.1476659 C8.9788124,4.34164708 8.84006082,6.59414046 8.84258776,9.02557236 C8.84580385,11.9749961 8.86096545,14.9734068 8.87589732,17.8731632 L8.88301868,19.300589 C8.88416728,19.5162678 8.89932888,19.7294518 8.91540936,19.9548826 C8.91816601,19.9918496 8.92069295,20.0292702 8.9234496,20.0671444 L8.25932575,20.0671444 C8.15962677,19.9576041 8.06015752,19.8496513 7.96137742,19.7423789 C7.66067243,19.4162527 7.37673709,19.108043 7.11117944,18.7798757 C6.99746747,18.6392649 6.919592,18.4362865 6.92165949,18.2863773 C6.93773997,17.1726042 6.97265759,16.0395537 7.0064266,14.9441507 L7.0064266,14.9441507 Z M11.0943145,12.2065502 C11.093855,10.1658801 11.0931659,8.12543681 11.1009764,6.0849935 C11.1028142,5.6488734 11.1326779,5.21320689 11.1763249,4.78094225 C12.0053886,9.34738953 12.1882466,13.9052187 12.3809826,18.7061684 C12.4237108,19.7714082 12.4675875,20.8704399 12.5192748,21.9594928 L11.6580502,21.9594928 C11.2525923,21.4489851 11.0731801,20.8842742 11.0780043,20.1426659 C11.0956928,17.4971428 11.0950036,14.8073954 11.0943145,12.2065502 L11.0943145,12.2065502 Z M27.8391486,29.9142054 C27.9981156,29.8062527 28.1639743,29.7522763 28.3275358,29.7522763 C28.5253257,29.7522763 28.7198995,29.8311997 28.8947173,29.9876859 C28.9555934,30.041889 29.0116454,30.1074318 29.0711431,30.17683 C29.1329381,30.2487229 29.1963412,30.3231105 29.2712303,30.3920551 C29.6562429,30.747891 30.2140059,30.8211447 30.6275039,30.5696329 C31.0233135,30.3287803 31.1836588,29.9069481 31.078906,29.3823793 C31.0621363,29.29892 31.0375562,29.2165947 31.0125166,29.1344962 C30.9838014,29.0396973 30.9562349,28.9503414 30.9468163,28.8657482 C30.8983452,28.4434624 31.0430695,28.1769824 31.4303793,27.9753647 C31.7926496,27.7866742 32.0990976,27.8395166 32.4246125,28.1459119 C32.4772186,28.1955793 32.5261492,28.2559058 32.5780662,28.319861 C32.6446854,28.4021863 32.7136017,28.48746 32.8011255,28.5636619 C33.1780979,28.8909221 33.6827952,28.945352 34.0880233,28.7017779 C34.4799276,28.4661416 34.6692179,27.9896526 34.558722,27.5158851 C34.5368985,27.4217666 34.5042781,27.3328643 34.4728063,27.2464568 C34.4254837,27.1174124 34.3809178,26.9951717 34.3891878,26.8983318 C34.4247945,26.4701494 34.5911127,26.2014014 34.912952,26.0519458 C35.2242242,25.907026 35.5037948,25.9644043 35.8766322,26.2483473 C35.946008,26.3014165 36.0084922,26.3801131 36.0741924,26.4633456 C36.1389738,26.5449906 36.2055929,26.629357 36.2896709,26.7048786 C36.642982,27.0230671 37.0707228,27.0697862 37.4936394,26.8368713 C37.9170155,26.6037296 38.1329534,26.1372194 38.0307275,25.6761523 C38.0093634,25.5797659 37.9737566,25.4944923 37.9395282,25.4119401 C37.9121913,25.3461706 37.8862328,25.2840297 37.8722199,25.2257443 C37.7844664,24.8624243 37.9351635,24.4585086 38.2308146,24.2652822 C38.5705722,24.0425729 38.9833811,24.071829 39.3077473,24.340577 C39.3996358,24.4172325 39.4830246,24.5108974 39.5712375,24.6100053 C39.6233842,24.6689711 39.6757606,24.7279369 39.730664,24.7841812 C40.0731782,25.1361616 40.4848385,25.2051063 40.9229167,24.9828506 C41.3713324,24.7553787 41.5822164,24.3423913 41.5020438,23.8498001 C41.484585,23.7427545 41.4551806,23.6422859 41.4269249,23.5452191 C41.396372,23.4411218 41.3676569,23.3429211 41.3573194,23.2485758 C41.3065511,22.7918177 41.2985108,22.7217391 42.0255783,22.383593 C42.3566064,22.2300551 42.5916112,22.2765474 42.8656685,22.5491508 C42.9145991,22.5979109 42.9589353,22.6518873 43.0032715,22.7056369 C43.07862,22.7968071 43.1567252,22.8909256 43.2575728,22.9716634 C43.6423557,23.2812338 44.0597591,23.3150257 44.4629197,23.0705445 C44.8759583,22.8206202 45.0627216,22.3863145 44.9621037,21.9086915 C44.9432666,21.8186553 44.9168487,21.7302066 44.890201,21.6417579 C44.8706747,21.5768955 44.8511484,21.5120331 44.8350679,21.4460368 C44.7360581,21.0325959 44.890201,20.6615649 45.2382286,20.4774102 C45.5651218,20.3043683 46.1047367,20.3563035 46.3383631,20.6844709 C46.5650979,21.0022058 46.7628878,21.350104 46.9542456,21.6864358 C47.0068517,21.7791936 47.0592281,21.8712709 47.112064,21.9624411 C45.4433695,23.0471849 30.079619,31.3869896 28.1947569,32.2311076 C28.1435291,32.1365355 28.0913824,32.0421903 28.0392357,31.9473914 C27.8522427,31.6074309 27.6588175,31.2561308 27.4991613,30.8989342 C27.3399645,30.5424179 27.4702164,30.1650368 27.8391486,29.9142054 L27.8391486,29.9142054 Z M40.1836741,4.6700412 C40.2218078,5.35495159 40.2560362,6.00901834 40.2679817,6.65922963 C40.3272498,9.84338259 40.3729643,12.4982041 40.377329,15.2539479 C40.3800857,16.8292418 40.3171421,18.4331114 40.256266,19.9839119 L40.2383477,20.4463398 C40.2316858,20.6177942 40.1140686,20.8253084 40.0102346,21.0083292 L39.9863436,21.0505124 C39.9383319,21.1360128 39.8707939,21.2185649 39.7993506,21.3056529 C39.6982733,21.4290274 39.5939799,21.5567111 39.5259824,21.7136508 C39.4104327,21.9796773 39.2776539,22.0545185 39.0123259,21.9814916 C38.7405658,19.9986533 39.3794203,8.92850559 40.1836741,4.6700412 L40.1836741,4.6700412 Z M42.8332778,2.64048388 C43.1084838,3.48188042 43.413094,4.47976311 43.5810202,5.50327325 C43.7652565,6.62679844 43.8856304,7.78275483 44.0023288,8.90083702 C44.0360978,9.22492211 44.0698668,9.5487804 44.1052438,9.87263869 C44.3825173,12.4133841 44.4231779,14.8686291 44.4477581,17.8141974 C44.4512039,18.2274115 44.3799903,18.498881 43.9935994,18.7497124 C43.6375316,18.9805862 43.3067331,19.3427722 42.9825966,19.856455 C42.8525744,20.0621549 42.758159,20.1485625 42.450103,20.0592067 C42.4661834,19.177668 42.4907636,18.2847898 42.5144249,17.4195801 C42.5720849,15.3315106 42.6315827,13.1724553 42.5750713,11.0501403 C42.5562341,10.3382417 42.5486533,9.61273561 42.5417617,8.91081585 C42.5190193,6.67805333 42.4955877,4.37158356 42.0981701,2.11682225 C42.628826,2.01499286 42.6644328,2.12566712 42.8332778,2.64048388 L42.8332778,2.64048388 Z M48.8271621,20.6273194 L48.7681238,20.5225417 C48.2716964,19.6450853 47.7589587,18.7385996 46.6854718,18.396598 C46.683634,18.3895675 46.6817963,18.3827637 46.6799585,18.37596 C46.6670941,18.3260659 46.6567567,18.2866041 46.6567567,18.2643786 C46.6494056,14.4581365 46.4906683,11.3222901 46.1568834,8.3959991 C45.9749443,6.80392262 45.7151297,5.20322806 45.3843312,3.63836657 C45.1959599,2.74571514 44.7950965,1.86712479 44.4730274,1.16112278 C44.1047844,0.353744968 43.43285,-0.0454081095 42.5383159,0.00720752344 C42.0428074,0.0360100466 41.5006654,0.0364636297 40.8799589,0.00834148105 C40.100515,-0.0254504556 39.4827948,0.319045865 39.0465544,1.03684103 C38.8715069,1.32531984 38.7476872,1.63987968 38.6399479,1.93674979 C38.0959683,3.4342542 37.8648688,4.99140478 37.6962535,6.4512618 C37.4348308,8.70965177 37.2264737,10.9303943 37.0769252,13.0515754 C36.9521866,14.8214565 36.8791353,16.6233151 36.8086109,18.3657544 C36.7911521,18.8021013 36.7732339,19.2384481 36.7548562,19.6745682 C36.7364785,20.1120491 36.7321138,20.5556533 36.7279788,20.9847429 C36.7238438,21.4104305 36.7194791,21.8508597 36.7013312,22.2815368 C36.6921423,22.4990298 36.6250637,22.7351198 36.5216892,22.9131512 C36.3838565,23.1508287 36.2177681,23.3710432 36.0254915,23.6261837 C35.9623182,23.7100966 35.8975368,23.7962773 35.8313772,23.8860868 C34.2224102,23.7266523 33.0409543,24.378678 32.398654,25.779796 C30.8560765,25.5774979 29.6847283,26.2027622 28.9153922,27.6419812 C27.2409547,27.4129217 26.0126357,28.3305202 25.5028845,29.4842087 C25.2534073,28.8995401 24.8612733,28.4407409 24.3159153,28.0923891 C23.671088,27.6809893 22.9100219,27.5245032 22.0517836,27.6281469 C21.3258648,26.2091123 20.1643947,25.5849821 18.5963181,25.7727654 C18.2184268,25.0359198 17.8083745,24.5757598 17.2439497,24.2489532 C16.6740115,23.9191983 16.0781148,23.9037765 15.5022039,23.8892619 C15.3855056,23.8863136 15.2685775,23.8833653 15.1521089,23.8774687 C14.7948925,23.3429211 14.6228314,22.7906837 14.6122642,22.1481834 C14.5828599,20.3737665 14.5295646,18.5705471 14.4778773,16.8272007 C14.4578916,16.1536299 14.4379058,15.4800591 14.4192984,14.8062614 L14.4179201,14.7461617 C14.4165418,14.6831136 14.4151634,14.6200656 14.4098798,14.5576979 C14.213698,12.2807111 14.0170567,10.003951 13.8197262,7.72741769 C13.6428409,5.68833513 13.3839452,4.14411166 12.9803251,2.72054128 C12.7896566,2.04855801 12.4740197,1.40310934 12.1615989,0.806194052 C11.8916766,0.290696925 11.3787093,0.00584677432 10.7021805,0.0142380606 C10.5498753,0.0153720182 10.3975702,0.0178667249 10.2450354,0.0201346401 C9.79409276,0.0273919688 9.32821827,0.0351028805 8.87658649,0.0056199828 C7.98297121,-0.0526654381 7.28806473,0.343992932 6.91982172,1.12188785 C6.57271306,1.85578521 6.18563293,2.71260358 5.99036995,3.59346185 C5.70321851,4.88798785 5.47947011,6.26710709 5.30649008,7.80996981 C5.12845619,9.39977837 4.9862588,11.1247547 4.85899328,13.2389052 C4.79375247,14.3231955 4.76342928,15.4258559 4.73379525,16.4924564 C4.71955254,17.0129429 4.70508011,17.5336563 4.68670242,18.053916 C4.68486465,18.1051709 4.67268943,18.1625492 4.65844671,18.2289991 C4.65752783,18.2337617 4.65660895,18.2385243 4.65546034,18.2432869 C4.64489317,18.2491835 4.63432599,18.2548533 4.62375882,18.2607499 C4.55024805,18.3011188 4.48087227,18.3392198 4.41471257,18.3628061 C3.53648861,18.6719229 2.87672947,19.2640756 2.45404255,20.1227083 C2.30311576,20.4293304 2.12691963,20.7339114 1.95646654,21.0285136 C1.86641585,21.1845462 1.77636516,21.340352 1.68907112,21.4977453 C0.730215037,23.2240823 0.194275592,24.886691 0.0511593149,26.5803701 C-0.135833702,28.7895463 0.190370332,30.8758015 1.02012313,32.7813038 C1.07640481,32.9108018 1.14302394,33.080215 1.15726666,33.2430514 C1.29923433,34.8573534 1.44441809,36.5766599 1.62819502,38.8180405 C1.67161231,39.3512274 1.7127324,39.8844143 1.75362276,40.4176011 C1.81610692,41.2333702 1.88088828,42.0770347 1.95485849,42.9066381 C2.01527515,43.5861055 2.36881601,43.9299214 3.06693858,43.9888872 C3.17054282,43.9977321 3.2734579,44 3.37522437,44 C3.43495187,44 3.49444964,43.9993196 3.55302854,43.9984125 C3.61045883,43.9977321 3.66788911,43.9968249 3.72508968,43.9968249 L47.5175218,43.9968249 L47.6842994,43.9979589 C47.8439556,44.0002268 48.0086656,44.0018143 48.1742946,43.9888872 C48.7970686,43.9399002 49.1124758,43.6804507 49.2634026,43.0932875 C49.3217517,42.8667228 49.335535,42.6353954 49.3488588,42.4113254 L49.3575882,42.2750237 C49.3849251,41.8713348 49.4104241,41.4678727 49.4356934,41.063957 C49.4752055,40.4291675 49.5163255,39.772606 49.5664048,39.1285181 C49.6155651,38.4973573 49.6704684,37.8661965 49.7253718,37.2352625 C49.8257599,36.0786258 49.9295939,34.8823005 49.994605,33.7023042 C50.0357251,32.9532118 50.1482884,32.3354317 50.3490647,31.7582473 C51.0933612,29.6193764 51.1999519,27.3319572 50.6658502,24.9590375 C50.3081744,23.3696825 49.5707695,21.9377208 48.8271621,20.6273194 L48.8271621,20.6273194 Z" id="path-1"></path>
    </defs>
    <g id="Symbols" stroke="none" stroke-width="1" fill="none" fill-rule="evenodd">
        <g id="grey/underwear/bra">
            <g id="couleur-icone/gris-copy-5" transform="translate(4.000000, 4.000000)">
                <mask id="mask-2" fill="white">
                    <use xlink:href="#path-1"></use>
                </mask>
                <use id="Mask" fill="#828282" xlink:href="#path-1"></use>
                <g id="couleur-icone/gris-foncé" mask="url(#mask-2)" fill="#828282">
                    <g transform="translate(-4.000000, -4.000000)" id="Rectangle">
                        <rect x="0" y="0" width="59" height="52"></rect>
                    </g>
                </g>
            </g>
        </g>
    </g>
</svg>