<?xml version="1.0" encoding="UTF-8"?>
<svg width="59px" height="52px" viewBox="0 0 59 52" version="1.1" xmlns="http://www.w3.org/2000/svg" xmlns:xlink="http://www.w3.org/1999/xlink">
    <!-- Generator: Sketch 47.1 (45422) - http://www.bohemiancoding.com/sketch -->
    <title>grey/object/chair</title>
    <desc>Created with Sketch.</desc>
    <defs>
        <path d="M52.1232577,22.9703934 C50.5158143,23.125451 50.2353937,23.4288244 50.2349414,25.0270405 C50.2340368,28.9162876 50.2347152,32.80531 50.2347152,36.6945572 C50.2347152,38.9595206 49.8412218,39.3489622 47.5890372,39.3080629 C47.3891244,39.3044674 47.1892116,39.287838 46.8945438,39.2723323 C46.8945438,32.0882252 46.8579082,25.0335574 46.9144447,17.9797885 C46.9341193,15.503812 49.1098667,13.6224474 51.6696095,13.6408745 C54.0975093,13.6584027 56.1572439,15.5723519 56.2834332,17.9283273 C56.4234174,20.5359904 54.6131214,22.7301666 52.1232577,22.9703934 L52.1232577,22.9703934 Z M45.9736787,13.5685143 C44.7260331,14.6262763 44.2140393,16.2593241 44.190294,17.9456309 C44.1701671,19.3854186 44.1862234,20.8258805 44.1862234,22.391512 L14.8865655,22.391512 C14.8865655,21.1153212 14.8644032,19.8858724 14.8913146,18.6575471 C14.9440065,16.2350543 14.0557063,14.2386325 12.2352338,12.6325512 C12.0224307,12.4449091 11.7594233,12.1604122 11.755805,11.9172641 C11.7343211,10.5073642 11.6420537,9.07656533 11.8378959,7.68958703 C12.2607882,4.69180827 14.6251411,2.7520162 17.7800992,2.71201586 C20.8991002,2.67224023 24.0190057,2.70235285 27.138459,2.70212813 C31.6787854,2.70190341 36.2193379,2.69808315 40.7598905,2.70325174 C44.9433591,2.7081956 47.3174362,5.07832847 47.3210546,9.24038697 C47.3210546,9.41252329 47.3095211,9.5855585 47.3228637,9.75679593 C47.4368411,11.2226513 47.2774084,12.4635609 45.9736787,13.5685143 L45.9736787,13.5685143 Z M14.9431019,31.5994569 L44.1059417,31.5994569 L44.1059417,25.2272669 L14.9431019,25.2272669 L14.9431019,31.5994569 Z M14.9609674,39.2330061 L44.1075247,39.2330061 L44.1075247,34.4006047 L14.9609674,34.4006047 L14.9609674,39.2330061 Z M12.1427402,39.3085124 C11.5873265,39.3085124 11.1418195,39.3199732 10.6972171,39.3062652 C9.38308471,39.2655907 8.82179119,38.700642 8.81952973,37.3817541 C8.81229307,33.2862131 8.81726827,29.190672 8.81636369,25.0953557 C8.81613754,23.4175883 8.56850805,23.1459006 6.88892423,22.9692698 C4.43479152,22.7110654 2.65547746,20.5665524 2.76108749,17.9943953 C2.85629481,15.6806674 4.87125264,13.7091897 7.20982492,13.6419981 C9.7510237,13.568739 12.0739919,15.3244846 12.1070092,17.7089996 C12.206061,24.8611963 12.1427402,32.0156403 12.1427402,39.3085124 L12.1427402,39.3085124 Z M56.8596524,13.1109823 C54.994403,11.2444493 52.6757315,10.7006243 50.0056297,11.027144 C50.0056297,9.98848333 50.0397777,9.06375623 49.9999761,8.14217522 C49.8106921,3.77022726 46.225605,0.107049491 41.8322732,0.0614311185 C33.6159491,-0.023962879 25.3975897,-0.0167718056 17.1810394,0.0609816764 C13.2626135,0.098060649 9.86319195,3.11943511 9.22274744,6.95497393 C9.00429073,8.2626257 9.02577457,9.60982837 8.9357686,10.9662446 C8.61011885,10.9662446 8.30550064,10.9777054 8.00178702,10.9644468 C4.06594795,10.7914116 0.852191967,13.2561521 0.127621271,17.0071958 C-0.573430277,20.6355418 1.67287457,24.2499551 5.41354994,25.3854705 C6.04200873,25.5762587 6.12296887,25.8609803 6.12093356,26.3973894 C6.10646024,30.1183205 6.10804326,33.8394763 6.11527992,37.5606321 C6.12025513,40.1118901 7.89165408,41.9766254 10.457955,41.9815692 C23.1483449,42.0060638 35.8387348,42.0056144 48.5288985,41.983367 C51.1750289,41.9786479 52.9321807,40.141778 52.9364775,37.5199576 C52.9423572,33.9023982 52.9380605,30.2846141 52.9380605,26.6668299 L52.9380605,25.6054724 C57.1226598,24.4306308 59.3103929,21.4521781 58.96439,17.4889977 C58.81536,15.7824661 58.0684009,14.3206557 56.8596524,13.1109823 L56.8596524,13.1109823 Z" id="path-1"></path>
    </defs>
    <g id="Symbols" stroke="none" stroke-width="1" fill="none" fill-rule="evenodd">
        <g id="grey/object/chair">
            <g id="couleur-icone" transform="translate(0.000000, 5.000000)">
                <mask id="mask-2" fill="white">
                    <use xlink:href="#path-1"></use>
                </mask>
                <use id="Mask" fill="#828282" xlink:href="#path-1"></use>
                <g mask="url(#mask-2)" id="Rectangle" fill="#828282">
                    <g transform="translate(0.000000, -5.000000)">
                        <rect x="0" y="0" width="59" height="52"></rect>
                    </g>
                </g>
            </g>
        </g>
    </g>
</svg>