<?xml version="1.0" encoding="UTF-8"?>
<svg width="35px" height="24px" viewBox="0 0 35 24" version="1.1" xmlns="http://www.w3.org/2000/svg" xmlns:xlink="http://www.w3.org/1999/xlink">
    <!-- Generator: Sketch 47.1 (45422) - http://www.bohemiancoding.com/sketch -->
    <title>menu/open copy</title>
    <desc>Created with Sketch.</desc>
    <defs>
        <path d="M14.4021932,9.39276904 L2.81378764,0.338914313 C2.31373264,-0.0517714713 1.6189349,0.00195976008 1.26191345,0.458926377 C0.904891997,0.915892995 1.0208436,1.60305104 1.5208986,1.99373682 L12.6658958,10.701163 L1.0903374,19.4239719 C0.572073364,19.8145119 0.434851193,20.5065464 0.7838431,20.9696743 C1.13283501,21.4328022 1.83588485,21.4916464 2.35414889,21.1011064 L14.3790942,12.0396602 L25.9674998,21.0935149 C26.4675548,21.4842007 27.1623525,21.4304695 27.519374,20.9735029 C27.8763954,20.5165363 27.7604438,19.8293782 27.2603888,19.4386924 L16.1153916,10.7312663 L27.69095,2.00845732 C28.209214,1.61791736 28.3464362,0.92588282 27.9974443,0.462754917 C27.6484524,-0.000372985263 26.9454026,-0.0592171387 26.4271385,0.331322822 L14.4021932,9.39276904 Z" id="path-1"></path>
    </defs>
    <g id="Symbols" stroke="none" stroke-width="1" fill="none" fill-rule="evenodd">
        <g id="menu/open-copy">
            <g id="couleur-icone/gris" transform="translate(3.000000, 1.000000)">
                <mask id="mask-2" fill="white">
                    <use xlink:href="#path-1"></use>
                </mask>
                <use id="Mask" fill="#979797" fill-rule="nonzero" xlink:href="#path-1"></use>
                <g id="couleur-icone/gris-foncé" mask="url(#mask-2)" fill="#828282">
                    <g transform="translate(-16.000000, -17.000000)" id="Rectangle">
                        <rect x="0" y="0" width="59" height="52"></rect>
                    </g>
                </g>
            </g>
        </g>
    </g>
</svg>