<?xml version="1.0" encoding="UTF-8"?>
<svg width="65px" height="40px" viewBox="0 0 65 40" version="1.1" xmlns="http://www.w3.org/2000/svg" xmlns:xlink="http://www.w3.org/1999/xlink">
    <!-- Generator: Sketch 48.1 (47250) - http://www.bohemiancoding.com/sketch -->
    <title>paper</title>
    <desc>Created with Sketch.</desc>
    <defs>
        <path d="M43.4260132,31.5474216 C44.1459343,28.9719406 44.7914628,26.6632547 45.4458579,24.321869 C34.7058633,18.851273 24.0486954,13.4231216 13.3915274,7.99475359 C13.5967557,8.38238589 13.8947585,8.60998451 14.2072505,8.81549459 C21.9719749,13.919031 29.6876088,19.1000939 37.5325647,24.0767295 C40.1577141,25.7420325 42.3021231,27.568885 43.0488601,30.6937643 C43.0977343,30.8984082 43.2188385,31.0855111 43.4260132,31.5474216 Z M63.0105056,13.4729291 C43.9041584,9.79496993 25.0774321,6.17071628 6.25070582,2.54667919 C6.40057225,2.88710263 6.61185579,3.00815651 6.82832952,3.11838268 C19.7516595,9.70098534 32.6734757,16.2866198 45.6106461,22.8419366 C45.9393574,23.0086834 46.5104934,22.9800982 46.8437462,22.8046892 C48.2444458,22.0675382 49.5971362,21.2390013 50.9682086,20.445113 C54.889389,18.1745406 58.8110019,15.9041848 63.0105056,13.4729291 Z M22.3900006,36.9803372 C28.1361777,33.660992 33.7526004,30.4165747 39.5227821,27.0833701 C27.2923411,19.0459553 15.2403125,11.125913 3.18850009,3.20608719 C3.13854462,3.26650586 3.0888054,3.32692452 3.03906618,3.38755974 C9.46537307,14.5433572 15.8914637,25.6991547 22.3900006,36.9803372 Z M0.865029868,0 C3.24883593,0.500024 5.62658677,1.03253115 8.01752933,1.49509125 C22.1438996,4.22844029 36.2728649,6.94663053 50.401614,9.66720286 C55.0645575,10.5652538 59.7311774,11.4455472 64.3895795,12.3667694 C64.7967923,12.4473276 65.1553472,12.7743247 65.5366091,12.9867645 C65.2543931,13.34906 65.0470022,13.8391225 64.678932,14.0548106 C59.0279081,17.3654935 53.347257,20.6259359 47.7035859,23.9498286 C47.214844,24.2378459 46.7624334,24.8344532 46.5946176,25.3806032 C45.7905723,27.9950639 45.0942233,30.6426575 44.3520276,33.2761749 C44.0064482,34.5020891 43.673628,34.6066849 42.6360246,33.8166946 C41.1453619,32.6819498 39.6391287,31.5653956 38.1867435,30.3832254 C37.6517225,29.947518 37.2648379,29.9399386 36.679429,30.2825276 C32.2065758,32.9004531 27.7129619,35.4822141 23.2260519,38.0761022 C21.9412663,38.8188836 21.8839581,38.8126035 21.1543054,37.5477096 C14.1010681,25.3214839 7.05107471,13.0935258 0,0.866217411 C0,0.577333904 0,0.288666952 0,0 L0.865029868,0 Z" id="path-1"></path>
    </defs>
    <g id="Symbols" stroke="none" stroke-width="1" fill="none" fill-rule="evenodd">
        <g id="paper">
            <mask id="mask-2" fill="white">
                <use xlink:href="#path-1"></use>
            </mask>
            <use id="Mask" fill="#9C9999" transform="translate(32.768305, 19.289144) scale(-1, 1) translate(-32.768305, -19.289144) " xlink:href="#path-1"></use>
        </g>
    </g>
</svg>