<?xml version="1.0" encoding="UTF-8"?>
<svg width="59px" height="52px" viewBox="0 0 59 52" version="1.1" xmlns="http://www.w3.org/2000/svg" xmlns:xlink="http://www.w3.org/1999/xlink">
    <!-- Generator: Sketch 47.1 (45422) - http://www.bohemiancoding.com/sketch -->
    <title>grey/food/pie</title>
    <desc>Created with Sketch.</desc>
    <defs>
        <path d="M56.2255524,19.9909929 C55.8662722,20.7577071 55.7703111,21.6285643 55.4601594,22.4199214 C55.2466574,22.9644214 54.9957353,23.6276357 54.5315407,23.9287071 C53.4341866,24.6405643 52.5287547,25.4244214 51.9151088,26.5612071 C51.6832411,26.99085 51.0716613,27.36735 50.5516808,27.5111357 C49.2339376,27.8756357 48.111101,28.4190643 47.1648053,29.3925643 C46.7733851,29.7956357 46.0107469,30.0487071 45.4042177,30.0712071 C44.1176963,30.1189929 43.0292956,30.4929214 41.9537508,31.1299929 C41.3749998,31.47285 40.5978987,31.6935643 39.9169882,31.67985 C38.5797314,31.65285 37.3588676,31.8217071 36.1478753,32.39835 C35.615957,32.65185 34.8434473,32.6887071 34.2479376,32.5564929 C32.9967703,32.2789929 31.8466146,32.3717786 30.6291944,32.7322071 C29.9560893,32.9314929 29.1059843,32.9392071 28.4347158,32.7409929 C27.2191321,32.38185 26.0749454,32.2427786 24.8171205,32.54685 C24.2232177,32.6904214 23.4254551,32.6809929 22.9119026,32.4165643 C21.7080271,31.7964214 20.4818831,31.57035 19.151743,31.72035 C18.2988831,31.8165643 17.6367975,31.5052071 16.892066,31.13235 C15.9058248,30.6386357 14.7476341,30.4487786 13.6732372,30.1016357 C13.0350271,29.8954929 12.2462177,29.78835 11.8231166,29.3724214 C10.9089609,28.4737071 9.86877028,27.87435 8.60819051,27.5957786 C7.79389868,27.4159929 7.3168481,26.9509929 6.83405822,26.3321357 C6.20640841,25.5277071 5.44583643,24.7719214 4.59986366,24.1699929 C3.86661074,23.6479929 3.46003876,23.1129214 3.34892592,22.2497786 C3.25043954,21.4852071 2.97977417,20.71935 2.65332281,20.0066357 C2.24147067,19.1079214 2.1305874,18.3232071 2.67995316,17.3981357 C3.1278481,16.6440643 3.44442787,15.7470643 3.51398818,14.89185 C3.59755238,13.8645643 4.18778195,13.4057786 4.90312825,13.0811357 C4.72038895,14.4915643 4.33585588,15.94635 4.38590257,17.38785 C4.49357183,20.4806357 6.30443565,22.8367071 8.69221386,24.8040643 C12.2863928,27.7652786 16.6627236,29.2254214 21.2619687,30.0705643 C28.5132294,31.4029929 35.696996,31.1019214 42.6952683,28.7394214 C46.5660816,27.4327071 50.0369804,25.5315643 52.4894979,22.3271357 C54.5349843,19.6545643 54.9815018,16.7424214 53.832494,13.62735 C53.757424,13.4237786 53.6995718,13.21485 53.6114162,12.9386357 C54.7728209,13.32585 55.1777858,14.0014929 55.2992294,15.05085 C55.4091944,16.0012071 55.8270154,16.9427786 56.2436886,17.8335643 C56.5992956,18.59385 56.5804707,19.2337071 56.2255524,19.9909929 M29.85921,37.0382786 C20.074852,37.0382786 13.5988559,33.0251357 12.1376302,32.0257071 C12.0207781,31.9616357 11.9124201,31.88985 11.8231166,31.8022071 C11.8231166,31.8022071 11.9298676,31.8834214 12.1376302,32.0257071 C12.5751944,32.2652786 13.1697858,32.3685643 13.6732372,32.5314214 C14.7476341,32.8785643 15.9058248,33.0684214 16.892066,33.5621357 C17.6367975,33.9347786 18.2988831,34.2461357 19.151743,34.1501357 C20.4818831,34.0001357 21.7080271,34.2262071 22.9119026,34.8461357 C23.4254551,35.1105643 24.2232177,35.1202071 24.8171205,34.9766357 C26.0749454,34.67235 27.2191321,34.8116357 28.4347158,35.1707786 C29.1059843,35.3689929 29.9560893,35.3610643 30.6291944,35.1619929 C31.8466146,34.8015643 32.9967703,34.7085643 34.2479376,34.9862786 C34.8434473,35.1182786 35.615957,35.0814214 36.1478753,34.8281357 C37.3588676,34.2512786 38.5797314,34.0826357 39.9169882,34.1094214 C40.5978987,34.1231357 41.3749998,33.9026357 41.9537508,33.5597786 C43.0292956,32.9224929 44.1176963,32.5487786 45.4042177,32.5009929 C46.0107469,32.4784929 46.7733851,32.2252071 47.1648053,31.82235 C47.1648053,31.82235 40.1598753,37.0382786 29.85921,37.0382786 M7.49843954,13.3894929 C9.62381697,9.34142143 13.1461399,6.56706429 17.4212294,4.72120714 C27.9432022,0.17835 37.8485446,1.43449286 46.9304123,8.03792143 C48.5539454,9.21842143 49.9185213,10.8622071 50.9869493,12.52485 C53.5037469,16.4409214 52.5057975,20.4684214 48.6152411,23.2669929 C44.7765679,26.0284929 40.3683267,27.4886357 35.6340932,28.1415643 C33.6175329,28.4197071 31.5708987,28.50885 30.5247391,28.5990643 C23.927529,28.5412071 18.4956263,27.72135 13.5350349,25.1737071 C11.8926769,24.3302786 10.3423773,23.2252071 8.99984032,22.0007786 C6.37101152,19.60335 5.87903876,16.4741357 7.49843954,13.3894929 M58.467782,16.7415643 C58.1103384,16.0515643 57.9106107,15.2636357 57.7907742,14.4992786 C57.5951788,13.2532071 57.0366302,12.2981357 55.9046107,11.56185 C55.238852,11.1287786 54.5974279,10.5491357 54.1965952,9.90006429 C53.4805602,8.73992143 52.5207197,7.99206429 51.1510932,7.64192143 C50.6152722,7.50499286 50.0539687,7.34899286 49.59735,7.06913571 C48.4614279,6.37270714 47.396673,5.57599286 46.2717703,4.86263571 C41.2393228,1.67063571 35.6802372,0.0512785714 29.5894629,0.0446357143 C29.5727041,-0.0427928571 24.0420855,0.508992857 21.3659648,1.14027857 C17.2221905,2.11763571 13.6300777,4.18956429 10.2285096,6.56149286 C9.57285199,7.01877857 8.85130724,7.47649286 8.08247067,7.68992143 C6.85724499,8.02999286 6.00851736,8.67885 5.27136172,9.62727857 C4.64830335,10.4287071 3.87808934,11.1566357 3.06264966,11.7945643 C2.18132281,12.48435 1.62277417,13.2476357 1.42901541,14.33085 C1.25844343,15.2844214 0.962525142,16.2487071 0.525879227,17.1229929 C-0.045984586,18.2679214 -0.0278483992,19.2862071 0.5736302,20.4124929 C0.986859772,21.18585 1.29058351,22.05435 1.4111088,22.9089214 C1.59132281,24.1875643 2.21277417,25.0789929 3.3450232,25.7974929 C4.01376639,26.2219929 4.63292203,26.8097786 5.05992592,27.4489929 C5.742673,28.4711357 6.52482475,29.2695643 7.81318273,29.5980643 C8.13848623,29.6809929 8.50511269,29.9529214 8.66145121,30.2314929 C10.0944395,32.7870643 12.3219765,34.59735 15.0339104,35.8072071 C24.2232177,39.90735 33.5789648,40.0155643 42.9397625,36.3791357 C46.1702995,35.1240643 48.9410037,33.2021357 50.5822139,30.1459929 C50.7243189,29.88135 51.1414512,29.6790643 51.475708,29.5826357 C52.5468909,29.2740643 53.2567275,28.61535 53.902743,27.7884214 C54.5092722,27.0116357 55.2074006,26.2597071 56.0067703,25.6616357 C56.8855718,25.0042071 57.4193267,24.2589214 57.6371905,23.2324929 C57.8399026,22.2784929 58.0648831,21.2996357 58.4944123,20.4232071 C59.1172411,19.1524929 59.1170115,17.9951357 58.467782,16.7415643 M25.0463446,6.36690121 C26.7526214,7.16698289 26.7573133,7.1765955 26.3544827,9.06714894 C26.2695822,9.46573672 26.1248045,9.85672383 25.9643872,10.2325096 C25.6703633,10.9214875 25.6741615,11.5476481 26.4335742,11.8773828 C27.2463849,12.2303665 27.7971211,11.7814803 28.0102661,11.0388507 C28.3007152,10.0257268 28.4454929,8.97169354 28.6981836,7.94649807 C28.7761581,7.62972921 28.9361285,7.17950163 29.1747436,7.08583463 C29.7864741,6.84529596 30.463444,6.77040706 31.0425548,6.64477255 C31.3363553,8.14590373 31.583237,9.55649759 31.8969221,10.9523372 C32.0702979,11.7233575 32.5962342,12.1843155 33.4110557,11.9223161 C34.242187,11.654728 34.2359312,11.0247671 34.039096,10.2517348 C33.73122,9.04166436 33.5641,7.79582608 33.3040363,6.38411448 C33.9722927,6.4864999 34.3409397,6.55356458 34.7124911,6.59760373 C35.4113564,6.68054038 35.9549431,6.47196922 36.0863154,5.70899666 C36.2053996,5.01823041 35.8575309,4.66368178 35.1924024,4.44281542 C33.5886765,3.91054538 32.0131017,4.08401936 30.4364099,4.5002675 C28.9276385,4.89840818 27.4660091,4.87314715 26.02985,4.18841672 C25.274012,3.82805582 24.6459717,3.9595026 24.2554293,4.80138793 C23.8456726,5.68574757 24.3586505,6.04454363 25.0463446,6.36690121 M43.2355273,21.9060205 C44.3450239,21.6315313 45.0974877,20.9126498 45.1094127,20.1233206 C45.0967723,20.0031453 45.0946258,19.8811939 45.0679139,19.7631892 C44.8546959,18.8274396 42.4444267,16.9521909 41.3163272,17.000932 C40.8774893,17.0198759 40.0801877,17.5347158 40.1102386,17.7646079 C40.2626393,18.936959 40.4832507,20.1361472 40.9800438,21.2331174 C41.2986783,21.9370016 42.2784315,22.1428192 43.2355273,21.9060205 M29.9162557,20.4811279 C29.5546232,19.8640924 28.6662014,19.8281735 28.2995578,20.445209 C27.7934393,21.2971836 27.3328381,22.218247 27.14367,23.1548875 C26.9225563,24.249498 27.7974064,24.9803378 29.0297131,24.9995801 C30.456199,25.0217545 31.3723904,24.1635491 31.0418683,22.9481705 C30.8094797,22.0941802 30.3768569,21.267129 29.9162557,20.4811279 M15.7785883,21.8758729 C16.7866617,22.190751 17.8008137,21.9065735 18.2486843,21.0231438 C18.6506007,20.2300447 18.8312564,19.3635396 19.1094127,18.5293096 C18.9742248,17.4449482 18.4067276,16.7886243 17.6016791,17.0619778 C16.074494,17.5803458 14.7077838,18.3236548 14.1988842,19.7199422 C13.8618871,20.6441093 14.4960057,21.4751906 15.7785883,21.8758729 M46.7378652,13.7941349 C47.7887319,14.4207712 49.0719996,13.5441724 49.1094127,12.1466741 C49.027104,11.9780142 48.9289497,11.5658787 48.6752012,11.2942931 C47.7198479,10.2715224 46.4095107,10.0382096 45.0947719,10.0003693 C44.329785,9.97853 43.813925,10.930377 44.2969936,11.5206865 C44.9966177,12.3758785 45.7974771,13.2332328 46.7378652,13.7941349 M11.7816623,13.998803 C12.9977949,14.0061949 15.0695334,12.2080126 15.1084459,11.1385822 C15.1344657,10.421353 14.6325884,9.88913798 13.9248967,10.0198002 C12.8604291,10.2161197 11.7896323,10.5657119 10.8393236,11.0494449 C10.1560109,11.3970804 9.9239424,12.1308327 10.2650127,12.8956744 C10.5641232,13.5665957 11.0200557,14.0266312 11.7816623,13.998803" id="path-1"></path>
    </defs>
    <g id="Symbols" stroke="none" stroke-width="1" fill="none" fill-rule="evenodd">
        <g id="grey/food/pie">
            <g id="couleur-icone/gris" transform="translate(0.000000, 5.000000)">
                <mask id="mask-2" fill="white">
                    <use xlink:href="#path-1"></use>
                </mask>
                <use id="Mask" fill="#828282" xlink:href="#path-1"></use>
                <g id="couleur-icone/gris-foncé" mask="url(#mask-2)" fill="#828282">
                    <g transform="translate(-1.715045, -10.659178)" id="Rectangle">
                        <rect x="0" y="0" width="67" height="67"></rect>
                    </g>
                </g>
            </g>
        </g>
    </g>
</svg>