<?xml version="1.0" encoding="UTF-8"?>
<svg width="59px" height="52px" viewBox="0 0 59 52" version="1.1" xmlns="http://www.w3.org/2000/svg" xmlns:xlink="http://www.w3.org/1999/xlink">
    <!-- Generator: Sketch 47.1 (45422) - http://www.bohemiancoding.com/sketch -->
    <title>grey/food/pizza</title>
    <desc>Created with Sketch.</desc>
    <defs>
        <path d="M54.7577759,34.9540299 C54.3544936,35.1506176 53.9085216,35.2666366 53.4720866,35.3805838 C53.1089963,35.4754247 52.7125262,35.229575 52.6750591,34.8564266 C52.6244217,34.351836 52.7098013,33.8352753 52.467287,33.3511722 C52.4309553,33.2784302 52.5383609,33.1007185 52.6178366,33.0042662 C53.3730826,32.0864731 54.8506489,31.7303593 55.8761122,32.209398 C56.0868362,32.3076919 56.2110453,32.5590664 56.2164951,32.8972249 C56.1701721,33.8191615 55.6756064,34.5067582 54.7577759,34.9540299 M51.6241636,29.6940418 C51.3332827,27.794461 50.4161334,26.0960719 49.9392794,24.2570327 C49.170409,23.0754345 48.7151269,21.7276345 47.9728241,20.5223261 C47.4548698,19.6811884 46.9062606,18.8589268 46.3910312,18.0157174 C46.1657744,17.6469427 45.9348408,17.2717225 45.6482742,16.9529005 C44.6296232,15.8194134 43.6597929,14.6244638 42.5326007,13.6115996 C41.1535843,12.3724523 39.6378696,11.3029597 38.0208803,10.3672113 C36.1845381,9.30439448 34.2809822,8.44714303 32.2661603,7.82146918 C31.741848,7.65872032 31.2325224,7.43980353 30.7013979,7.30859157 C30.1589196,7.17461726 29.5826075,7.10394696 29.0614741,6.95754204 C28.2435559,6.72780602 27.3581969,6.78995905 26.5920514,6.36593726 C26.5652568,6.35097449 26.5232482,6.36616745 26.488733,6.36363529 C25.5422913,6.29342539 24.5951683,6.23265353 23.6500891,6.14840165 C23.0851306,6.09798863 22.5249406,5.98657357 21.959755,5.94744018 C21.4218182,5.91014836 21.4726827,5.9393833 21.5131017,5.34501616 C21.560333,4.65419673 21.7206468,4.06995823 22.1173439,3.46638323 C22.4472815,2.96432485 22.8010618,2.79720226 23.3087978,2.76612574 C23.6210237,2.74701944 23.9352932,2.7626728 24.3381213,2.7626728 C25.2784321,2.63215143 26.2664282,3.11395252 27.29666,2.9744535 C28.6248121,3.35059444 30.0036015,3.46500205 31.3492381,3.77369544 C32.3383697,4.00066911 33.3059292,4.27184048 34.2753054,4.56004639 C36.2951228,5.16085903 38.2257005,5.96884844 40.0733963,6.99391307 C41.223977,7.63224773 42.3064357,8.3661139 43.390938,9.11287106 C45.2023022,10.3600752 46.6328643,12.0055192 48.1381335,13.5674019 C49.1052389,14.5710582 49.8127995,15.8044506 50.5900716,16.9724672 C51.2122526,17.907525 51.7047747,18.9063473 52.2513402,19.8793875 C52.6682469,20.6213106 52.9722981,21.4134164 53.3208557,22.185265 C53.6821294,22.9858881 54.0202416,23.7987117 54.3295156,24.6214336 C54.6278899,25.4146905 54.9244477,26.226363 55.1240452,27.0338921 C55.3054768,27.7682186 55.581598,28.4834389 55.7101215,29.2366415 C55.7450908,29.4412861 55.7278333,29.4599321 55.5766024,29.4509544 C55.4476247,29.4435881 55.321372,29.3945563 55.1926214,29.371997 C54.9319412,29.3261879 54.6376541,29.1864587 54.4151222,29.2619631 C53.7105136,29.5006768 52.9318791,29.4864046 52.2856283,29.9322951 C51.9908871,30.1355585 51.6720761,30.0080297 51.6241636,29.6940418 M34.1822053,11.4037858 C39.4741498,13.7428115 41.7734945,16.6129004 41.855468,16.6936994 C42.5591683,17.3875113 43.1858908,18.1409442 43.7558449,18.9397258 C43.1581878,19.5336325 41.7451104,20.1899225 39.6685246,20.438995 C37.2156782,20.733186 33.6792378,20.3952577 31.7843107,18.4742686 C30.8408209,17.5178025 30.5149706,16.4929681 30.788594,15.3410652 C31.1757541,13.7108142 32.7400624,12.1256817 34.1822053,11.4037858 M49.9765194,35.5914437 C49.6888174,35.7730687 49.3752291,35.8455806 49.0225842,35.8172664 C47.9296802,35.728871 46.8660686,36.1701575 45.7670336,36.0226016 C45.2027563,36.3863119 44.542427,36.0824527 43.9817829,36.2613153 C43.3748158,36.4549105 42.7826085,36.4116336 42.1801829,36.4528387 C41.8411624,36.4758584 41.7580535,36.3338272 41.7943853,36.0304283 C41.8111887,35.8911595 41.8080097,35.7472867 41.7950665,35.6073273 C41.7684989,35.3267179 41.8130053,35.2010306 42.1615629,35.1586745 C43.3225889,35.0175641 44.4777111,34.839392 45.6425974,34.716237 C46.2602369,34.6508612 47.0291073,34.6285321 47.3199882,33.73537 C47.5863453,32.9179426 47.1108537,31.9810432 46.269774,32.0068252 C45.2181973,32.0388225 44.1511796,32.046419 43.1250351,32.2455389 C42.5532644,32.3567237 41.9973889,32.3878002 41.4292513,32.4255525 C40.9664758,32.4563988 40.5350365,32.6400955 40.0543222,32.6619642 C39.4830056,32.6877462 39.0876709,33.3127294 39.0840377,33.9876653 C39.0740465,35.8230213 39.0806316,37.6583773 39.0806316,39.4939635 C39.0806316,41.3293195 39.0865356,43.1649057 39.0779068,45.0002617 C39.0740465,45.8411692 38.0810547,46.5243922 37.3271712,46.1756446 C37.060133,46.0522594 36.8494089,45.7684272 36.6613921,45.5202754 C36.5728335,45.4033357 36.5766938,45.1975401 36.5762396,45.0317987 C36.571017,43.019882 36.5623882,41.0077351 36.5823706,38.9960487 C36.5862309,38.6146132 36.4858644,38.3503477 36.2197345,38.0791764 C35.9533774,37.8077748 35.6947409,37.6979711 35.3164367,37.707179 C34.3849818,37.729508 34.3933835,37.7115527 34.0602669,38.6631847 C33.9530883,38.9693459 33.7421371,39.2423589 33.6628885,39.5524334 C33.6088451,39.7632933 33.5184699,39.7706596 33.35475,39.8514586 C32.401269,40.3222102 31.9518908,40.1076672 31.5302156,39.1099959 C31.3846616,38.7658523 31.389203,38.3261771 30.9847854,38.0513226 C30.6855027,37.8480592 30.4443508,37.6903746 30.070361,37.7087903 C29.3705209,37.7430896 28.8466627,38.2218981 28.8430295,38.9168611 C28.8359903,40.2934357 28.8428025,41.6700102 28.8396234,43.0465848 C28.8387152,43.3835923 28.7217724,43.7143846 28.6786284,44.0244591 C28.6107335,44.5120152 28.3634506,44.6892664 28.014666,44.7877905 C27.6642918,44.8867749 27.2821273,44.9265989 26.91881,44.9058812 C26.618619,44.8888467 26.3350044,44.3619271 26.3345502,43.9319202 C26.3318253,41.4964421 26.3393188,39.0609641 26.3254673,36.625486 C26.3238778,36.3317554 26.3227424,36.0474628 26.2005769,35.7291012 C26.0345863,35.2961017 25.8967528,34.9735966 25.4657676,34.7325809 C25.0020838,34.4733798 24.559972,34.5359932 24.0976506,34.5887082 C23.9768476,34.6025199 23.8683065,34.7335017 23.7477306,34.7452417 C22.9073321,34.827652 22.0639817,34.8810576 21.2240374,34.9685322 C20.8321087,35.009277 20.4456299,35.1052689 20.0566533,35.1750184 C19.6674495,35.2447679 19.2303333,35.0118092 18.8822299,35.379663 C18.8320467,35.4326082 18.6803617,35.3803536 18.5763621,35.3881803 C17.6651167,35.4567788 16.752736,35.5163997 15.8430801,35.6043347 C15.4511515,35.6423171 15.0978254,35.8704418 14.6745607,35.8214099 C14.3144223,35.7799746 13.9286247,35.7396902 13.6091325,36.0177675 C13.5691676,36.0527573 13.4735697,36.0177675 13.4043123,36.0232922 C12.5278092,36.0928115 11.6317777,36.0741656 10.7820692,36.265689 C10.2100715,36.394599 9.62603881,36.3243891 9.09400594,36.4756282 C8.52223524,36.638377 7.94864795,36.5594197 7.40071995,36.6772802 C6.3845667,36.8955064 5.35978466,36.9891964 4.33159652,37.0787428 C4.23486327,37.08726 4.13449685,37.0534212 4.03571994,37.0393792 C4.09248828,36.9394739 4.14834833,36.8391083 4.20602496,36.7398936 C4.68560388,35.917632 5.15791645,35.0907665 5.64657831,34.2742599 C6.44088089,32.9476379 7.25857204,31.6352882 8.0419751,30.3019905 C8.60557116,29.3427621 9.12102767,28.3542987 9.67327006,27.3879341 C10.1787353,26.5039799 10.7046372,25.6322261 11.2216833,24.7551778 C11.5221013,24.2457531 11.8316023,23.7418531 12.1208937,23.2262132 C12.1560901,23.1635998 12.2457841,23.0093682 12.3749888,22.7893004 C13.2181122,23.0142023 14.1229995,23.1327534 15.0319741,23.1327534 C17.5851869,23.1327534 20.1647402,22.2048317 21.4583771,20.1286902 C22.0360517,19.2019195 23.2795053,16.8030426 22.352819,14.5510311 C21.8130656,13.239372 20.6761094,12.2967177 18.9712426,11.7378008 C19.2662109,11.2557695 19.5586814,10.7721268 19.8457021,10.2854916 C20.0936662,9.86492274 20.2696481,9.40015618 20.5273763,8.98695362 C20.6182057,8.84123929 20.8641261,8.69437398 21.0237587,8.71025753 C21.8648384,8.79289805 22.7361188,8.46049442 23.5542641,8.89809781 C23.6630322,8.9563375 23.8292499,8.89671663 23.9677647,8.90776606 C24.8095256,8.97521361 25.671269,8.95564691 26.4873706,9.14141542 C27.4787728,9.3672381 28.4897034,9.49200455 29.4708874,9.75442847 C30.2842641,9.97173388 31.0529074,10.208606 31.7784068,10.4592899 C30.3864471,11.5545644 29.1650196,13.1272663 28.7569687,14.8452222 C28.4465595,16.1527378 28.4633629,18.1034222 30.3067444,19.9723869 C32.2638896,21.95668 35.3373274,22.6521033 38.0581203,22.6521033 C38.7030087,22.6521033 39.3283687,22.6129699 39.9139908,22.54276 C42.0568821,22.2856306 43.8319145,21.6249669 44.9304953,20.7099362 C47.3247568,24.061596 49.1199987,30.9407856 49.3368538,31.5054574 C49.6231932,32.2512938 49.6365906,33.0528377 49.9158908,33.8023572 C50.0843792,34.254463 49.8775154,34.8184442 50.1443266,35.2977131 C50.1736191,35.3501979 50.0639426,35.5364268 49.9765194,35.5914437 M23.622159,38.25919 C23.6142115,38.4758048 23.5613034,38.5517696 23.3358195,38.5734081 C22.9096029,38.6141528 22.4883818,38.706922 22.0646629,38.7762111 C21.6681928,38.8411265 21.2760372,38.7257981 20.8582222,38.8871658 C20.4637958,39.0390954 19.95061,38.8678293 19.5498255,39.0114718 C18.9828234,39.2147353 18.3942492,39.0793798 17.8619893,39.2292377 C17.2908998,39.3899148 16.7023257,39.287017 16.1755155,39.4440109 C15.6014741,39.6150468 15.0153978,39.4969561 14.4872251,39.6546406 C13.9488342,39.8155479 13.4027228,39.7223184 12.9022531,39.862508 C12.3329802,40.0220341 11.753489,39.9412352 11.2135086,40.0747491 C10.645144,40.2153991 10.0572511,40.1410456 9.52817019,40.2920545 C8.95594534,40.455494 8.3385329,40.2987302 7.84987104,40.5148846 C7.29399548,40.7607344 6.75287968,40.5328399 6.25263708,40.698121 C5.35070173,40.9962253 4.40312463,40.8873424 3.68557283,41.1069498 C3.35926843,41.1069498 3.21939124,41.0975117 3.08110357,41.1090216 C2.83722679,41.129509 2.67645886,41.0832396 2.7152884,40.7761576 C2.73731451,40.6025895 2.70211815,40.4211947 2.72732329,40.2487776 C2.73822281,40.1748845 2.82996044,40.0662318 2.8976283,40.0554126 C3.42330311,39.9709305 3.95283817,39.91177 4.47964835,39.8341938 C4.90427552,39.7718106 5.32731317,39.6976874 5.75012375,39.6231037 C6.17293434,39.5482899 6.6495613,39.820382 7.02559478,39.4168477 C7.05829334,39.3816277 7.16024927,39.4168477 7.22927957,39.411323 C8.10510149,39.3418037 8.98115049,39.2755071 9.85651826,39.1981611 C10.2502635,39.1634015 10.5974586,38.9214651 11.0241294,38.9760216 C11.3810887,39.0213703 11.7709737,39.0697115 12.0884222,38.7812754 C12.1270247,38.7462856 12.223758,38.7812754 12.2927883,38.7759809 C13.2035795,38.7062314 14.1130083,38.615534 15.0249348,38.5738685 C15.4298066,38.5552226 15.7533861,38.2695488 16.1934543,38.3310112 C16.5342914,38.3788921 16.9552854,38.5202327 17.25752,38.1457031 C17.2854501,38.1111737 17.3914933,38.1457031 17.4607507,38.1404086 C18.3365726,38.0708893 19.2121675,37.9986076 20.0879894,37.9297789 C20.4840053,37.8987024 20.8259778,37.6447957 21.2558276,37.7032656 C21.6102891,37.7513767 21.9847331,37.7895893 22.3282951,37.5221011 C22.4595435,37.4198938 22.7331669,37.5050665 22.9418473,37.5055269 C23.659172,37.5073685 23.6503161,37.5071383 23.622159,38.25919 M17.8247493,13.6067654 C19.2128487,13.9568942 20.0873082,14.5482688 20.424285,15.3668472 C20.8053141,16.2926972 20.5314636,17.6499353 19.6917464,18.9972749 C18.8847277,20.2918995 16.4041784,21.4907624 13.4942334,20.8931725 C14.9127606,18.4972883 17.0156869,14.9593996 17.8247493,13.6067654 M58.5151587,29.6562896 C58.37074,28.6061336 58.008558,27.61744 57.7056422,26.6094099 C57.3293816,25.3571414 56.9258723,24.1216772 56.4490182,22.9016362 C55.9985047,21.7483522 55.5427685,20.5987513 55.0323076,19.4730909 C54.5438728,18.3960018 53.8660588,17.4188181 53.3147247,16.3797114 C52.3142395,14.4953236 50.9888124,12.8618499 49.6261452,11.2723436 C48.3515825,9.78573518 46.9037628,8.45704148 45.3310527,7.26600523 C44.1162103,6.34591017 42.8663986,5.4840548 41.5407443,4.76307963 C40.4108273,4.1486854 39.2863601,3.49722955 38.0517623,3.0833364 C37.3208132,2.83817722 36.642318,2.41898955 35.9031942,2.21641671 C35.1509002,2.01016072 34.4315318,1.67614572 33.6844605,1.51915177 C32.2055318,1.20815641 30.7438606,0.807614655 29.2365477,0.610796721 C28.6729516,0.537133869 28.0655304,0.578339027 27.5580214,0.391879932 C27.1115952,0.227749889 26.6985488,0.276781725 26.2727863,0.217851443 C25.8474779,0.158921161 25.426711,0.0355358834 25.0009484,0.0180409559 C24.2014232,-0.0146469348 23.3998542,0.00607074243 22.5991936,0.0111350635 C22.467491,0.0118256528 22.3214829,0.0141276169 22.2061296,0.0684539705 C21.1125443,0.585014723 20.24467,1.32095266 19.6281658,2.41829896 C18.8999416,3.71453497 18.7625622,5.12632957 18.6170082,6.54410928 C18.5738643,6.96329695 18.4741791,7.3260865 18.2548262,7.66723758 C18.1113158,7.89029791 17.9500938,8.10207861 17.8143039,8.32974286 C17.2931706,9.20402884 16.780666,10.0836093 16.2618034,10.9592765 C15.5249504,12.2030277 14.7735646,13.4380315 14.0505631,14.6898396 C13.2973608,15.9943626 12.5902543,17.3265093 11.8270608,18.6248171 C11.0427495,19.9585751 10.2039405,21.2591848 9.41077327,22.5878785 C8.94118558,23.3742295 8.5319994,24.1978722 8.06286585,24.9846836 C7.27060692,26.3136075 6.44178919,27.6199721 5.64884904,28.9486658 C5.17948842,29.735247 4.76689614,30.5570482 4.29798967,31.3440897 C3.50595781,32.6730136 2.68190862,33.9821406 1.88624359,35.3087625 C1.39735466,36.123888 0.950247231,36.9650257 0.45704391,37.7771587 C0.192049308,38.2133809 -0.00550450888,38.6539768 0.00108061834,39.1756019 C0.00789281891,39.7048234 0.00267013181,40.2342752 0.00267013181,40.7637269 C0.00267013181,41.3636188 0.0106176991,41.9637409 0.00017232493,42.5634025 C-0.00891060917,43.0965374 0.342826014,43.4107555 0.638248445,43.7829831 C0.907330368,44.1220624 1.24408015,44.0177835 1.56902212,44.0833894 C2.10037376,44.1904308 2.54475631,43.8269506 3.05112989,43.8628613 C3.56090956,43.8987719 4.04048848,43.7721639 4.53528132,43.6694963 C5.05210027,43.5619946 5.58572265,43.6315139 6.12456771,43.4678442 C6.65205911,43.3076275 7.2392708,43.4296316 7.81376638,43.2574447 C8.34034949,43.09953 8.92960484,43.2044995 9.50114846,43.0426714 C10.0334084,42.892123 10.6181223,42.9924886 11.1903471,42.8318115 C11.72238,42.6821839 12.307321,42.7751832 12.8788646,42.6198006 C13.412714,42.4745467 13.9978821,42.5638629 14.5667008,42.4036462 C15.0680788,42.262766 15.6141902,42.3617505 16.1532623,42.1969298 C16.6802996,42.0360225 17.2663759,42.1356976 17.8410986,41.9865303 C18.6149645,41.785799 19.4462801,41.8120414 20.2530717,41.7436731 C20.3566171,41.7349256 20.5010358,41.7876406 20.5598478,41.7351558 C20.9822042,41.3576337 21.4856259,41.6147631 21.9413621,41.5282092 C22.3977795,41.441195 22.8319438,41.2471394 23.3183349,41.3092924 C23.5283777,41.3362254 23.6228403,41.3748984 23.6203424,41.6067062 C23.6108054,42.4535988 23.6423686,43.3018726 23.6058097,44.1471538 C23.5874168,44.5767003 23.7404642,44.9291311 23.8860183,45.3048116 C24.2032397,46.1240806 24.7756917,46.6915148 25.4977849,47.155821 C26.5037199,47.8024427 28.4874327,47.908333 29.3755166,47.2124493 C30.1178193,46.6309731 30.8762443,46.0331531 31.1741646,45.0283457 C31.2386534,44.8110403 31.345605,44.6027125 31.3485569,44.3635385 C31.354915,43.8720691 31.3608189,43.3805998 31.3669499,42.8891304 C31.8771837,42.8598955 32.3871904,42.8274378 32.8978784,42.8032672 C33.1061047,42.7933687 33.31751,42.8203017 33.5239196,42.7972821 C33.8168443,42.764364 33.8556738,42.907316 33.862486,43.1621434 C33.8854204,44.0182438 33.899726,44.8649063 34.0250705,45.7274522 C34.2294365,47.1346429 35.4465497,48.3754016 36.5426328,48.7213868 C37.9706971,49.1723415 38.7833926,49.1067356 39.9435104,48.2966744 C41.0965889,47.4921379 41.7968831,46.3708512 41.7971102,44.8902279 C41.7973372,43.3727731 41.7962019,41.8553183 41.7980185,40.3378636 C41.7986997,39.9875046 41.8098263,39.6371457 41.8161843,39.287017 C42.1872222,39.2580122 42.55826,39.2273961 42.929525,39.2013839 C43.0335246,39.1940176 43.1663625,39.2423589 43.2383447,39.193327 C43.6366314,38.9221556 44.0891886,38.9373486 44.511545,39.0043358 C44.9809056,39.0786892 45.3514893,38.7953174 45.7863348,38.772528 C46.9067147,38.7140581 48.0261864,38.6351007 49.1463392,38.5653512 C49.2155966,38.5609775 49.3091508,38.5945861 49.3513864,38.5600567 C49.740136,38.2423856 50.1976888,38.3984588 50.6257221,38.348276 C51.0517117,38.2983234 51.473614,38.1532996 51.8973329,38.1528392 C52.8746566,38.151458 53.8438057,38.1553714 54.7527803,37.7173076 C55.4394501,37.8172129 55.9349242,37.3367929 56.4624156,37.053191 C56.9910423,36.7686682 57.6084548,36.4737866 57.8094147,35.7848087 C58.6829659,34.9264063 58.9148078,33.830211 58.9318383,32.6568999 C58.9393317,32.1276783 59.1064577,31.5031554 58.8880131,31.093636 C58.630739,30.6116047 58.9590871,30.0345023 58.5151587,29.6562896 M14,29.8990183 C13.5043756,29.8990183 13.1009817,29.4956244 13.1009817,29 C13.1009817,28.5043756 13.5043756,28.1009817 14,28.1009817 C14.4956244,28.1009817 14.8990183,28.5043756 14.8990183,29 C14.8990183,29.4956244 14.4956244,29.8990183 14,29.8990183 M14,26 C12.345788,26 11,27.345788 11,29 C11,30.654212 12.345788,32 14,32 C15.654212,32 17,30.654212 17,29 C17,27.345788 15.654212,26 14,26 M37,28.8990183 C36.5043756,28.8990183 36.1009817,28.4956244 36.1009817,28 C36.1009817,27.5043756 36.5043756,27.1009817 37,27.1009817 C37.4956244,27.1009817 37.8990183,27.5043756 37.8990183,28 C37.8990183,28.4956244 37.4956244,28.8990183 37,28.8990183 M37,25 C35.345788,25 34,26.345788 34,28 C34,29.654212 35.345788,31 37,31 C38.654212,31 40,29.654212 40,28 C40,26.345788 38.654212,25 37,25 M26.5,29.7719704 C25.2473503,29.7719704 24.2280895,28.7527371 24.2280895,27.500121 C24.2280895,26.2472629 25.2473503,25.2280296 26.5,25.2280296 C27.7526497,25.2280296 28.7719105,26.2472629 28.7719105,27.500121 C28.7719105,28.7527371 27.7526497,29.7719704 26.5,29.7719704 M26.5,23 C24.018669,23 22,25.0188568 22,27.500121 C22,29.9813853 24.018669,32 26.5,32 C28.981331,32 31,29.9813853 31,27.500121 C31,25.0188568 28.981331,23 26.5,23" id="path-1"></path>
    </defs>
    <g id="Symbols" stroke="none" stroke-width="1" fill="none" fill-rule="evenodd">
        <g id="grey/food/pizza">
            <g id="couleur-icone/gris" transform="translate(0.000000, 2.000000)">
                <mask id="mask-2" fill="white">
                    <use xlink:href="#path-1"></use>
                </mask>
                <use id="Mask" fill="#828282" xlink:href="#path-1"></use>
                <g id="couleur-icone/gris-foncé" mask="url(#mask-2)" fill="#828282">
                    <g transform="translate(-1.233137, -6.199486)" id="Rectangle">
                        <rect x="0" y="0" width="66" height="66"></rect>
                    </g>
                </g>
            </g>
        </g>
    </g>
</svg>