<?xml version="1.0" encoding="UTF-8"?>
<svg width="59px" height="52px" viewBox="0 0 59 52" version="1.1" xmlns="http://www.w3.org/2000/svg" xmlns:xlink="http://www.w3.org/1999/xlink">
    <!-- Generator: Sketch 47.1 (45422) - http://www.bohemiancoding.com/sketch -->
    <title>grey/hand/rock</title>
    <desc>Created with Sketch.</desc>
    <defs>
        <path d="M34.8861506,38.2186405 C34.8684535,41.9873021 32.5636986,44.9408312 29.0148634,45.743047 C28.473839,45.8650632 27.891215,45.8765959 27.3874233,45.8777492 C25.6682803,45.881209 23.9479881,45.8791331 22.2283854,45.8765959 C19.203567,45.8724441 16.0753243,45.867831 12.9994832,45.8982774 C12.975121,45.8985081 12.9507588,45.8987387 12.9263966,45.8987387 C10.9452451,45.8987387 9.28907607,45.0967535 7.86572676,43.4494201 C6.03442574,41.3299372 4.71197266,38.6513481 3.82252299,35.2604983 C3.27184562,33.160621 2.86665188,30.9827825 2.47501823,28.8766776 C2.36033208,28.2603691 2.24587576,27.6442913 2.12774214,27.0291361 C2.07304213,26.7452006 2.16290643,26.3369424 2.33183292,26.1000604 C4.18542765,23.5008164 5.42008492,20.9504711 6.1068228,18.3034817 C6.16244214,18.0892037 6.50213377,17.7971953 6.64899639,17.7971953 C6.6519842,17.7971953 6.65520185,17.7971953 6.65818967,17.797426 L6.68416068,17.7997325 C7.1755414,17.8456327 7.91835828,17.9148291 8.12934402,18.2245979 C8.97029915,19.4592907 9.14244328,20.7534923 8.64117979,22.0714513 C8.0270688,23.6846479 7.493399,25.2782389 7.05464979,26.8081692 C6.90112204,27.343518 6.87124389,27.987505 6.96041869,28.8346985 C7.10521282,30.211013 7.77241499,31.0249923 8.94363864,31.2535707 C9.34837272,31.3324545 9.75333662,31.4101851 10.1585304,31.4879156 C10.9199636,31.6339198 11.6813969,31.7801546 12.4414512,31.9342318 C15.0764746,32.4688886 16.6846088,33.529668 17.6556488,35.3735189 C17.8059589,35.659069 18.0199324,35.8512041 18.2743564,35.9293959 C18.5228048,36.0059732 18.7992926,35.9681459 19.0732523,35.8216804 C19.6547271,35.5100663 19.7871103,34.9931699 19.4563822,34.3265788 C18.6561073,32.7133822 17.4216799,31.5458098 15.7878045,30.8566146 C14.6740388,30.3867717 13.4736265,30.0859984 12.3129751,29.7951432 L12.2911411,29.7896075 C11.7144927,29.6454485 11.5480944,29.4452406 11.5497032,28.8976671 C11.5579771,25.6189154 11.5593561,22.3401636 11.5607351,19.0611812 C11.5630334,14.4344854 11.5651019,9.65002199 11.5871658,4.94444238 C11.5901536,4.29722624 11.7859704,3.57043435 12.1245129,2.94974346 C12.5370613,2.19319716 13.5517694,1.85736441 14.4853468,2.16828649 C15.3913443,2.46998239 15.7781515,3.04638764 15.778841,4.09517302 C15.7799902,6.24602493 15.7799902,8.39687685 15.78022,10.5477288 C15.7804499,14.0167704 15.7809095,17.4858119 15.7850465,20.9548535 C15.7852763,21.0231272 15.7838973,21.0927848 15.7827482,21.1633651 C15.7772322,21.513729 15.7712566,21.8756257 15.9054784,22.1701714 L15.9054784,26.4522696 C15.9054784,28.5632183 17.6168072,30.2806706 19.7202292,30.2806706 L20.5319957,30.2806706 C21.8149177,30.2806706 22.9918871,29.6433726 23.7041364,28.5694459 C24.3414604,29.0674287 25.1300138,29.3405235 25.9376433,29.3405235 L27.0978351,29.3405235 C29.1051874,29.3405235 30.7383732,27.7014936 30.7383732,25.6869584 L30.7383732,17.2745325 C30.7383732,17.0895477 30.7211358,16.8955674 30.6875804,16.698358 L30.6875804,15.3340374 C30.6875804,13.0600161 30.6875804,10.7857641 30.68804,8.51174272 C30.6884997,6.99565161 31.3580002,6.22249819 32.678155,6.21396398 L32.6960818,6.21396398 C33.3115718,6.21396398 33.8445521,6.42016898 34.2382543,6.81135877 C34.6570081,7.22768989 34.8799451,7.81401328 34.8824732,8.50736029 C34.895114,12.1699209 34.8928157,15.8938355 34.8907472,19.4952727 C34.8898279,20.8960367 34.8891384,22.2963393 34.8891384,23.6968726 L34.8916665,23.8029736 C34.8916665,25.2268029 34.8932754,26.6504017 34.8948842,28.074231 C34.8985615,31.3993443 34.9022388,34.8372475 34.8861506,38.2186405 L34.8861506,38.2186405 Z M9.05074033,28.4698033 C9.13669748,27.6348345 9.25575044,26.7885636 9.37066642,25.9697406 C9.41203617,25.6770403 9.45317609,25.3841092 9.49293702,25.0909475 L9.54763702,25.0980978 L9.54763702,29.1423914 C9.38077902,29.1363944 9.25506094,29.0898022 9.1727811,29.0033068 C9.04108739,28.8642222 9.03373277,28.6363357 9.05074033,28.4698033 L9.05074033,28.4698033 Z M17.9551198,16.5089907 C17.9551198,15.5321695 18.7471207,14.7375652 19.7202292,14.7375652 L20.5319957,14.7375652 C21.5053341,14.7375652 22.2971051,15.5321695 22.2971051,16.5089907 L22.2971051,19.0863226 L22.2702148,19.0863226 L22.2706745,22.3936754 C22.2706745,22.4771723 22.2653883,22.5650516 22.2601022,22.6536229 C22.2465421,22.8768963 22.232982,23.1070894 22.2971051,23.2989938 L22.2971051,26.4522696 C22.2971051,27.4290908 21.5053341,28.2236951 20.5319957,28.2236951 L19.7202292,28.2236951 C18.7471207,28.2236951 17.9551198,27.4290908 17.9551198,26.4522696 L17.9551198,16.5089907 Z M24.3467465,23.2966873 C24.4122486,23.1338453 24.3952411,22.9329453 24.378923,22.7385037 C24.3717982,22.6561601 24.3649033,22.5740471 24.3649033,22.4967779 L24.3651331,19.1924236 L24.3467465,19.0863226 L24.3467465,17.2745325 C24.3467465,16.3941249 25.0603748,15.6779431 25.9376433,15.6779431 L27.0978351,15.6779431 C27.7397557,15.6779431 28.3295045,16.0785897 28.5712877,16.6769071 L28.5726667,23.1433021 C28.5726667,23.2115758 28.5719772,23.2805414 28.5710579,23.3490458 C28.5685297,23.6149903 28.5655419,23.8899303 28.6043835,24.1581813 C28.6218508,24.2771989 28.6501201,24.3922955 28.6887319,24.5009337 L28.6887319,25.6869584 C28.6887319,26.5673661 27.9751036,27.2835479 27.0978351,27.2835479 L25.9376433,27.2835479 C25.0603748,27.2835479 24.3467465,26.5673661 24.3467465,25.6869584 L24.3467465,23.2966873 Z M35.6859658,5.26851175 C34.8553531,4.47321552 33.6949315,4.0649573 32.4189045,4.11846911 C32.0109528,4.13553753 31.6101259,4.22249423 31.1860859,4.31452532 C31.0840405,4.33666813 30.9806161,4.35904161 30.86593,4.38326032 C30.1470156,4.60399654 29.522792,5.16979169 29.0109563,6.06542257 C28.7737697,6.48036977 28.6565554,6.87963246 28.5728965,7.21546521 L28.5696789,7.2281512 L28.5710579,13.9374253 C28.1028902,13.7272991 27.6082918,13.6209675 27.0978351,13.6209675 L25.9376433,13.6209675 C25.1300138,13.6209675 24.3414604,13.8940622 23.7041364,14.3918143 C22.9918871,13.3181183 21.8149177,12.6805896 20.5319957,12.6805896 L19.7202292,12.6805896 C19.0792279,12.6805896 18.4478795,12.8457382 17.8829526,13.1594281 L17.8831824,11.4945649 C17.8834123,9.02771653 17.8836421,6.56086814 17.8822631,4.0942504 L17.7963059,3.74527035 C17.4550055,2.40493786 17.1019836,1.01893581 15.6595582,0.332277775 L15.6303696,0.323282255 C15.5508477,0.311057574 15.4904019,0.301370091 15.4391494,0.285224286 C13.8471034,-0.216910258 12.3711226,-0.0522230443 11.2826385,0.749070205 C10.1886383,1.55451523 9.58601896,2.92806195 9.58532946,4.61737449 C9.58441014,7.14234778 9.58463997,9.66755172 9.5848698,12.1922944 L9.58509963,16.4681649 C7.73954902,15.4689702 6.42651905,15.3582561 5.08498992,16.0781284 C4.71725879,16.2753379 4.27759026,16.7264978 4.18657681,17.1739672 C3.66715658,19.7337693 2.5237426,22.1715553 0.479847011,25.0778002 C0.123147815,25.5852398 -0.0657740536,26.343862 0.020872594,26.9228045 C0.421239862,29.6039308 0.796325615,31.8440459 1.32493912,34.0620182 C2.09901314,37.3091703 3.36148008,41.4690217 6.27988626,44.8395739 C8.12107007,46.9659765 10.2688497,48.0002306 12.8452659,48 L12.8884743,48 C15.8898499,47.986622 18.9410989,47.9884672 21.8919114,47.9903125 C23.7422885,47.9912351 25.5928954,47.9923884 27.4432725,47.9900818 C27.9863654,47.9893899 28.4747583,47.9820089 28.9518894,47.8964362 C33.7579055,47.0384019 36.9898025,43.1521066 36.9939394,38.2260214 C36.9978466,33.8339011 36.9969272,29.4417807 36.9960079,25.0496604 L36.9953184,19.7792083 C36.9953184,18.6755271 36.9964676,17.571846 36.9978466,16.4679342 C37.0003747,13.8599254 37.0033625,11.1628839 36.9895726,8.5103588 C36.9831373,7.21823307 36.5200259,6.06703715 35.6859658,5.26851175 L35.6859658,5.26851175 Z" id="path-1"></path>
    </defs>
    <g id="Symbols" stroke="none" stroke-width="1" fill="none" fill-rule="evenodd">
        <g id="grey/hand/rock">
            <g id="couleur-icone/gris-copy-9" transform="translate(11.000000, 2.000000)">
                <mask id="mask-2" fill="white">
                    <use xlink:href="#path-1"></use>
                </mask>
                <use id="Mask" fill="#828282" xlink:href="#path-1"></use>
                <g id="couleur-icone/gris-foncé" mask="url(#mask-2)" fill="#828282">
                    <g transform="translate(-11.000000, -2.000000)" id="Rectangle">
                        <rect x="0" y="0" width="59" height="52"></rect>
                    </g>
                </g>
            </g>
        </g>
    </g>
</svg>