<?xml version="1.0" encoding="UTF-8"?>
<svg width="35px" height="35px" viewBox="0 0 35 35" version="1.1" xmlns="http://www.w3.org/2000/svg" xmlns:xlink="http://www.w3.org/1999/xlink">
    <!-- Generator: Sketch 47.1 (45422) - http://www.bohemiancoding.com/sketch -->
    <title>menu/search</title>
    <desc>Created with Sketch.</desc>
    <defs>
        <path d="M20.7492687,18.3350551 L32.7071068,30.2928932 C33.0976311,30.6834175 33.0976311,31.3165825 32.7071068,31.7071068 C32.3165825,32.0976311 31.6834175,32.0976311 31.2928932,31.7071068 L19.4219998,19.8362134 C17.3595463,21.7968082 14.5702834,23 11.5,23 C5.14872538,23 0,17.8512746 0,11.5 C0,5.14872538 5.14872538,0 11.5,0 C17.8512746,0 23,5.14872538 23,11.5 C23,14.0598133 22.1636375,16.4242837 20.7492687,18.3350551 Z M11.5,21 C16.7467051,21 21,16.7467051 21,11.5 C21,6.25329488 16.7467051,2 11.5,2 C6.25329488,2 2,6.25329488 2,11.5 C2,16.7467051 6.25329488,21 11.5,21 Z" id="path-1"></path>
    </defs>
    <g id="Symbols" stroke="none" stroke-width="1" fill="none" fill-rule="evenodd">
        <g id="menu/search">
            <g id="couleur-icone/gris" transform="translate(1.000000, 2.000000)">
                <mask id="mask-2" fill="white">
                    <use xlink:href="#path-1"></use>
                </mask>
                <use id="Mask" fill="#979797" fill-rule="nonzero" xlink:href="#path-1"></use>
                <g id="couleur-icone/gris-foncé" mask="url(#mask-2)" fill="#828282">
                    <g transform="translate(-13.000000, -11.000000)" id="Rectangle">
                        <rect x="0" y="0" width="59" height="52"></rect>
                    </g>
                </g>
            </g>
        </g>
    </g>
</svg>