<?xml version="1.0" encoding="UTF-8"?>
<svg width="59px" height="52px" viewBox="0 0 59 52" version="1.1" xmlns="http://www.w3.org/2000/svg" xmlns:xlink="http://www.w3.org/1999/xlink">
    <!-- Generator: Sketch 47.1 (45422) - http://www.bohemiancoding.com/sketch -->
    <title>grey/underwear/slip</title>
    <desc>Created with Sketch.</desc>
    <defs>
        <path d="M56.4409262,3.8697923 C56.3957047,4.5813189 56.4322033,5.29804573 56.4322033,6.06700091 L55.0206954,6.06700091 L55.0206954,2.66944445 C56.0463284,2.47500121 56.5058891,2.84693043 56.4409262,3.8697923 L56.4409262,3.8697923 Z M56.3709132,10.4528264 C53.4900507,10.8523395 50.8098155,11.7741361 48.3520151,13.1840757 C45.9061514,14.5870062 43.5810313,16.1941022 41.0509224,17.8088855 C37.8142562,15.803407 36.4250147,12.5170901 35.9911637,8.5748665 L56.3709132,8.5748665 L56.3709132,10.4528264 Z M36.4213419,30.5076117 C36.8108896,26.9447785 38.3741306,23.9428914 40.7419471,21.3434566 C44.4170553,17.3087594 48.9490768,14.5621356 54.1904102,12.9403433 C54.5475912,12.829782 54.9208408,12.7694141 55.3292117,12.6758101 C54.3040378,15.7348996 39.5296893,29.6624619 36.4213419,30.5076117 L36.4213419,30.5076117 Z M34.3824717,31.085289 L24.4840117,31.085289 C23.2524717,25.3498917 23.2524717,25.3498917 18.5914427,18.8591051 C22.1907992,16.385154 23.7836522,12.8259383 24.1594269,8.55745705 L34.6074315,8.55745705 C35.1934747,13.5123682 36.3038119,15.5840931 40.0436535,18.8532266 C38.7485279,20.7400043 37.3636479,22.5546571 36.2057937,24.50022 C35.0240662,26.485802 34.5181362,28.7241602 34.3824717,31.085289 L34.3824717,31.085289 Z M22.1347888,30.2482787 C19.1451192,29.1521614 4.94487727,15.6921673 3.83660601,12.9041678 C10.8721084,12.9181858 22.7768424,24.2022244 22.1347888,30.2482787 L22.1347888,30.2482787 Z M2.75381489,9.75260468 C2.74004184,9.37592743 2.75014208,8.99834579 2.75014208,8.55044805 L22.7022384,8.55044805 C22.4072656,12.512116 20.9243675,15.7294733 17.5139313,17.9628574 C13.1924079,14.3041592 8.4597591,11.5672575 2.83966689,10.5030199 C2.80684112,10.227634 2.76253782,9.9906846 2.75381489,9.75260468 L2.75381489,9.75260468 Z M2.76850614,3.29686304 C2.83461677,2.37800568 3.5753772,2.66808787 4.2224809,2.64412161 L4.2224809,6.04167807 L2.75404444,6.04167807 C2.75404444,5.13570823 2.70262506,4.21232894 2.76850614,3.29686304 L2.76850614,3.29686304 Z M5.66727363,6.05072194 L8.84517489,6.05072194 L8.84517489,2.70607213 L5.66727363,2.70607213 L5.66727363,6.05072194 Z M10.359292,6.06926188 L16.2162806,6.06926188 L16.2162806,2.68187977 L10.359292,2.68187977 L10.359292,6.06926188 Z M17.6534981,6.06225287 L41.548359,6.06225287 L41.548359,2.67667954 L17.6534981,2.67667954 L17.6534981,6.06225287 Z M42.9984314,6.06519213 L48.762452,6.06519213 L48.762452,2.64073015 L42.9984314,2.64073015 L42.9984314,6.06519213 Z M50.3107721,6.08667133 L53.4126921,6.08667133 L53.4126921,2.67509687 L50.3107721,2.67509687 L50.3107721,6.08667133 Z M58.1462591,1.07116624 C57.3770344,0.0975934626 56.239151,0.00715474669 55.0861174,0.00760694027 C46.5693236,0.0107722953 38.0523003,0.0091896178 29.5355066,0.0091896178 C22.1448891,0.0091896178 14.7542716,0.0091896178 7.36365403,0.0091896178 C6.13188445,0.0091896178 4.89942621,-0.0154549323 3.66834527,0.0159725215 C1.30374249,0.0758881708 0.0492473767,1.34112581 0.0304242112,3.66268764 C0.0175693665,5.2225294 0.0887301141,6.78531041 0.0145852061,8.34176071 C-0.127506738,11.3323429 0.767282276,14.0265123 2.7574877,16.1977198 C5.84173224,19.5622661 9.08230087,22.7943197 12.3618931,25.9770842 C14.3116976,27.8690622 16.4187444,29.6124945 18.5363505,31.3251777 C20.8063784,33.1610836 23.3924977,34.1593009 26.4186659,33.9696057 C28.3464335,33.8488701 30.2960084,33.839374 32.2223987,33.9711884 C35.4707721,34.1936677 38.2086244,33.1154121 40.6891504,31.1617097 C46.062705,26.92963 50.8589394,22.1029157 55.543153,17.1647357 C57.1938528,15.4244687 58.6299226,13.432556 58.8473072,11.0246252 C59.0986653,8.23956496 58.9774625,5.41742483 58.918468,2.61337244 C58.9074495,2.09041057 58.5009151,1.51974227 58.1462591,1.07116624 L58.1462591,1.07116624 Z" id="path-1"></path>
    </defs>
    <g id="Symbols" stroke="none" stroke-width="1" fill="none" fill-rule="evenodd">
        <g id="grey/underwear/slip">
            <g id="couleur-icone/gris-copy-6" transform="translate(0.000000, 11.000000)">
                <mask id="mask-2" fill="white">
                    <use xlink:href="#path-1"></use>
                </mask>
                <use id="Mask" fill="#828282" xlink:href="#path-1"></use>
                <g id="couleur-icone/gris-foncé" mask="url(#mask-2)" fill="#828282">
                    <g transform="translate(0.000000, -11.000000)" id="Rectangle">
                        <rect x="0" y="0" width="59" height="52"></rect>
                    </g>
                </g>
            </g>
        </g>
    </g>
</svg>