<?xml version="1.0" encoding="UTF-8"?>
<svg width="59px" height="52px" viewBox="0 0 59 52" version="1.1" xmlns="http://www.w3.org/2000/svg" xmlns:xlink="http://www.w3.org/1999/xlink">
    <!-- Generator: Sketch 47.1 (45422) - http://www.bohemiancoding.com/sketch -->
    <title>grey/underwear/slipper</title>
    <desc>Created with Sketch.</desc>
    <defs>
        <path d="M2.42197446,42.4390155 C8.53334122,42.2876483 14.6376404,42.152058 20.8504605,42.7003641 C20.7731736,44.1045126 20.7052341,45.3371726 20.6347867,46.6119043 L2.42197446,46.6119043 L2.42197446,42.4390155 Z M3.3216034,30.5255895 C4.65258001,26.2097936 4.91886653,21.8096253 4.52354049,17.3278284 C4.29167971,14.6978795 4.23810323,12.0521537 4.10199616,9.36824309 L18.5263811,9.36824309 C18.3239304,12.5298066 18.1068887,15.6447251 17.9306562,18.7617016 C17.7879376,21.2857848 18.208798,23.7243524 19.2221915,26.0437926 C19.9642827,27.7419869 20.9772202,29.1957528 22.9381195,29.7481746 C22.290414,33.3009607 21.6472682,36.8288238 20.9856557,40.4582081 C20.4086256,40.3838964 19.793294,40.2613392 19.1736306,40.2327578 C17.3002776,40.1465562 15.4257847,40.0685861 13.5508358,40.0393187 C10.6168964,39.993817 7.6822731,39.9773541 4.74787776,39.9819272 C4.21621666,39.9828418 3.96816895,39.8250723 3.7739257,39.3122071 C2.68050949,36.4254827 2.40259574,33.5060611 3.3216034,30.5255895 L3.3216034,30.5255895 Z M3.97113275,6.89469181 L18.6759393,6.89469181 L18.6759393,5.96133663 L3.97113275,5.96133663 L3.97113275,6.89469181 Z M18.8888773,2.48240496 L18.8888773,3.39998319 L3.82180256,3.39998319 C3.80561562,3.08170039 3.79239249,2.82035179 3.77529361,2.48240496 L18.8888773,2.48240496 Z M23.5931205,39.7411572 C24.1667308,36.1101723 24.9165736,32.5073116 25.5640511,28.8875306 C25.686479,28.2034055 26.158864,27.9790984 26.6857374,28.0088231 C27.4294246,28.050895 28.1633084,28.266742 28.9861064,28.4245114 C27.8530208,34.4501629 26.1160028,40.2409892 26.2003573,46.4454461 L25.3116716,46.4454461 L22.9479228,46.4454461 C23.1601769,44.1465845 23.2481791,41.9236352 23.5931205,39.7411572 L23.5931205,39.7411572 Z M34.2256584,30.453107 C33.1990418,35.7182638 31.7663839,40.9132245 31.7996697,46.3814237 L28.6309057,46.3814237 C28.5720856,40.6690247 30.1403946,35.2072278 31.2107843,29.5556501 C32.2417327,29.8625004 33.1703157,30.1389399 34.2256584,30.453107 L34.2256584,30.453107 Z M38.191914,31.5833311 C39.0947347,31.9510026 39.516735,32.7883242 39.3655809,33.7541479 C38.8592262,36.9920809 38.3426121,40.2286421 37.8791185,43.4727487 C37.7455193,44.4090764 37.7781212,45.3691838 37.7318402,46.381195 L34.1324125,46.381195 C34.1155416,41.1574242 35.4633891,36.1732801 36.531271,31.0174188 C37.1470586,31.2248056 37.6812275,31.3752583 38.191914,31.5833311 L38.191914,31.5833311 Z M40.2196129,45.4841954 C42.6665762,45.5788571 45.1019123,45.6728329 47.6170432,45.7702384 L47.6170432,46.5929263 L40.2196129,46.5929263 L40.2196129,45.4841954 Z M41.085956,37.0023702 C42.6939344,37.306934 44.1731013,37.5598225 45.6381331,37.8767333 C46.3642654,38.0338169 47.1070407,39.1103079 47.1676847,39.9366542 C47.2445157,40.9827345 46.7928773,41.8605274 45.837392,42.2437472 C45.2877201,42.4643959 44.6669169,42.5384789 44.0700521,42.6031873 C42.8640113,42.7339759 41.6524988,42.8135466 40.2608782,42.9292442 C40.5440356,40.895161 40.81169,38.9717451 41.085956,37.0023702 L41.085956,37.0023702 Z M1.51413807,48.9976535 C17.1748859,49.0008546 32.8358617,49.0008546 48.4968374,48.9971962 C49.5530921,48.9969675 49.9696207,48.5703039 49.9915073,47.4919837 C50.0079222,46.6962767 49.995611,45.9001124 49.9949271,45.1041767 C49.9937872,43.7837147 49.8180107,43.5639806 48.4998012,43.2898276 C48.6393281,43.0799255 48.7704195,42.8899162 48.8944433,42.6955625 C50.65084,39.9421418 48.9648907,36.0338027 45.7660327,35.424904 C44.3972106,35.1642413 43.0329482,34.878427 41.6718775,34.6049599 C42.0206946,31.9457436 41.0271359,30.0259861 38.8963877,29.3112217 C35.3457489,28.120405 31.7935141,26.929817 28.2141491,25.8304609 C26.6431042,25.3480063 25.0570124,25.5309275 23.9138954,26.8539047 C23.3311657,27.5281978 22.945643,27.310293 22.5149793,26.8699103 C22.16867,26.5159579 21.8670458,26.0947819 21.6340451,25.6562285 C20.5784744,23.6694761 20.1085973,21.5004885 20.2223618,19.2910297 C20.5246699,13.4165168 20.9608053,7.54909223 21.3497478,1.67915245 C21.4295425,0.477589129 21.0239572,0.00702446425 19.8311395,0.00359469264 C17.4502918,-0.00303619913 15.0694441,0.00153682968 12.6885964,0.00153682968 C9.48745858,0.00153682968 6.28654874,-6.37304057e-05 3.08563889,0.002222784 C1.56680261,0.0033660412 1.22961275,0.353660048 1.28660901,1.89820053 C1.32103475,2.82469617 1.38327466,3.7502772 1.43411532,4.67631553 C1.68353095,9.20064159 1.87253054,13.7295407 2.20128495,18.2481504 C2.48717818,22.1786687 2.18281817,26.017955 1.02397025,29.7916184 C0.468142742,31.6016232 0.181337572,33.4658184 0.464950952,35.3588237 C0.694987849,36.8937608 1.02533816,38.4133783 1.31351124,39.9512879 C0.101314826,40.334965 0.00100141197,40.4760429 0.00100141197,41.8902521 C0.00077342694,43.7475877 -0.00150642338,45.6046947 0.00168536707,47.4618017 C0.00373723235,48.6025438 0.381736415,48.9974248 1.51413807,48.9976535 L1.51413807,48.9976535 Z" id="path-1"></path>
    </defs>
    <g id="Symbols" stroke="none" stroke-width="1" fill="none" fill-rule="evenodd">
        <g id="grey/underwear/slipper">
            <g id="couleur-icone/gris-copy-3" transform="translate(5.000000, 1.000000)">
                <mask id="mask-2" fill="white">
                    <use xlink:href="#path-1"></use>
                </mask>
                <use id="Mask" fill="#828282" xlink:href="#path-1"></use>
                <g id="couleur-icone/gris-foncé" mask="url(#mask-2)" fill="#828282">
                    <g transform="translate(-5.000000, -1.000000)" id="Rectangle">
                        <rect x="0" y="0" width="59" height="52"></rect>
                    </g>
                </g>
            </g>
        </g>
    </g>
</svg>