<?xml version="1.0" encoding="UTF-8"?>
<svg width="111px" height="94px" viewBox="0 0 111 94" version="1.1" xmlns="http://www.w3.org/2000/svg" xmlns:xlink="http://www.w3.org/1999/xlink">
    <!-- Generator: Sketch 48.2 (47327) - http://www.bohemiancoding.com/sketch -->
    <title>icon/level/1</title>
    <desc>Created with Sketch.</desc>
    <defs>
        <path d="M57.2298478,73.4727909 C57.2413089,78.1334247 55.4122809,81.375955 51.638775,83.3850739 C50.5130687,83.9849767 49.3199935,84.3313095 48.2801059,84.3607492 C44.4697008,84.4690649 40.5899698,84.4696204 36.8405043,84.4665653 C36.0435367,84.4665653 35.2462896,84.4662876 34.4501606,84.4668431 C31.2522269,84.4696204 28.0554113,84.4682317 24.8591548,84.4673985 C18.2432896,84.463788 11.4054698,84.4618439 4.67974555,84.4996155 C4.01751609,84.5035038 3.64209432,84.4065751 3.41986029,84.1866107 C3.19538994,83.9641467 3.10062599,83.5817087 3.10314185,82.9076512 C3.13668661,72.7859578 3.13361167,62.495125 3.13081627,52.5431262 L3.12913904,35.2467618 C3.1288595,25.1664505 3.1288595,15.0861392 3.12997766,5.00582788 C3.12997766,4.16235342 3.1302572,3.69798421 3.3220214,3.50912592 C3.51406515,3.32054536 3.98648718,3.32054536 4.84467395,3.32054536 L15.1532581,3.32110083 C28.494009,3.32165629 42.2898505,3.32360042 55.8589853,3.29832674 L55.8738009,3.29832674 C56.4784452,3.29832674 56.7873365,3.37025953 56.9721122,3.5538409 C57.1540925,3.73436721 57.2345999,4.0562595 57.2337613,4.59700523 C57.1996575,25.0989614 57.1725421,49.3150381 57.2298478,73.4727909 M60.3701964,23.9680335 C60.3743894,17.3727132 60.3785825,10.7776705 60.3780235,4.18262792 C60.3777439,1.02286206 59.3529515,0.00830421017 56.1608881,0.00830421017 L4.30991457,0.00830421017 C1.00994885,0.00830421017 0.00332652199,0.995366516 0.002487903,4.23261982 C0.000531125361,13.4416834 0.000810665024,22.6501915 0.00109020469,31.8589773 L0.00136974435,57.692292 L0.000531125361,64.4817476 C-0.000307493629,70.9490331 -0.00170519195,77.6365608 0.0111536326,84.2141062 C0.0153467275,86.5662252 1.10247648,87.7593652 3.24151398,87.7604761 C7.97384094,87.762698 12.7637531,87.7635312 17.6000688,87.7635312 C27.5726463,87.7635312 37.7378266,87.7590875 47.9642261,87.7504778 C48.7556029,87.7499223 49.3809331,87.6854883 49.9324649,87.5480106 C56.3272142,85.9513248 60.442038,80.5894157 60.4154818,73.8877237 C60.3495104,57.2481973 60.3598534,40.3295494 60.3701964,23.9680335 M51.6092405,28.731111 C51.6109292,31.4597292 51.6123365,34.1883474 51.6098034,36.9169656 C51.6072703,39.7778956 50.6815654,40.6965886 47.8003122,40.6965886 C37.149217,40.6974207 26.4981218,40.6976981 15.8470266,40.696866 L9.120819,40.696866 L9.120819,9.01166441 L19.0260589,9.01305133 C29.2113464,9.01610254 39.7411346,9.01859899 50.0992353,8.98669993 C50.767972,8.98115226 51.1383666,9.06880534 51.3500206,9.27795225 C51.5566084,9.48238364 51.6472369,9.83993054 51.6432965,10.4363043 C51.6030485,16.5345732 51.6061445,22.7349191 51.6092405,28.731111 M50.8569117,5.81010792 C45.7763705,5.80733409 40.6961108,5.80788885 35.6152882,5.80844362 L30.313805,5.80899839 L24.4040979,5.80844362 C19.4797641,5.80788885 14.5543045,5.80677932 9.62997079,5.81094007 C6.92124949,5.81315913 5.8156949,6.88746413 5.81372472,9.51872084 C5.80612544,19.4446 5.80584399,29.7552097 5.81344327,40.1651225 C5.81541345,42.8693309 6.84047195,43.8751223 9.59619621,43.8762318 C16.3654664,43.8790057 23.2582952,43.8817795 30.1750477,43.8817795 C36.1700357,43.8817795 42.1833182,43.8795604 48.1501606,43.873458 C52.4541679,43.8690199 54.8296467,41.5351179 54.8392161,37.3014187 C54.8597623,28.1178168 54.8521631,19.0074441 54.8423121,9.70539971 C54.8394976,6.90382974 53.7218405,5.81149483 50.8569117,5.81010792 M17.4731973,63.9877616 C17.4748628,64.338695 17.4762507,64.6945946 17.4765283,65.0562878 L14.7882025,65.0562878 C14.78848,64.7172176 14.7893128,64.3822858 14.7901455,64.0503888 C14.7923661,63.2169218 14.7945867,62.4030431 14.7857043,61.5891644 C14.7673842,59.8706387 14.2516476,59.3690687 12.4854301,59.3522393 C11.6962808,59.3445144 10.9060213,59.3461697 10.0824526,59.3486527 L9.06569089,59.3497563 L9.06569089,56.8027297 C9.39350842,56.8030056 9.72160353,56.8041092 10.0505314,56.8054886 C10.8854807,56.8079716 11.7490203,56.8115582 12.6003466,56.7991431 C14.2308294,56.7762442 14.7618327,56.2390842 14.786537,54.5887036 C14.7951419,54.0275411 14.7995831,53.4666545 14.8043019,52.9057679 C14.8084655,52.3658491 14.8129067,51.8256543 14.8206789,51.2857354 C14.8209565,51.2661471 14.8451056,51.2195215 14.8709202,51.1698611 C14.882856,51.1469622 14.8956245,51.1218561 14.9092257,51.0945429 L17.4759731,51.0945429 C17.4756955,51.4360961 17.4748628,51.7729591 17.4740301,52.1062355 C17.4718095,52.9413579 17.4695889,53.7552366 17.4784713,54.5685636 C17.4962362,56.2835026 18.0122504,56.784245 19.7798558,56.8007985 C20.5662293,56.8082475 21.3531579,56.8060404 22.1739508,56.804385 L23.1984847,56.8030056 L23.1984847,59.3508599 C22.8337495,59.3503081 22.4753986,59.3489286 22.1220441,59.3469974 C21.2263056,59.3425831 20.3796981,59.3384448 19.5230978,59.3566536 C18.058328,59.3878293 17.504841,59.9473364 17.4804143,61.4211467 C17.4665355,62.2678565 17.4698664,63.1032547 17.4731973,63.9877616 M24.3565327,53.561837 C23.5079822,53.5455594 22.6577662,53.5494219 21.7581416,53.5532843 C21.3878549,53.5549397 21.0084082,53.556595 20.6167482,53.5568709 C20.6170257,53.1477244 20.6184136,52.7584421 20.6198015,52.3829543 C20.6231324,51.5092072 20.6259082,50.6834651 20.6131397,49.8726212 C20.588713,48.3383908 20.0244005,47.7874363 18.4574827,47.7672962 C17.0604415,47.7496392 15.562085,47.7490874 13.8758094,47.7661927 C12.1903665,47.7832979 11.6704662,48.2903858 11.6499256,49.9360762 C11.6393777,50.7808547 11.6418759,51.6148735 11.6446517,52.4980009 C11.6454844,52.8456237 11.6465947,53.1982125 11.6468723,53.556595 C11.2496607,53.5563191 10.8688261,53.5552156 10.4993721,53.5538361 C9.62556215,53.5505254 8.80032802,53.5477665 7.98342117,53.5601816 C6.38735784,53.5841841 5.84192055,54.1125156 5.82249022,55.6541951 C5.80305988,57.2196011 5.80305988,58.8443238 5.82221264,60.4839446 C5.84081025,62.0352803 6.38291662,62.5674742 7.97120782,62.5923044 C8.81614986,62.6058231 9.65554038,62.6025124 10.5437843,62.5992017 C10.9043558,62.5978222 11.2713116,62.5964428 11.6474274,62.5961669 C11.6471498,62.9937259 11.6454844,63.3769387 11.6438189,63.7499434 C11.6402104,64.6490725 11.6371571,65.4988171 11.6518686,66.3433198 C11.6776832,67.7887132 12.259483,68.3609114 13.726751,68.3840862 C14.5836288,68.3970531 15.4022011,68.4039504 16.1941261,68.4039504 C17.016862,68.4039504 17.8110076,68.3965013 18.5871108,68.3824309 C20.0402223,68.3556694 20.5892681,67.7884373 20.6128621,66.2900728 C20.6259082,65.4450183 20.6231324,64.602171 20.6198015,63.7093874 C20.6184136,63.3471424 20.6170257,62.9771725 20.6167482,62.5961669 C21.0042446,62.5964428 21.3795276,62.5980981 21.746761,62.5997535 C22.6469407,62.60334 23.496324,62.6072025 24.3468175,62.5912008 C25.8510031,62.5633358 26.418369,62.0143125 26.4400199,60.5656084 C26.464169,58.9356438 26.464169,57.2642955 26.4400199,55.5973615 C26.4192017,54.1423118 25.8543341,53.5905296 24.3565327,53.561837 M51.4837469,52.6531513 C51.463172,53.2295061 51.2327918,53.749935 50.8354946,54.1179443 C50.4280549,54.4955161 49.8690569,54.6937196 49.2697786,54.665322 C48.1178775,54.6192484 47.2861905,53.7386339 47.2919862,52.5714359 C47.2948841,51.9797232 47.5142524,51.4410387 47.9095211,51.0547738 C48.292329,50.6806793 48.8139445,50.4761009 49.3819259,50.4761009 C49.3961255,50.4761009 49.4106148,50.4761009 49.4248143,50.4763907 C50.0058361,50.4868224 50.5373044,50.7154518 50.9209816,51.1202621 C51.3052384,51.5256519 51.5049013,52.0701318 51.4837469,52.6531513 M49.388591,47.1083809 L49.3883012,47.1083809 L49.3830851,47.1083809 C47.9329938,47.1083809 46.5576674,47.6809687 45.5097997,48.7206674 C44.4599035,49.7618151 43.8817796,51.1301143 43.8817796,52.5728847 C43.8812,55.5511523 46.3982849,58.0724508 49.3787383,58.0788258 L49.3891706,58.0788258 C50.8210053,58.0788258 52.180973,57.5079767 53.2201471,56.4711756 C54.2723616,55.4213348 54.8519345,54.0397061 54.8522243,52.5807085 C54.8528038,49.5665093 52.4017902,47.1115684 49.388591,47.1083809 M38.5344283,57.8029662 C38.5222579,58.3848573 38.2991334,58.9087912 37.9070717,59.2788484 C37.5066066,59.6561504 36.9560396,59.8532051 36.3524443,59.8285733 C35.1936456,59.7851053 34.3469315,58.9099503 34.3393974,57.7481965 C34.3359202,57.1692032 34.5523799,56.6333881 34.9487882,56.238699 C35.3408499,55.8483567 35.8711328,55.6344943 36.4440123,55.6344943 C36.4529952,55.6344943 36.4619782,55.6347841 36.4709611,55.6347841 C37.0476076,55.6411594 37.5741235,55.8605277 37.9528557,56.2520292 C38.3405708,56.6528038 38.5471783,57.2036878 38.5344283,57.8029662 M41.9456257,57.7707999 C41.9204155,60.7440086 39.4066424,63.2413881 36.4483589,63.2413881 L36.4132964,63.2413881 C33.4008255,63.221103 30.9615239,60.739372 30.9754329,57.7090754 C30.9890522,54.7057288 33.4437118,52.2709432 36.4518361,52.2709432 L36.473569,52.2709432 C37.930833,52.2767389 39.3101483,52.8638462 40.3576745,53.9244646 C41.3938996,54.9734915 41.9577961,56.3395447 41.9456257,57.7707999 Z M45.5850095,65.179069 C46.1299956,65.2051372 46.5782635,65.4301309 46.8465514,65.812465 C47.0845623,66.151352 47.1622172,66.5824089 47.0716665,67.0603265 C46.9749483,67.5698984 46.633491,68.008093 46.3035277,68.4320121 C46.1633564,68.6123174 46.0184192,68.7982087 45.8981523,68.9834794 L45.8555402,69.0492707 L45.0669363,69.0365469 L45.0262866,68.9695143 C44.9107855,68.7802092 44.7686517,68.5887319 44.6312839,68.4037715 C44.3077684,67.9677493 43.9736,67.5171413 43.9035144,67.0060177 C43.8325877,66.4908597 43.9360341,66.0445964 44.2023596,65.7156401 C44.5059707,65.3416851 44.99629,65.1573454 45.5850095,65.179069 Z M45.5474461,71.6310892 C46.0961101,71.6431912 46.5511339,71.8569924 46.8284096,72.2330839 C47.0720422,72.5638707 47.1592341,72.9908525 47.0798923,73.4684142 C46.9943826,73.9801097 46.6635581,74.4285026 46.3439481,74.8613802 C46.2076932,75.0457023 46.067233,75.2362305 45.9508837,75.4252072 L45.9099512,75.4919231 L45.1215797,75.5024735 L45.078965,75.4366885 C44.958971,75.2505046 44.8123429,75.0630795 44.6704809,74.8815502 C44.3376939,74.4558096 43.9934122,74.0154846 43.9112668,73.5068922 C43.8279999,72.9914731 43.9219205,72.540908 44.1823746,72.2032945 C44.4770327,71.8216174 44.965139,71.618677 45.5474461,71.6310892 Z M45.5474461,76.7933867 C46.0961101,76.8054895 46.5511339,77.0193053 46.8284096,77.3954225 C47.0720422,77.7262319 47.1592341,78.1532429 47.0798923,78.6308373 C46.9943826,79.1425678 46.6635581,79.5909914 46.3439481,80.0238987 C46.2076932,80.2082334 46.067233,80.3987746 45.9508837,80.5877642 L45.9099512,80.6544847 L45.1215797,80.6650358 L45.078965,80.5992463 C44.958971,80.4130497 44.8123429,80.2256117 44.6704809,80.04407 C44.3376939,79.6183003 43.9934122,79.1779452 43.9112668,78.669318 C43.8279999,78.1538636 43.9219205,77.7032677 44.1823746,77.3656311 C44.4770327,76.9839279 44.965139,76.7846975 45.5474461,76.7933867 Z M50.8559985,63.8867084 C52.2532735,63.8917679 52.9081332,64.4078443 52.9161939,65.511112 C52.9198073,66.0125718 52.7827759,66.4077806 52.5087132,66.6854949 C52.2288135,66.9693931 51.8238345,67.1133098 51.3054502,67.1133098 L51.2932202,67.1133098 C50.7728903,67.1110611 50.3679113,66.9640524 50.0894013,66.6770623 C49.8167284,66.3959749 49.6821986,65.997112 49.6899814,65.4914359 C49.7061027,64.4396071 50.2884164,63.8878327 50.8551647,63.8867084 L50.8559985,63.8867084 Z M41.319822,70.5050257 C41.5016429,70.6430354 41.6899684,70.7858826 41.877055,70.9051117 L41.9458186,70.9495025 L41.9179415,71.7994718 L41.8463902,71.8393097 C41.6515599,71.9485793 41.4545615,72.081467 41.2631385,72.2100864 C40.816175,72.5111469 40.354034,72.8224514 39.8383069,72.8981433 C39.733303,72.9135094 39.6310868,72.9211924 39.5322779,72.9211924 C39.1695653,72.9211924 38.8523854,72.8176139 38.6039691,72.6158636 C38.2415663,72.321917 38.05417,71.8430089 38.0755425,71.2676363 C38.0975344,70.6834424 38.3202418,70.2127865 38.7030878,69.941889 C39.0323478,69.7085529 39.4610363,69.6382675 39.9423815,69.739854 C40.4519137,69.8468472 40.892992,70.1812007 41.319822,70.5050257 Z M51.2903762,72.9211924 C50.790019,72.9211924 50.3961268,72.7850037 50.1187065,72.5157217 C49.8426762,72.2472837 49.6981286,71.8615097 49.6900673,71.3690921 C49.6725548,70.3206647 50.2232256,69.7263871 51.2408964,69.6957165 C51.268694,69.6948723 51.2962137,69.6945909 51.3237333,69.6945909 C52.3119386,69.6945909 52.8756743,70.244129 52.914313,71.2500678 C52.9337714,71.7655586 52.8075702,72.1738432 52.5387672,72.4636661 C52.2696863,72.7537704 51.8738482,72.9074047 51.361816,72.9203482 C51.3376321,72.920911 51.3140041,72.9211924 51.2903762,72.9211924 Z M39.6387784,76.1486218 C40.6721035,76.1232995 41.2649176,76.679545 41.2991024,77.7155064 C41.3154999,78.2284227 41.1873765,78.6341414 40.9180672,78.9216897 C40.6465344,79.2114888 40.24799,79.3634223 39.7338287,79.3738325 C39.7146519,79.3741139 39.695753,79.3743952 39.677132,79.3743952 C39.1726981,79.3743952 38.7760991,79.2362483 38.4981741,78.9630493 C38.2219167,78.6921013 38.0796191,78.3038267 38.0740606,77.8091988 C38.0629436,76.7611389 38.6185157,76.1714118 39.6387784,76.1486218 Z M50.8565545,76.1477938 C52.2535514,76.1528534 52.9081332,76.6689297 52.9161939,77.7721975 C52.9198073,78.2736573 52.7827759,78.6688661 52.5087132,78.9465803 C52.2288135,79.2304785 51.8238345,79.3743952 51.3054502,79.3743952 L51.2932202,79.3743952 C50.7728903,79.3721465 50.3679113,79.2251379 50.0894013,78.9381477 C49.8167284,78.6570604 49.6821986,78.2581975 49.6899814,77.7525214 C49.7061027,76.7006926 50.2886944,76.1489182 50.8557206,76.1477938 L50.8565545,76.1477938 Z M22.4189901,11.0915769 C23.0087645,11.2694426 23.6638801,11.9162773 23.8201305,12.4763887 C23.9383127,12.8995102 23.8704148,13.3074414 23.629505,13.6247826 C23.3806406,13.9523428 22.9732531,14.1418085 22.4829107,14.1581037 C21.6809197,14.1840654 20.8615992,14.1970463 20.012449,14.1970463 C19.2113103,14.1970463 18.383751,14.1854464 17.5186917,14.1622465 C17.0880086,14.1506465 16.7490871,14.0189044 16.5118705,13.7706104 C16.2368697,13.4830977 16.1104489,13.0574904 16.1363013,12.5053885 C16.1811878,11.5343079 16.730053,11.0327486 17.7184082,11.0269486 C18.1556253,11.0286058 18.5931266,11.0286058 19.0303438,11.0283296 L19.9857443,11.0288819 C20.2309155,11.0175582 20.4723935,11.0145201 20.7133033,11.0001583 C21.2880209,10.9650823 21.8823408,10.9297301 22.4189901,11.0915769 Z M13.2291843,10.9704449 C14.2734542,10.9704449 14.8159951,11.4930057 14.8413955,12.5237217 C14.8545238,13.0522143 14.7346568,13.4400392 14.4746596,13.7089462 C14.1718527,14.0230477 13.6692675,14.1826406 12.9383642,14.1970463 L12.9357956,14.1970463 L12.933227,14.1970463 C12.3005005,14.1854652 11.6223957,13.7710886 11.6158316,12.6423571 C11.608982,11.5523234 12.1318305,10.989935 13.1698216,10.9710098 C13.1895141,10.9707273 13.2097773,10.9704449 13.2291843,10.9704449 Z" id="path-1"></path>
    </defs>
    <g id="Symbols" stroke="none" stroke-width="1" fill="none" fill-rule="evenodd">
        <g id="icon/level/1">
            <g id="couleur-icone/gris-copy-10" transform="translate(26.669947, 4.118221)">
                <mask id="mask-2" fill="white">
                    <use xlink:href="#path-1"></use>
                </mask>
                <use id="Mask" fill="#271013" xlink:href="#path-1"></use>
                <g id="couleur-icone/gris-foncé" mask="url(#mask-2)" fill="#828282">
                    <g transform="translate(-25.167491, -6.635852)" id="Rectangle">
                        <rect x="0" y="0" width="114" height="102"></rect>
                    </g>
                </g>
            </g>
        </g>
    </g>
</svg>