<?xml version="1.0" encoding="UTF-8"?>
<svg width="111px" height="94px" viewBox="0 0 111 94" version="1.1" xmlns="http://www.w3.org/2000/svg" xmlns:xlink="http://www.w3.org/1999/xlink">
    <!-- Generator: Sketch 48.2 (47327) - http://www.bohemiancoding.com/sketch -->
    <title>icon/level/2</title>
    <desc>Created with Sketch.</desc>
    <defs>
        <path d="M92.7341337,22.0431883 C91.344851,24.0012817 91.6820882,26.9305806 93.485168,28.5731536 C95.6075587,30.507723 97.9290053,30.2538131 100.980946,27.7393583 C101.115766,29.2672985 101.259923,30.7851569 101.403706,32.2966677 C101.76223,36.0746977 102.133079,39.9811762 102.327654,43.8077478 C102.481894,46.8356234 100.890568,49.1928782 98.0705478,50.1129282 C89.8461437,52.7969052 81.5175434,55.2967976 73.7427888,57.5984162 C72.4733878,57.9740535 71.054228,57.9751737 69.6813777,57.9766673 L69.3519833,57.9770407 C66.7302724,57.9837618 64.1085615,57.9994445 61.4864772,58.0151271 C53.3606673,58.0632953 44.9592417,58.1133305 36.705334,57.8799575 C32.9326099,57.7731659 29.1158172,56.72056 25.4248815,55.70268 L25.1320864,55.6216529 C21.0706753,54.5025823 16.9961931,53.1564864 13.0554106,51.8551982 C11.8252232,51.4485689 10.5954092,51.0423131 9.36335449,50.6420316 C5.2545136,49.3063908 3.49139436,46.7489953 3.81443994,42.593461 C4.12516122,38.6011012 4.5210321,34.5467575 4.9034583,30.6264632 C5.08197365,28.8020459 5.25974208,26.9768818 5.43041471,25.1513442 C5.51631122,24.2327878 5.60407505,23.3149782 5.69221234,22.3967952 C5.93757759,19.8330519 6.19115902,17.1819338 6.39506987,14.5700224 C6.63968819,11.4514113 7.62040226,10.7217938 10.6443329,9.98097428 C15.747706,8.7315882 19.5667395,7.53261069 23.0265015,6.09353897 C26.6490935,4.58688241 29.6524836,3.91327437 32.7522273,3.91327437 L32.8325218,3.91327437 C46.4392759,3.96554994 60.0647032,3.96592334 73.3293652,3.91252758 C73.3674584,3.91252758 73.4048047,3.91215418 73.4428979,3.91215418 C77.1259909,3.91215418 80.2854886,4.64662592 83.0965453,6.15514947 C86.8214661,8.15394317 91.0087343,9.43618818 95.8977395,10.0765639 C98.3230088,10.3943247 99.4202434,11.4868841 99.6850287,13.8478728 C99.8866988,15.6424183 100.029735,17.4840119 100.167916,19.2647418 C100.221322,19.9491784 100.274353,20.6354819 100.331493,21.325146 C96.7962917,19.4969947 94.3758775,19.7281274 92.7341337,22.0431883 M99.0068197,24.9358942 C98.9642449,26.5579304 97.805389,27.06463 96.8414808,27.2042805 C96.3593399,27.2752259 95.8663686,27.1169056 95.4484634,26.7625519 C94.8897627,26.2883379 94.5465501,25.5258614 94.5286239,24.7215644 C94.6462647,23.5434971 95.4040213,22.8474853 96.6629654,22.7623508 C97.2784326,22.7223973 97.9021159,22.9438217 98.3540063,23.3777089 C98.7905846,23.7962868 99.0225052,24.3496611 99.0068197,24.9358942 M106.105606,43.0183867 C105.2627,32.0860718 104.218871,21.3001284 103.403601,13.1249763 C103.049558,9.56986428 100.544367,7.02591108 96.7025525,6.3205643 C93.6289513,5.75636156 90.3820632,5.10403714 87.4354394,3.88937697 C87.0653375,3.73703103 86.6971029,3.5831915 86.3292418,3.43009876 C82.2413148,1.72852901 78.3789596,0.120308487 73.8451177,0.120308487 C73.7947002,0.120308487 73.7427888,0.120681884 73.6923713,0.121055281 C64.1813868,0.197601649 54.5101867,0.183785963 45.1579241,0.171837261 C40.919865,0.165862911 36.6814324,0.158768369 32.4441202,0.162128942 C28.8032286,0.163995926 25.1899732,1.01608769 21.0725427,2.8438656 C17.9436689,4.23327553 14.3005365,5.32620831 9.60834627,6.2843448 C5.55739216,7.11179237 3.03464901,9.74424064 2.68695487,13.5073348 L2.52263112,15.2847041 C1.75030945,23.6450611 0.951098445,32.2899465 0.119022686,40.7873402 C-0.609230334,48.2283939 1.96505073,52.1920022 9.00482992,54.4682298 C10.4583483,54.9383365 11.907385,55.4222589 13.3567953,55.9061813 C16.3284411,56.8986704 19.4009219,57.9247651 22.4610784,58.807102 C23.0560051,58.9784912 23.6520522,59.1554813 24.2499666,59.3324715 C27.4404618,60.2782859 30.7400081,61.2565858 34.0444095,61.4892121 C38.4889937,61.8021187 43.0303049,61.7326668 47.4226043,61.6662022 C49.2133598,61.6389442 51.0634959,61.6109395 52.8841284,61.6090725 L52.8845019,61.9339278 L53.0712335,61.9339278 C54.5198968,61.9339278 55.969307,61.9466233 57.4183438,61.9589454 C58.8460932,61.9716409 60.2947565,61.983963 61.7501421,61.983963 C63.7100764,61.983963 65.6827084,61.9611858 67.6355469,61.8846394 C71.0478792,61.7509633 74.3660987,61.5582905 77.4494099,60.6845417 C85.0885974,58.5188396 92.7524334,55.943521 99.2413546,53.7106075 C103.791255,52.1442074 106.485792,47.9472261 106.105606,43.0183867 M57.5430194,10.1872249 C61.6023279,10.1872249 65.7251974,10.5614739 69.7179537,10.9241212 C71.3727847,11.0741951 73.0840728,11.2295084 74.7673192,11.3563788 C77.4854893,11.5610931 77.4873588,11.6123652 77.580457,14.2964792 C77.707953,17.9465299 77.8380663,21.5965806 77.9689273,25.2466313 L78.1450288,30.173994 L78.1872782,30.36037 L78.2224237,30.358873 C78.2743943,31.8730845 78.3301037,33.3872961 78.3858131,34.9015076 C78.5200391,38.5545523 78.6594995,42.332222 78.7425028,46.0481405 C78.8135416,49.1929551 77.0076597,51.4743771 73.912236,52.1517678 C63.7925673,54.3650766 53.5790525,54.9024981 43.5588381,53.7479399 C39.9403443,53.3310265 36.3513876,52.7876169 32.8921703,52.1330554 C28.5845998,51.3175668 26.9641666,49.304107 27.1118526,44.9497196 C27.2610342,40.5650181 27.4315274,36.107338 27.5960384,31.7963635 C27.8248582,25.8226006 28.0607819,19.6456205 28.2436134,13.5681906 C28.2944623,11.8642348 29.1353377,11.4795068 30.4749806,11.410645 C32.9291853,11.2848973 35.4241439,11.1385659 37.8372209,10.9970998 C44.0912555,10.63071 50.5587804,10.2515957 56.920121,10.1902189 C57.1276291,10.1879734 57.3347634,10.1872249 57.5430194,10.1872249 M80.9017094,32.1197146 C80.671394,26.1800084 80.4336009,20.0385819 80.2249711,13.9974542 C80.0914928,10.1280935 79.0890975,9.05063061 75.3505854,8.75796788 C73.6751906,8.62623222 71.9706325,8.46979613 70.3221577,8.31859952 C65.7996012,7.90280886 61.1188899,7.47841047 56.5245468,7.51546112 C48.8104773,7.58619419 40.9741462,8.10640033 33.3954244,8.60976526 C32.2161798,8.68835756 31.0365612,8.7665756 29.8576905,8.84329665 C26.7256257,9.04688812 25.7374382,10.1752489 25.6267671,13.6714833 C25.5082445,17.428195 25.3549501,21.2474063 25.2065164,24.9408699 C25.1444508,26.4820274 25.0823853,28.0235591 25.0225632,29.5650908 L24.4228459,29.5624711 L24.4228459,29.7499698 C24.4228459,31.3281779 24.4243414,32.9067603 24.4254631,34.4849685 C24.4288281,38.0803788 24.4318192,41.7985429 24.4179853,45.4549558 C24.4004125,50.1427991 26.9593061,53.4803519 31.4384915,54.6117067 C32.806176,54.957887 34.2845315,55.2632742 35.833178,55.5207575 C41.6736918,56.4904368 47.5269178,56.9750892 53.3595799,56.9750892 C59.903752,56.9750892 66.4217519,56.3646891 72.8597396,55.1446373 C79.0580648,53.9698696 81.6057417,50.83254 81.3791652,44.6540629 C81.2254969,40.4755726 81.0636032,36.2978307 80.9017094,32.1197146 M20.3770254,26.2151929 L20.3770254,27.6905318 C20.0169005,27.7213227 19.6254768,27.7250777 19.2449889,27.7288327 C18.2004381,27.7393467 17.1200634,27.7502362 16.5261401,28.314237 C15.9423984,28.8680992 15.888474,29.9044787 15.8311556,31.0013137 C15.8092842,31.422249 15.7866585,31.8559513 15.7327341,32.2656217 L14.3687846,32.3317096 C14.3242875,31.9366838 14.3084495,31.5187525 14.2933658,31.1124617 C14.2526396,30.0186307 14.2137989,28.9852552 13.6394845,28.4058589 C13.072335,27.8339727 12.030801,27.7874107 10.9281777,27.7382202 C10.4986675,27.7190697 10.055959,27.6991683 9.63285935,27.6477248 L9.63285935,26.2290864 C10.0103306,26.1855285 10.4175922,26.169382 10.8135411,26.153611 C11.8814717,26.110804 12.9859804,26.066495 13.6217611,25.4814663 C14.2070112,24.9422485 14.2435893,23.898359 14.2828071,22.793263 C14.2975138,22.3820907 14.3122205,21.9589024 14.3570947,21.5650031 L15.7791167,21.5650031 C15.8119238,21.9352459 15.816449,22.3344022 15.8213512,22.7222935 C15.8345495,23.8153735 15.8466165,24.8479981 16.4141432,25.4394103 C16.9714883,26.0195575 18.0130223,26.069499 19.1163998,26.12282 C19.5364826,26.143097 19.9686325,26.1637495 20.3770254,26.2151929 M19.9135768,23.3005633 C19.498019,23.2111943 19.0688859,23.1188214 18.6578533,22.9990369 C18.596764,22.6712256 18.6016663,22.2852117 18.6069456,21.8796719 C18.6235377,20.569553 18.6435237,18.9387573 16.097007,18.8264828 C12.3219176,18.6612629 12.1959682,18.7434974 11.2717105,23.2716498 C7.01582605,23.6895811 6.89176208,23.820255 6.88723695,26.8422777 C6.88120345,30.0986122 7.05278128,30.1500556 11.3976599,30.5890149 C11.4685536,31.0028157 11.4666681,31.462803 11.4647827,31.9085213 C11.4595033,33.2933647 11.4530927,34.8625785 13.8355735,34.9947544 L14.1240505,35.0116519 C14.5252787,35.0353084 14.9589369,35.0615934 15.3842991,35.0615934 C16.257272,35.0615934 17.0951752,34.9523229 17.5454256,34.4934621 C18.20798,33.8183134 18.4583705,32.8040884 18.7238448,31.7305344 C18.8226434,31.3302516 18.9244588,30.9172018 19.049277,30.5270575 C22.5502189,30.2856111 23.1184998,30.0772087 23.1332065,28.0528891 C23.1343378,27.8467397 23.1415026,27.6285743 23.1486673,27.4044009 C23.1837371,26.2730199 23.2244633,24.9910635 22.6052747,24.3752438 C21.9728878,23.7447796 20.9728342,23.5292427 19.9135768,23.3005633 M88.5967934,30.5118565 C88.181916,30.9128358 87.624187,31.1064252 86.980975,31.0730742 C85.5889322,30.9987052 84.7831126,30.1779627 84.7701952,28.8213033 C84.7572777,27.497995 85.5649969,26.6258842 86.9304451,26.4890299 C87.001111,26.4821297 87.0710171,26.4786796 87.1405433,26.4786796 C87.6435631,26.4786796 88.1196084,26.6615353 88.4991528,27.0050128 C88.9759579,27.435893 89.2533027,28.0776132 89.2601413,28.7653349 C89.2673599,29.4710738 89.0318068,30.0913266 88.5967934,30.5118565 M87.0960921,23.7918117 C84.329103,23.7849115 82.0567753,25.9853141 82.0195427,28.7316005 C82.0016863,30.0503086 82.5062259,31.3076816 83.4404599,32.2725619 C84.3872314,33.250476 85.6444011,33.7959765 86.980975,33.8090103 C86.9980716,33.8090103 87.0151682,33.8093936 87.0322648,33.8093936 C88.3806164,33.8093936 89.638546,33.2953274 90.5799985,32.3588146 C91.5134727,31.4303521 92.0305498,30.1844795 92.0366286,28.8519709 C92.0491661,26.036299 89.8790381,23.813279 87.0960921,23.7918117 M94.7334511,45.0957804 C91.4296983,45.8627575 88.0164037,46.7442203 84.297685,47.7892894 C83.8279481,47.9219536 83.2813798,48.6649505 83.2714906,49.1840041 C83.2627425,49.6887469 83.534315,50.1741509 83.6796102,50.4352248 C83.7107992,50.4897603 83.7351418,50.5319189 83.7454114,50.5574461 L83.8077894,50.7140904 L83.968679,50.6723186 C84.9686291,50.4120183 85.9259795,50.1648683 86.849098,49.9262275 C90.0589034,49.0969794 92.8305412,48.3806701 95.6040808,47.5924203 C95.9387921,47.4972734 96.2232968,46.9287125 96.326753,46.6413378 C96.4918265,46.1837817 96.3925542,46.0344861 96.3598437,45.9857523 C96.0700142,45.5486953 95.2754552,44.9739459 94.7334511,45.0957804 M95.7631116,41.0910749 C95.3753156,40.8660172 94.9746812,40.632071 94.6016117,40.7127789 C91.1881006,41.4441275 87.7564648,42.2615172 84.4018595,43.1421933 C83.8690648,43.2815656 83.2358283,44.0644678 83.2728332,44.5380489 C83.3000205,44.8896794 83.7059413,45.1474469 84.0982685,45.3966814 C84.2376032,45.4848557 84.368253,45.5684079 84.4626532,45.6448493 L84.5374182,45.7052914 L84.6325736,45.6821812 C85.4840633,45.4763227 86.3227147,45.2750863 87.1504156,45.0763386 C90.0164054,44.3890771 92.7230478,43.7398584 95.4285574,43.0170428 C95.7702861,42.9256686 95.9364304,42.5114629 96.11277,42.0730803 C96.1811157,41.9024204 96.2521046,41.7260719 96.3280024,41.5888329 L96.4193818,41.4235061 L96.2400214,41.345287 C96.0889811,41.2795119 95.9232144,41.1838712 95.7631116,41.0910749 M83.2721848,40.148038 C83.2914323,40.4997972 83.70733,40.7747764 84.0749201,41.0172581 C84.207011,41.1040373 84.3315539,41.1861739 84.4183565,41.2593827 L84.4930822,41.3225922 L84.5904521,41.2990225 C85.4554588,41.0890384 86.3065017,40.884411 87.1462225,40.6822834 C90.0069342,39.994121 92.7087594,39.3445272 95.4049236,38.622796 C95.7479826,38.5310172 95.9197007,38.1210482 96.1012314,37.6875095 C96.1721831,37.5189508 96.2450218,37.3446782 96.3227667,37.2089742 L96.4193818,37.0407726 L96.2352093,36.9611357 C96.0834935,36.8957835 95.9170589,36.7997193 95.7562854,36.7072263 C95.3675607,36.4829575 94.9660044,36.250118 94.5912436,36.3297548 C91.1493319,37.054343 87.7134586,37.8603536 84.3783518,38.7252883 C83.854517,38.8609923 83.2446344,39.645933 83.2721848,40.148038 M19.7146728,36.9408394 C18.2279551,36.974755 16.915135,38.2931323 16.9047584,39.7626865 C16.899749,40.5077465 17.2003129,41.2142005 17.7513467,41.7514375 C18.291646,42.278572 19.0194399,42.574792 19.7633355,42.574792 C19.800906,42.574792 19.8395499,42.5740704 19.8774782,42.5726271 C21.4110695,42.5102081 22.5796905,41.2412608 22.5385418,39.6843921 C22.4973932,38.1369043 21.2182077,36.9007902 19.7146728,36.9408394 M19.7485827,43.2008918 L19.736775,43.2008918 C18.2618912,43.2008918 16.940149,44.4970454 16.9054417,45.9815723 C16.8696609,47.4881968 18.1277132,48.7944935 19.6523324,48.834704 C19.6805992,48.8354285 19.708866,48.8357908 19.736775,48.8357908 C20.5160805,48.8357908 21.2266868,48.5517817 21.7455082,48.0304947 C22.2707701,47.5030493 22.5527227,46.7774497 22.539126,45.9873684 C22.5126482,44.4322015 21.2867986,43.2084992 19.7485827,43.2008918 M87.6520419,15.652497 C87.6830599,15.652497 87.7140778,15.6517289 87.7450958,15.6505766 C89.2745496,15.5887396 90.1541578,14.678852 90.1583702,13.1536667 C90.1621995,11.6933911 89.3074822,10.7792785 87.8136417,10.6448502 L87.8017706,10.643698 L87.7891337,10.6440821 C86.2489576,10.7001579 85.341012,11.531693 85.1629459,13.0476604 C85.0905706,13.6694873 85.3145892,14.3139751 85.7771782,14.8148166 C86.2654239,15.3433119 86.9600732,15.652497 87.6520419,15.652497 M33.5059924,41.5951665 L72.9978652,41.5951665 L72.9978652,15.9525472 L33.5059924,15.9525472 L33.5059924,41.5951665 Z M32.9081936,13.1480975 C32.0994953,13.1480975 31.5583616,13.3126664 31.2071126,13.6659058 C30.8438551,14.031196 30.6839918,14.5877928 30.6884949,15.4705147 C30.7414075,25.9076468 30.7387806,34.3413315 30.6791133,42.0128024 C30.6719832,42.9467402 30.8386014,43.5327109 31.2202469,43.9141944 C31.5913851,44.28551 32.168169,44.4530916 33.0841934,44.4530916 C33.1123383,44.4530916 33.1412338,44.4530916 33.1705046,44.452715 C38.0534663,44.398863 43.0193619,44.4067713 47.820891,44.4158094 C51.4110612,44.4218348 55.0008562,44.422588 58.5906512,44.4173158 C63.4165725,44.4112904 68.4068604,44.4048884 73.3134639,44.4466896 C74.2850277,44.4681551 74.8588095,44.2971842 75.2367024,43.9179603 C75.5980836,43.5560594 75.7635759,42.9941903 75.7579469,42.1487506 C75.7046591,34.1677245 75.7024076,25.6734091 75.7508169,15.4174158 C75.7549448,14.5908055 75.5898277,14.0383512 75.2321992,13.6787098 C74.8681911,13.3126664 74.3225543,13.1492273 73.4646961,13.1492273 L73.4466834,13.1492273 C59.732961,13.1853797 46.1006714,13.1850031 32.9250806,13.1480975 L32.9081936,13.1480975 Z M48.1669254,38.3825781 L51.7058696,38.3825781 L51.7058696,34.8442677 L48.1669254,34.8442677 L48.1669254,38.3825781 Z M42.2154387,38.3293761 L45.8363099,38.3293761 L45.8363099,34.841645 L42.2154387,34.841645 L42.2154387,38.3293761 Z M54.0918513,38.3439879 L57.616954,38.3439879 L57.616954,34.8210386 L54.0918513,34.8210386 L54.0918513,38.3439879 Z M59.992461,38.3185109 L63.6152026,38.3185109 L63.6152026,34.9000924 L59.992461,34.9000924 L59.992461,38.3185109 Z M65.3337978,33.1541662 C64.8452289,32.6090326 63.9705935,32.5449653 63.1692807,32.5588278 C59.0706895,32.6161512 54.900646,32.6064099 50.8678955,32.5959194 C49.3064206,32.5921728 47.7445715,32.5884262 46.1823483,32.5884262 C43.1282319,32.5884262 41.5951882,32.5884262 40.8062206,33.3879554 C40.0277277,34.1781182 40.0468066,35.6599074 40.0845903,38.6122461 L40.0864607,38.7456259 C40.0958131,39.4964491 40.2398399,39.9666502 40.553332,40.2701267 C40.8694428,40.5766004 41.3535225,40.6961177 42.1604467,40.6845031 C44.6971888,40.6335491 47.2795707,40.6432903 49.7766587,40.6522822 C51.8233357,40.6608994 53.8685162,40.6601501 55.9136968,40.6481609 C58.4407125,40.6339237 61.0537702,40.6193119 63.6196918,40.6938697 C63.6776766,40.6953683 63.7345391,40.6964923 63.7895312,40.6964923 C64.5261254,40.6964923 65.0146942,40.5447541 65.3195821,40.2236685 C65.6450453,39.8804779 65.7610149,39.3649426 65.6951741,38.5523001 C65.5788304,37.1117237 65.5807009,36.0293244 65.7015337,35.0420894 C65.8100215,34.1548891 65.6933036,33.5554295 65.3337978,33.1541662 Z M54.4626775,22.5835282 L57.9211891,22.5835282 L57.9211891,19.130775 L54.4626775,19.130775 L54.4626775,22.5835282 Z M48.5430443,28.3371298 L52.1075426,28.3371298 L52.1075426,24.9458214 L48.5430443,24.9458214 L48.5430443,28.3371298 Z M48.5482507,22.580567 L52.0056467,22.580567 L52.0056467,19.1285541 L48.5482507,19.1285541 L48.5482507,22.580567 Z M46.726396,30.3303841 C46.9911767,30.5850468 47.3894634,30.6972021 47.9487754,30.6764737 C49.4638266,30.6168797 51.0212725,30.6168797 52.5783465,30.6761036 C52.6315257,30.6779543 52.6828456,30.6786946 52.7330498,30.6786946 C53.2893867,30.6786946 53.6746575,30.5550647 53.9368349,30.2944796 C54.2153753,30.017978 54.3399561,29.5893451 54.3183869,28.9837807 C54.2834299,28.0247237 54.2912394,27.0582638 54.299049,26.0355411 C54.3023959,25.6305977 54.305371,25.2156603 54.3064866,24.7870273 L60.09187,24.7870273 L60.09187,24.6019526 C60.09187,24.0200779 60.0955888,23.4500479 60.0989358,22.8892716 C60.1093485,21.1928771 60.1193893,19.5901304 60.0305093,17.9844225 C60.0052213,17.5143328 59.0394412,16.9657715 58.5400024,16.9554073 C56.4065098,16.9120998 54.238432,16.9124699 52.1384089,16.9146908 C50.7405008,16.9146908 49.3455678,16.9161714 47.9491472,16.9046968 L47.9179091,16.9046968 C47.3731005,16.9046968 46.9815077,17.0294371 46.7226772,17.2866909 C46.453062,17.5539388 46.3288531,17.9492583 46.3322001,18.5300226 C46.351538,22.015349 46.3511661,25.5610096 46.3314563,29.0685449 C46.3281094,29.6670764 46.4538058,30.0679482 46.726396,30.3303841 Z" id="path-1"></path>
    </defs>
    <g id="Symbols" stroke="none" stroke-width="1" fill="none" fill-rule="evenodd">
        <g id="icon/level/2">
            <g id="couleur-icone/gris-copy" transform="translate(1.781510, 15.508056)">
                <mask id="mask-2" fill="white">
                    <use xlink:href="#path-1"></use>
                </mask>
                <use id="Mask" fill="#271013" xlink:href="#path-1"></use>
                <g id="couleur-icone/gris-foncé" mask="url(#mask-2)" fill="#828282">
                    <g transform="translate(0.000000, -19.586305)" id="Rectangle">
                        <rect x="0" y="0" width="110" height="99"></rect>
                    </g>
                </g>
            </g>
        </g>
    </g>
</svg>