<?xml version="1.0" encoding="UTF-8"?>
<svg width="111px" height="94px" viewBox="0 0 111 94" version="1.1" xmlns="http://www.w3.org/2000/svg" xmlns:xlink="http://www.w3.org/1999/xlink">
    <!-- Generator: Sketch 48.2 (47327) - http://www.bohemiancoding.com/sketch -->
    <title>icon/level/3</title>
    <desc>Created with Sketch.</desc>
    <defs>
        <path d="M80.2564899,65.2560067 C80.2564899,64.2170615 81.1033836,63.3701678 82.1423287,63.3701678 C83.1812739,63.3701678 84.0268339,64.2170615 84.0268339,65.2560067 C84.0268339,66.2949518 83.1812739,67.1418455 82.1423287,67.1418455 C81.1033836,67.1418455 80.2564899,66.2949518 80.2564899,65.2560067 Z M52.5589322,69.7325399 C54.1700307,69.7325399 55.4810488,71.043558 55.4810488,72.6546566 C55.4810488,74.2657551 54.1700307,75.5767732 52.5589322,75.5767732 C50.9478337,75.5767732 49.6381493,74.2657551 49.6381493,72.6546566 C49.6381493,71.043558 50.9478337,69.7325399 52.5589322,69.7325399 Z M71.0821641,75.5765064 C69.4710655,75.5765064 68.1613811,74.266822 68.1613811,72.6557235 C68.1613811,71.044625 69.4710655,69.7322732 71.0821641,69.7322732 C72.6932626,69.7322732 74.0042807,71.044625 74.0042807,72.6557235 C74.0042807,74.266822 72.6932626,75.5765064 71.0821641,75.5765064 Z M47.4299574,64.152911 C48.4102202,64.152911 49.209101,64.9517918 49.209101,65.9333882 C49.209101,66.9149847 48.4102202,67.7151992 47.4299574,67.7151992 L46.081596,67.7151992 L46.081596,69.0648943 C46.081596,69.5863674 45.8468664,70.0825004 45.4374233,70.4239253 C45.1080017,70.6999993 44.7145629,70.8467053 44.299785,70.8467053 C44.0743913,70.8467053 43.8569997,70.8026935 43.6502776,70.7200046 C42.97543,70.4599349 42.5179741,69.7930895 42.5179741,69.0648943 L42.5179741,67.7151992 L41.1682789,67.7151992 C40.1866825,67.7151992 39.3891354,66.9149847 39.3891354,65.9333882 C39.3891354,64.9517918 40.1866825,64.152911 41.1682789,64.152911 L42.5179741,64.152911 L42.5179741,62.8005485 C42.5179741,62.073687 42.9740963,61.4068416 43.652945,61.1414371 C44.2704438,60.9053738 44.9346219,61.0214049 45.4374233,61.4415175 C45.8468664,61.780275 46.081596,62.276408 46.081596,62.8005485 L46.081596,64.152911 L47.4299574,64.152911 Z M59.5894834,74.7078736 C59.0986852,74.5905088 58.6772389,74.2650882 58.4371746,73.8156344 C58.2931359,73.5395604 58.2211166,73.2581517 58.2211166,72.9767429 C58.2211166,72.6886657 58.2931359,72.4059232 58.4371746,72.1378514 C58.7465908,71.5590295 59.3467517,71.1975993 60.0029276,71.1975993 L63.2464637,71.1975993 C64.2293938,71.1975993 65.0282746,71.9964801 65.0296083,72.9767429 C65.0296083,73.8036312 64.4654571,74.5144884 63.6572405,74.7078736 C63.5185366,74.7358811 63.3851675,74.7585538 63.2464637,74.7585538 L60.0029276,74.7585538 C59.8655574,74.7585538 59.7308547,74.7412159 59.5894834,74.7078736 Z M79.2744933,64.2740101 C78.2342145,64.2740101 77.3873208,63.4271164 77.3873208,62.3868376 C77.3873208,61.3465587 78.2342145,60.4996651 79.2744933,60.4996651 C80.3147722,60.4996651 81.1616659,61.3465587 81.1616659,62.3868376 C81.1616659,63.4271164 80.3147722,64.2740101 79.2744933,64.2740101 Z M79.2744933,66.2381366 C80.3147722,66.2381366 81.1616659,67.0850303 81.1616659,68.1253091 C81.1616659,69.165588 80.3147722,70.0124817 79.2744933,70.0124817 C78.2342145,70.0124817 77.3873208,69.165588 77.3873208,68.1253091 C77.3873208,67.0850303 78.2342145,66.2381366 79.2744933,66.2381366 Z M76.4013232,67.1419789 C75.3610443,67.1419789 74.5141507,66.2950852 74.5141507,65.2548064 C74.5141507,64.2145275 75.3610443,63.3676338 76.4013232,63.3676338 C77.441602,63.3676338 78.2884957,64.2145275 78.2884957,65.2548064 C78.2884957,66.2950852 77.441602,67.1419789 76.4013232,67.1419789 Z M7.74158556,4.13415625 L7.74158556,35.302511 L3.58447124,35.397203 L3.58447124,4.25285473 L7.74158556,4.13415625 Z M7.74158556,38.9261489 L7.74158556,86.8763354 L3.58447124,86.8763354 L3.58447124,38.9594912 L7.59888064,38.8661329 L7.74158556,38.9261489 Z M11.6012868,5.610552 L11.6012868,36.6735451 L11.3038738,36.5508456 L11.3038738,5.43450481 L11.6012868,5.610552 Z M11.6012868,40.5319127 L11.6012868,86.7603043 L11.3038738,86.7776422 L11.3038738,40.4078794 L11.6012868,40.5319127 Z M15.163575,35.2571655 L19.3206893,35.2571655 L19.3206893,4.083476 L15.163575,4.083476 L15.163575,35.2571655 Z M15.163575,86.8763354 L19.3206893,86.8763354 L19.3206893,38.81812 L15.163575,38.81812 L15.163575,86.8763354 Z M31.2132105,86.0734535 C31.2518875,86.2668386 31.2905646,86.4602238 31.3385774,86.6602774 L22.8816439,86.8323236 L22.8816439,39.1275363 L56.9507761,45.3198628 L56.9507761,55.081146 L47.5855991,55.0838133 C47.3828781,54.973117 47.1161399,54.8504175 46.7933868,54.7170484 C46.309257,54.5196621 45.7944523,54.3836257 45.2276337,54.3076053 C44.8088548,54.2462555 44.4394224,54.2515903 43.751238,54.2809315 C42.2748422,54.3662877 40.2729723,54.5916814 40.1769466,54.6050183 C39.7314938,54.6530312 39.3233844,54.8677554 39.0299724,55.2065129 L36.9547495,57.5978206 C36.8000414,57.7698667 36.6786755,57.9819235 36.6053225,58.208651 C36.5973204,58.2326574 35.7757668,60.7239919 34.7714976,64.1435752 C33.6565321,67.9379256 32.164132,73.4033906 31.3812555,77.8952613 C30.8277738,81.0721129 30.7717588,83.823517 31.2132105,86.0734535 Z M50.3303348,75.9880834 C49.9515666,75.6293206 49.4380957,75.4599418 48.9272921,75.5132895 C48.0230497,75.6039805 47.2215015,75.8627165 46.4919726,76.330842 C45.8264609,76.7736273 45.4103494,77.5765092 44.9168838,78.8141743 C44.7128291,79.3263116 44.488769,79.9251387 44.2206971,80.6520003 C44.0033055,81.2401579 43.7499043,81.9310098 43.4671618,82.6552039 C43.0937284,83.6181287 42.7176276,84.4983646 42.3495289,85.2719053 C42.1454742,85.696019 41.9334174,86.1147979 41.710691,86.5149051 C41.6706803,86.5895918 41.6293359,86.6629448 41.5839904,86.7389652 C41.3292554,87.1844179 41.0651846,87.58986 40.8037812,87.9379533 C40.7317619,88.0259769 40.6610763,88.1113331 40.5877233,88.1966893 C39.9822277,88.918216 39.4127417,89.284981 38.893936,89.284981 C37.7856389,89.284981 36.9174062,89.0009048 36.2252206,88.4074124 C36.0971863,88.2967161 35.9678183,88.1860198 35.8317818,88.0379801 C35.6423977,87.81392 35.4663505,87.5258428 35.2769664,87.1377388 C35.214283,87.0057034 35.1542669,86.8750017 35.0982519,86.7336304 C34.9835545,86.4482206 34.8835276,86.1281348 34.8021725,85.7827089 C34.3580535,83.9395481 34.390062,81.4255409 34.8968646,78.5140939 C35.6437314,74.2142746 37.1027892,68.8755102 38.195082,65.1531791 C39.0299724,62.3124176 39.7114885,60.2011851 39.886202,59.666375 L41.2692393,58.0686134 C42.0001019,57.992593 43.0030374,57.897901 43.7992508,57.8458871 C44.3780727,57.8085437 44.8115222,57.8058763 45.131608,57.8965673 C45.5637238,58.0232679 45.9731669,58.2459943 46.0918654,58.3273494 C46.2345703,58.4247089 46.3906121,58.5007293 46.585331,58.5660801 C46.7560434,58.6167604 46.9320906,58.6421005 47.1041367,58.6421005 L50.7797887,58.6421005 L50.7797887,66.5042079 C50.7797887,67.4858044 51.5800032,68.2846852 52.5615996,68.2846852 L71.0892326,68.2846852 C72.0708291,68.2846852 72.8697099,67.4858044 72.8697099,66.5042079 L72.8697099,58.6421005 L76.5760367,58.6421005 C76.9107931,58.6421005 77.2375473,58.5474084 77.5216235,58.3700276 C77.8310398,58.1753087 78.5939109,57.8112111 79.0340289,57.8112111 C79.7528882,57.8112111 81.5413677,57.9832572 82.406933,58.0712808 L83.8179779,59.6957162 C84.0847161,60.4119082 84.7422256,62.2070561 85.5064305,64.5290118 C86.7414282,68.2980221 88.3085149,73.6581255 88.7579687,77.7792302 C89.3381242,83.1126598 88.8980063,86.6336036 87.449618,88.2460358 C86.824117,88.9448898 85.9505495,89.2836473 84.7782353,89.2836473 C82.3282452,89.2836473 80.4704139,83.7528314 79.464811,80.765364 C78.5525665,78.0526368 78.0937769,76.6896048 76.9001236,76.1641306 C76.2372792,75.8747197 75.5344242,75.6733324 74.8022279,75.5639697 C74.2327419,75.4972852 73.7366089,75.6599955 73.3498386,76.0147572 C72.1268441,77.141726 70.0702928,77.1257217 68.8606352,75.9827487 C68.533881,75.6746661 68.0897619,75.4972852 67.6403081,75.4972852 L56.0678728,75.4972852 C55.6104168,75.4972852 55.1769673,75.670665 54.846212,75.9827487 C53.6218838,77.1403923 51.554663,77.141726 50.3303348,75.9880834 Z M46.9774361,83.4274109 C47.176156,82.8979356 47.3708749,82.3737951 47.5629264,81.852322 C47.9030175,80.9280743 48.3591398,79.682407 48.6178758,79.2009446 L48.6378812,79.1929425 C49.7968585,80.010495 51.1545558,80.4399434 52.5749365,80.4399434 C54.0833408,80.4399434 55.51039,79.9598147 56.7107118,79.0502376 L56.9494424,79.0502376 L56.9494424,85.954755 L45.8437989,86.1934857 C46.2158986,85.3665973 46.5879984,84.4570202 46.9774361,83.4274109 Z M54.3380758,64.7250644 L69.3034206,64.7250644 L69.3034206,58.6421005 L54.3380758,58.6421005 L54.3380758,64.7250644 Z M22.8816439,35.5078993 L22.8816439,4.71297807 L56.9494424,15.195788 L56.9494424,41.7002259 L22.8816439,35.5078993 Z M92.2962505,77.3977946 L92.2975842,77.3977946 C91.8187892,72.9846117 90.1796832,67.3604374 88.8886704,63.4207147 C87.8937371,60.3919029 87.0641814,58.2206542 87.026838,58.1299632 C86.9481503,57.9299096 86.8387876,57.7471939 86.7107533,57.6058227 L84.632863,55.2118477 C84.3381173,54.8717565 83.9300079,54.6570323 83.4845552,54.6076857 L83.3951979,54.5983499 C81.2759632,54.3716224 79.7648915,54.252924 79.0273604,54.252924 C77.9417361,54.252924 76.850777,54.6957093 76.1025764,55.0838133 L60.5117306,55.081146 L60.5117306,13.8807688 C60.5117306,13.0952249 60.0062618,12.4110415 59.2540602,12.1776456 L21.6453125,0.606544003 L21.5586226,0.586538641 C21.4732663,0.563865897 21.3892438,0.549195297 21.2692117,0.534524698 L13.3830978,0.52118779 C12.6695732,0.52118779 12.0467396,0.93863302 11.7653308,1.56413402 L10.379626,0.74524785 C10.2769318,0.689232835 10.1675692,0.642553656 10.0555392,0.607877694 L9.94884388,0.577202805 C9.84081493,0.549195297 9.7287849,0.535858389 9.59008105,0.527856244 L9.49005424,0.52118779 L1.75464742,0.741246777 C0.78505419,0.770587975 0.024850417,1.5521308 0.024850417,2.52172404 L0.024850417,88.6554789 C0.024850417,89.6370754 0.823731224,90.4372899 1.80532768,90.4372899 L9.5247302,90.4372899 L12.6482341,90.2719122 C12.8856311,90.3812749 13.1323639,90.4372899 13.3830978,90.4372899 L21.1478458,90.4372899 L32.9896867,90.1812212 C33.0230289,90.2305678 33.0590386,90.2785807 33.0963819,90.3225925 C34.4780856,91.9670333 36.4799556,92.8379334 38.8846001,92.8379334 C40.7237598,92.8379334 42.336192,91.8563369 43.828592,89.8077878 L58.7805999,89.4730314 C59.7515269,89.4476913 60.5117306,88.6648148 60.5117306,87.6912205 L60.5117306,79.0502376 L66.9814649,79.0502376 C68.1644486,79.9478115 69.6275075,80.4399434 71.1145727,80.4399434 C72.510947,80.4399434 73.8459716,80.0251656 74.9876109,79.238288 C75.0342901,79.2529586 75.0809693,79.2689629 75.1263148,79.2849672 C75.397054,79.846451 75.8358383,81.1668049 76.0825711,81.9030023 C77.5442962,86.2575028 79.7555556,92.8379334 84.7635647,92.8379334 L84.818246,92.8379334 C87.0095001,92.8379334 88.7873099,92.0950676 90.1009954,90.6293414 C92.2842473,88.1953556 93.001773,83.8675288 92.2962505,77.3977946 Z" id="path-1"></path>
    </defs>
    <g id="Symbols" stroke="none" stroke-width="1" fill="none" fill-rule="evenodd">
        <g id="icon/level/3">
            <g id="couleur-icone/gris" transform="translate(14.404074, 0.498254)">
                <mask id="mask-2" fill="white">
                    <use xlink:href="#path-1"></use>
                </mask>
                <use id="Mask" fill="#000000" xlink:href="#path-1"></use>
                <g id="couleur-icone/gris-foncé" mask="url(#mask-2)" fill="#828282">
                    <g transform="translate(-14.370940, -4.280471)" id="Rectangle">
                        <rect x="0" y="0" width="120" height="100"></rect>
                    </g>
                </g>
            </g>
        </g>
    </g>
</svg>