<?xml version="1.0" encoding="UTF-8"?>
<svg width="111px" height="94px" viewBox="0 0 111 94" version="1.1" xmlns="http://www.w3.org/2000/svg" xmlns:xlink="http://www.w3.org/1999/xlink">
    <!-- Generator: Sketch 48.2 (47327) - http://www.bohemiancoding.com/sketch -->
    <title>icon/level/all</title>
    <desc>Created with Sketch.</desc>
    <defs>
        <path d="M25.429461,25.6054247 C24.772297,25.6054247 24.3105338,25.6054247 23.8487706,25.6054247 C18.4078841,25.6054247 12.9667405,25.5969402 7.52585399,25.6092813 C4.6642593,25.6157089 3.56152977,26.7238377 3.55510211,29.5782334 C3.54507496,33.8626551 3.54867445,38.1468198 3.55381658,42.4312415 C3.55741607,45.5568845 4.66271666,46.654729 7.81792691,46.6580714 C13.173197,46.6639849 18.528467,46.6580714 23.8837371,46.6629564 C24.3750675,46.6632135 24.8661408,46.7064074 25.429461,46.7328894 C25.429461,47.3761697 25.429461,47.8443605 25.429461,48.3122943 C25.429461,53.7105011 25.4240618,59.1087079 25.431775,64.5069148 C25.4361458,67.4777797 26.4715134,68.5046628 29.4691174,68.5113476 C33.7535392,68.5208605 38.0377038,68.5193179 42.3221255,68.5118618 C45.3868343,68.5067197 46.4309436,67.4734089 46.4345431,64.4410955 C46.4409707,59.000209 46.4353144,53.5590654 46.4404565,48.1181789 C46.4407136,47.6667 46.4854501,47.2152211 46.5150174,46.6598712 C47.1629256,46.6598712 47.6701966,46.6598712 48.1772105,46.6598712 C53.5754174,46.6596141 58.9736242,46.6747833 64.3718311,46.6529293 C67.1069294,46.6418737 68.2991319,45.4473572 68.3099304,42.741569 C68.3268994,38.3717879 68.3243284,34.0017497 68.3109588,29.6317116 C68.3019601,26.7109824 67.1894605,25.6128808 64.2489342,25.6079957 C58.8507273,25.5995112 53.4525205,25.6054247 48.0543137,25.6054247 C47.557584,25.6054247 47.0605973,25.6054247 46.4371141,25.6054247 C46.4371141,24.9482606 46.4371141,24.4862403 46.4371141,24.0242201 C46.436857,18.5403968 46.4481697,13.0565735 46.4306865,7.57275021 C46.4224591,4.95489242 45.270108,3.77348832 42.6905591,3.75934747 C38.1922248,3.73440814 33.6933763,3.73517946 29.195042,3.75883325 C26.5843832,3.7724599 25.4394882,4.93483812 25.4335747,7.53624109 C25.4209765,12.9344479 25.429461,18.3326548 25.429461,23.7308616 C25.429461,24.2823549 25.429461,24.8338482 25.429461,25.6054247 M22.173208,22.3787388 C22.173208,17.2260687 22.1706369,12.2616004 22.1739793,7.2971321 C22.1770645,3.27007391 24.8913372,0.545002738 28.9502766,0.529319245 C33.6193296,0.511064688 38.2886397,0.509007836 42.9576927,0.529833458 C46.8975918,0.547573803 49.6632858,3.30324064 49.6866824,7.24751056 C49.7136786,11.7880103 49.6933672,16.3290243 49.6936243,20.869524 C49.6936243,21.330773 49.6936243,21.7917648 49.6936243,22.3787388 C50.2744278,22.3787388 50.7331057,22.3787388 51.1920407,22.3787388 C55.7327975,22.3789959 60.2735544,22.3640838 64.8140541,22.3836239 C68.7652659,22.4003358 71.5186188,25.130292 71.5453579,29.091788 C71.5774962,33.8464574 71.574668,38.6016411 71.5448437,43.3563105 C71.5217041,47.0468164 68.7320992,49.8443915 65.0230817,49.8760156 C60.4399023,49.9150958 55.8559515,49.8860428 51.272515,49.886557 C50.8058668,49.886557 50.3394757,49.886557 49.6936243,49.886557 C49.6936243,50.410797 49.6936243,50.8630473 49.6936243,51.3150404 C49.6933672,55.8557972 49.5928386,60.3993823 49.7267911,64.9362825 C49.8247486,68.2552696 47.0996774,71.9259783 42.8525361,71.7783992 C38.1035231,71.6133368 33.3442257,71.744204 28.5892992,71.739319 C25.0237471,71.7354624 22.216916,69.0073059 22.1873488,65.4378972 C22.1485257,60.7691013 22.1747506,56.0995342 22.173208,51.4304812 C22.1729508,50.9676896 22.173208,50.5051551 22.173208,49.886557 C21.6199149,49.886557 21.1645794,49.886557 20.7092439,49.886557 C16.2111667,49.886557 11.7133466,49.8940131 7.21552652,49.884243 C2.9879253,49.8749872 0.325073888,47.2139355 0.314789631,42.9822206 C0.303476947,38.3131676 0.305533799,33.6438576 0.314789631,28.9748046 C0.321988611,25.1989394 3.06942804,22.415248 6.87434627,22.3874805 C11.4575257,22.3537995 16.0412193,22.3789959 20.624913,22.3787388 C21.0889901,22.3787388 21.5528101,22.3787388 22.173208,22.3787388 M41.1503225,17.0820114 L30.2101811,17.0820114 C32.0647094,14.1111503 33.835475,11.275074 35.6740009,8.32989824 C37.4962743,11.2422678 39.26704,14.0719864 41.1503225,17.0820114 M8.32989824,35.6841362 C11.2643225,33.8487085 14.1050814,32.0721729 17.0820114,30.2101811 L17.0820114,41.1503225 C14.1340973,39.3091309 11.2727218,37.5220699 8.32989824,35.6841362 M54.2784923,41.1503225 L54.2784923,30.2101811 C57.2504665,32.0658412 60.0873741,33.8369712 63.0306054,35.6746248 C60.1173889,37.4972731 57.2863316,39.2684031 54.2784923,41.1503225 M41.1503225,55.007835 C39.2848223,57.992483 37.5065324,60.8377352 35.6801265,63.7599482 C33.8529688,60.836461 32.0746789,57.9912088 30.2101811,55.007835 L41.1503225,55.007835 Z" id="path-1"></path>
    </defs>
    <g id="Symbols" stroke="none" stroke-width="1" fill="none" fill-rule="evenodd">
        <g id="icon/level/all">
            <g id="couleur-icone/gris-copy-11" transform="translate(18.566041, 10.566041)">
                <mask id="mask-2" fill="white">
                    <use xlink:href="#path-1"></use>
                </mask>
                <use id="Mask" fill="#1D1D1B" xlink:href="#path-1"></use>
                <g id="couleur-icone/gris-foncé" mask="url(#mask-2)" fill="#828282">
                    <g transform="translate(-27.283155, -22.508928)" id="Rectangle">
                        <rect x="0" y="0" width="129" height="116"></rect>
                    </g>
                </g>
            </g>
        </g>
    </g>
</svg>